<svg width="98" height="44" viewBox="0 0 98 44" fill="none" xmlns="http://www.w3.org/2000/svg">
<path d="M9.08562 20.3358C9.08562 20.3358 3.18129 17.9741 0.819557 20.8083C-1.54217 23.6424 1.29198 27.8935 8.14077 26.4762C8.14077 26.4762 8.84921 34.2698 18.0601 35.2147C27.2706 36.1595 29.6324 30.9636 29.6324 30.9636C29.6324 30.9636 30.6696 41.2766 43.0943 43.4807C54.8039 45.5579 59.6264 34.9786 59.6264 34.9786C59.6264 34.9786 64.6631 39.8816 72.9292 37.7559C81.1953 35.6302 82.2989 30.7276 82.2989 30.7276C82.2989 30.7276 94.149 34.1377 96.7053 25.5317C99.4567 16.2699 85.8415 13.9595 85.8415 13.9595C85.8415 13.9595 86.253 5.22656 77.3394 2.62324C70.8122 0.71682 66.7116 7.3467 66.7116 7.3467C66.7116 7.3467 61.6459 2.58582 54.6841 5.58674C48.6699 8.17892 48.5266 13.0146 48.5266 13.0146C48.5266 13.0146 47.5272 1.83838 35.7186 0.18509C23.9099 -1.4682 20.8947 8.52757 20.8947 8.52757C20.8947 8.52757 9.55805 7.3463 9.08562 20.3358Z" fill="#DEF5FF"/>
<path d="M96.285 26.5955C90.8571 31.2652 82.8919 28.6332 82.8919 28.6332C86.0126 27.0727 86.6128 22.0312 86.6128 22.0312C86.6128 22.0312 84.8123 25.7521 80.131 26.8327C75.4497 27.9129 72.4488 23.8318 72.4488 23.8318C73.6492 27.6729 77.3701 28.9934 77.3701 28.9934C77.3701 28.9934 73.289 33.6747 67.4073 34.2749C61.5257 34.8751 58.645 32.1142 58.645 32.1142C61.7657 30.9138 63.2064 28.1529 63.2064 28.1529C66.3275 27.7927 67.5275 25.3919 67.5275 25.3919C61.2857 27.9125 57.3248 25.0317 57.3248 25.0317C58.2852 26.7121 61.1659 27.7927 61.1659 27.7927C61.1659 27.7927 60.6859 29.473 56.3644 30.5536C52.0433 31.6338 48.082 29.233 48.082 29.233C50.3626 32.234 54.8039 33.0741 54.8039 33.0741C54.8039 33.0741 49.1622 38.7158 41.24 37.1552C33.3178 35.5947 31.8775 28.3929 31.8775 28.3929C34.8784 27.7927 37.3993 24.7917 37.3993 24.7917C27.1962 28.753 21.7949 22.391 21.7949 22.391C22.6351 26.2321 24.9156 27.5527 24.9156 27.5527C24.9156 27.5527 21.6747 31.3938 15.7931 30.0732C9.91145 28.7531 9.55126 23.2312 9.55126 23.2312C9.55126 23.2312 6.79033 25.7517 3.06943 24.5514C1.49136 24.0423 0.630085 23.0151 0.156465 22.001C-0.707195 24.6751 2.20616 27.7039 8.14154 26.4757C8.14154 26.4757 8.84998 34.2693 18.0609 35.2142C27.2714 36.159 29.6331 30.9631 29.6331 30.9631C29.6331 30.9631 30.6703 41.2761 43.0951 43.4802C54.8047 45.5574 59.6272 34.9782 59.6272 34.9782C59.6272 34.9782 64.6639 39.8811 72.93 37.7554C81.196 35.6297 82.2997 30.7271 82.2997 30.7271C82.2997 30.7271 93.0855 33.81 96.285 26.5955Z" fill="#BDE7FF"/>
<path d="M85.8415 13.959C85.8415 13.959 86.253 5.22607 77.3394 2.62275C70.8122 0.716332 66.7116 7.34622 66.7116 7.34622C66.7116 7.34622 61.6459 2.58535 54.6841 5.58627C48.6699 8.17884 48.5266 13.0141 48.5266 13.0141C48.5266 13.0141 47.5272 1.83789 35.7186 0.184601C23.9099 -1.46869 20.8947 8.52708 20.8947 8.52708C20.8947 8.52708 12.8053 7.68531 10.009 15.2545C11.2674 13.996 14.0646 11.5109 16.6408 11.3911C20.0971 11.2303 21.9454 12.677 21.9454 12.677C21.9454 12.677 23.8745 6.32734 32.6353 6.32734C41.396 6.32734 43.3248 16.6152 43.3248 16.6152C43.3248 16.6152 46.4594 13.7218 50.2368 14.6057C54.0142 15.4897 54.7378 16.6152 54.7378 16.6152C54.7378 16.6152 54.4966 11.3911 59.2388 9.86396C63.981 8.33684 66.4724 11.5519 66.4724 11.5519C66.4724 11.5519 63.8202 12.2754 62.6146 15.2489C62.6146 15.2489 67.9192 11.4715 72.5809 13.963C72.5809 13.963 70.6518 11.6323 68.7231 11.5519C68.7231 11.5519 70.813 6.32773 75.8764 6.72931C80.9401 7.13129 84.1548 15.4901 84.1548 15.4901C84.1548 15.4901 88.2777 15.2099 92.4782 16.3748C89.3746 14.562 85.8415 13.959 85.8415 13.959Z" fill="white"/>
</svg>
