<svg width="32" height="19" viewBox="0 0 32 19" fill="none" xmlns="http://www.w3.org/2000/svg">
<path d="M26.6355 13.2015C26.6355 13.2015 31.808 13.3412 31.9477 9.84639C32.0874 6.35156 28.1734 6.35155 28.1734 6.35155C28.1734 6.35155 27.6692 0.745723 21.4635 0.0607648C15.1107 -0.640113 13.4952 4.95338 13.4952 4.95338C13.4952 4.95338 12.7107 1.62929 9.77508 1.90908C6.83943 2.18888 6.36581 4.81369 6.36581 4.81369C6.36581 4.81369 0.704258 2.97612 0.0523335 6.94816C-0.494916 10.2818 3.43016 10.685 3.43016 10.685C3.43016 10.685 3.01664 14.0031 6.03985 15.1887C9.06345 16.3744 11.0789 14.4182 11.0789 14.4182C11.0789 14.4182 11.149 16.881 12.9762 17.6197C15.7626 18.7461 16.9482 16.4341 16.9482 16.4341C16.9482 16.4341 19.0823 19.4577 22.9951 18.3907C27.5601 17.1457 26.6355 13.2015 26.6355 13.2015Z" fill="#F5FCFF"/>
<path d="M8.26508 9.64928C8.25434 9.56012 8.24199 9.47415 8.23324 9.37903C8.23324 9.37903 8.23125 9.4853 8.26508 9.64928Z" fill="#BCD1CA"/>
<path d="M31.9297 9.9777C30.3859 10.1266 29.5163 8.43066 29.5163 8.43066C29.5163 8.43066 30.4054 11.3357 25.9594 12.1062C21.5129 12.8767 20.1493 10.7427 20.1493 10.7427C21.4536 13.4698 24.0028 13.4105 24.0028 13.4105C24.0028 13.4105 23.4695 16.9085 20.3866 16.6713C17.3036 16.4341 17.1257 14.1814 17.1257 14.1814C17.1257 14.1814 16.5327 15.9007 14.0428 15.8414C11.5529 15.7821 11.7309 12.9957 11.7309 12.9957C15.1103 12.6992 15.7029 10.3872 15.7029 10.3872C15.7029 10.3872 13.9835 12.0473 11.0789 11.6322C8.86525 11.3162 8.37412 10.1755 8.26507 9.64975C8.55362 12.0027 9.59678 12.2845 9.59678 12.2845C9.59678 12.2845 8.58903 14.1814 5.80264 13.1143C3.01624 12.0473 4.6763 8.19385 4.6763 8.19385C4.6763 8.19385 3.66856 9.08299 1.35658 8.13456C0.758389 7.88939 0.353618 7.41577 0.0778036 6.85181C0.0710376 6.88643 0.0583035 6.91349 0.0523335 6.94891C-0.494916 10.2826 3.43016 10.6857 3.43016 10.6857C3.43016 10.6857 3.01664 14.0039 6.03985 15.1895C9.06345 16.3751 11.0789 14.419 11.0789 14.419C11.0789 14.419 11.149 16.8818 12.9762 17.6205C15.7626 18.7468 16.9482 16.4349 16.9482 16.4349C16.9482 16.4349 19.0827 19.4584 22.9954 18.391C27.5605 17.1461 26.6355 13.2019 26.6355 13.2019C26.6355 13.2019 31.6607 13.3305 31.9297 9.9777Z" fill="#BDE7FF"/>
<path d="M21.2761 1.37573C24.0032 1.28061 25.6883 2.05033 26.6726 2.78703C25.6955 1.52895 24.0955 0.351671 21.4632 0.061131C15.1103 -0.639747 13.4952 4.95374 13.4952 4.95374C13.4952 4.95374 12.7108 1.62965 9.7751 1.90945C9.09413 1.97432 8.55085 2.16814 8.10986 2.42326C8.5811 2.43759 9.10089 2.52595 9.6565 2.73927C11.9685 3.62841 12.3243 5.58497 12.3243 5.58497C12.3243 5.58497 9.953 5.82218 9.59719 7.89695C9.59719 7.89695 13.2134 5.11056 17.6006 7.77836C17.6006 7.77836 17.2448 5.82218 14.7549 5.46637C14.7549 5.46637 16.1773 1.55363 21.2761 1.37573Z" fill="white"/>
</svg>
