<svg width="32" height="22" viewBox="0 0 32 22" fill="none" xmlns="http://www.w3.org/2000/svg">
<path d="M3.04497 13.0789C3.04497 13.0789 0.259371 12.1778 0.0138051 14.5535C-0.232159 16.9295 3.20896 16.028 3.20896 16.028C3.20896 16.028 2.72817 20.0892 7.22358 21.0257C11.1562 21.8452 12.6308 17.5846 12.6308 17.5846C12.6308 17.5846 13.2043 18.7317 15.0069 18.8956C16.8094 19.0596 17.055 17.5846 17.055 17.5846C17.055 17.5846 18.4981 21.3294 22.4622 20.6162C26.5588 19.8787 26.7224 16.5196 26.7224 16.5196C26.7224 16.5196 30.0815 17.5026 31.0646 15.127C32.0476 12.7509 29.7536 11.7679 29.7536 11.7679C29.7536 11.7679 31.3921 8.08117 28.197 5.62313C25.7242 3.72108 23.6908 4.72206 23.6908 4.72206C23.6908 4.72206 21.3968 -1.58664 14.269 0.379875C7.99769 2.10998 8.5338 7.01612 8.5338 7.01612C8.5338 7.01612 5.5269 5.68203 3.61809 8.16316C1.97992 10.2933 3.04497 13.0789 3.04497 13.0789Z" fill="#F5FCFF"/>
<path d="M31.0645 15.127C31.2098 14.7759 31.2767 14.4591 31.297 14.1678C29.467 16.0463 26.5524 15.1954 26.5524 15.1954C27.5972 14.4233 27.3245 12.8787 27.3245 12.8787C27.3245 12.8787 26.9158 13.8327 25.4619 14.2868C24.0084 14.7409 22.5545 14.2414 22.5545 14.2414C23.1451 15.7403 24.6894 15.7403 24.6894 15.7403C24.6894 15.7403 24.326 18.3297 21.4186 18.5565C18.5112 18.7838 17.0124 15.4676 17.0124 15.4676C15.2862 18.1024 13.2421 16.5124 13.2421 16.5124C15.0136 16.1037 15.3316 13.8776 15.3316 13.8776C15.3316 13.8776 14.2869 15.1496 12.1062 15.2404C9.92597 15.3311 9.2442 14.2864 9.2442 14.2864C9.47145 15.9218 10.8796 16.6485 10.8796 16.6485C10.8796 16.6485 9.5622 19.8739 6.5187 18.8745C3.47519 17.8751 4.70183 14.4683 4.70183 14.4683C4.70183 14.4683 3.79318 15.5584 1.79443 15.513C0.731766 15.4887 0.262527 14.8874 0.0535771 14.329C0.0392491 14.403 0.0209423 14.4719 0.0125843 14.5534C-0.23338 16.9295 3.20773 16.028 3.20773 16.028C3.20773 16.028 2.72694 20.0892 7.22235 21.0257C11.155 21.8448 12.6296 17.5846 12.6296 17.5846C12.6296 17.5846 13.2031 18.7316 15.0056 18.8956C16.8082 19.0596 17.0538 17.5846 17.0538 17.5846C17.0538 17.5846 18.4969 21.3294 22.461 20.6162C26.5576 19.8787 26.7212 16.52 26.7212 16.52C26.7212 16.52 30.0815 17.503 31.0645 15.127Z" fill="#BDE7FF"/>
<path d="M29.9605 8.10028C29.7046 7.25373 29.1812 6.38012 28.197 5.62313C25.7242 3.72108 23.6908 4.72206 23.6908 4.72206C23.6908 4.72206 21.3967 -1.58624 14.269 0.379876C7.99768 2.10998 8.53378 7.01613 8.53378 7.01613C8.53378 7.01613 5.52689 5.68203 3.61808 8.16316C3.20098 8.70564 2.96019 9.2903 2.83124 9.86104C3.60376 9.17329 4.77746 8.33908 6.06021 8.18266C8.30692 7.90844 10.2249 9.33329 10.2249 9.33329C10.2249 9.33329 9.34809 6.31923 10.9922 4.45619C12.6364 2.59316 15.2118 4.62057 15.2118 4.62057C15.2118 4.62057 13.6775 4.94931 13.5677 6.59345C13.5677 6.59345 16.253 3.90815 18.9928 6.10033C18.9928 6.10033 18.9379 4.51112 17.2942 4.18237C17.2942 4.18237 18.3903 2.75753 20.1984 3.52487C22.0069 4.29221 22.8837 6.64838 22.8837 6.64838C22.8837 6.64838 24.5823 5.49776 26.884 6.15525C28.4704 6.60778 29.4837 7.55462 29.9605 8.10028Z" fill="white"/>
</svg>