<svg width="42" height="23" viewBox="0 0 42 23" fill="none" xmlns="http://www.w3.org/2000/svg">
<path d="M3.83758 11.0415C3.83758 11.0415 1.247 10.3278 0.305335 12.838C-0.444099 14.8368 0.195086 16.3977 2.1234 17.3617C4.05171 18.3256 6.51572 17.4688 6.51572 17.4688C6.51572 17.4688 6.07912 21.3727 11.3367 22.6109C15.9213 23.6907 17.9785 20.0398 17.9785 20.0398C17.9785 20.0398 20.6388 22.5652 25.2631 20.6826C28.6903 19.2876 29.2268 16.0762 29.2268 16.0762C29.2268 16.0762 32.1195 17.5758 34.5831 16.0762C37.0471 14.5765 36.7255 12.7552 36.7255 12.7552C36.7255 12.7552 40.3433 13.441 41.0343 10.9551C41.6595 8.70639 39.5111 7.72015 39.5111 7.72015C39.5111 7.72015 40.8607 1.95949 35.8256 1.1022C30.7905 0.245302 29.6753 4.93017 29.6753 4.93017C29.6753 4.93017 27.1023 1.22757 23.0132 3.43448C20.634 4.71883 20.6563 6.54127 20.6563 6.54127C20.6563 6.54127 18.835 0.22063 13.5858 0.00650626C8.33658 -0.207618 8.22951 4.93454 8.22951 4.93454C8.22951 4.93454 6.51533 4.07765 4.47996 5.79144C2.44498 7.50602 3.83758 11.0415 3.83758 11.0415Z" fill="#F5FCFF"/>
<path d="M41.1298 9.87524C40.8432 10.4504 40.3218 11.1039 39.3404 11.5202C37.2692 12.399 35.8889 11.0183 35.8889 11.0183C35.8889 11.0183 35.8889 13.152 34.1317 14.7209C32.3746 16.2898 29.8015 14.7838 29.8015 14.7838C31.6844 13.5914 31.6215 11.8971 31.6215 11.8971C28.4208 15.3485 24.4046 13.0266 24.4046 13.0266C25.4713 14.6584 27.2284 15.1603 27.2284 15.1603C27.2284 15.1603 26.6008 18.8004 23.0864 19.3023C19.5721 19.8042 18.6308 18.2352 18.6308 18.2352C20.4509 17.4822 20.5762 15.0974 20.5762 15.0974C20.5762 15.0974 20.0115 16.4152 17.3755 16.6034C14.7396 16.7917 13.4218 15.1599 13.4218 15.1599C13.6729 16.9171 15.4926 18.1095 15.4926 18.1095C15.4926 18.1095 14.6767 20.306 10.5976 19.6784C6.51849 19.0507 7.58513 14.4694 7.58513 14.4694C7.58513 14.4694 6.26736 16.9171 2.87839 16.2894C1.29952 15.9969 0.461731 15.0787 0.0111952 14.1804C-0.0628328 15.5404 0.651972 16.6257 2.12338 17.3616C4.05169 18.3256 6.5157 17.4687 6.5157 17.4687C6.5157 17.4687 6.0791 21.3727 11.3367 22.6109C15.9212 23.6906 17.9785 20.0398 17.9785 20.0398C17.9785 20.0398 20.6387 22.5651 25.2631 20.6825C28.6903 19.2876 29.2268 16.0761 29.2268 16.0761C29.2268 16.0761 32.1194 17.5758 34.5831 16.0761C37.0471 14.5764 36.7255 12.7552 36.7255 12.7552C36.7255 12.7552 40.3433 13.4409 41.0342 10.955C41.1461 10.555 41.1664 10.1968 41.1298 9.87524Z" fill="#BDE7FF"/>
<path d="M39.5644 4.78817C39.2842 3.22522 38.3736 1.5365 35.8256 1.10268C30.7905 0.245791 29.6753 4.93065 29.6753 4.93065C29.6753 4.93065 27.1023 1.22806 23.0132 3.43497C20.634 4.71932 20.6562 6.54176 20.6562 6.54176C20.6562 6.54176 18.835 0.221119 13.5858 0.00699456C8.33656 -0.207129 8.22949 4.93503 8.22949 4.93503C8.22949 4.93503 6.51531 4.07814 4.47994 5.79193C3.24455 6.8323 3.2732 8.53972 3.48573 9.72417C3.68672 8.8422 4.26064 7.07349 5.68787 6.62056C7.61021 6.01122 9.11067 7.55825 9.11067 7.55825C9.11067 7.55825 10.3297 3.10423 14.2214 3.61964C18.113 4.13545 19.4256 7.41735 19.4256 7.41735C19.4256 7.41735 17.5033 7.98013 17.3628 10.1839C17.3628 10.1839 18.8163 8.73035 20.6917 8.77731C22.567 8.82428 24.0205 9.57452 24.0205 9.57452C24.0205 9.57452 23.2703 7.69914 21.6294 7.27726C21.6294 7.27726 24.1145 4.08888 27.0215 5.02657C29.9285 5.96426 30.5378 6.94891 30.5378 6.94891C30.5378 6.94891 31.335 2.82285 34.5699 2.63539C37.2648 2.47937 39.0438 4.2055 39.5644 4.78817Z" fill="white"/>
</svg>
