<svg width="182" height="122" viewBox="0 0 182 122" fill="none" xmlns="http://www.w3.org/2000/svg">
<path d="M17.6035 75.5007C17.6035 75.5007 1.49927 70.299 0.0795892 84.0131C-1.34239 97.7294 18.5516 92.5255 18.5516 92.5255C18.5516 92.5255 15.772 115.97 41.7611 121.376C64.4967 126.106 73.0217 101.511 73.0217 101.511C73.0217 101.511 76.3373 108.133 86.7583 109.079C97.1792 110.026 98.5989 101.511 98.5989 101.511C98.5989 101.511 106.942 123.129 129.859 119.012C153.543 114.754 154.489 95.363 154.489 95.363C154.489 95.363 173.909 101.038 179.592 87.3238C185.275 73.6075 172.013 67.9326 172.013 67.9326C172.013 67.9326 181.486 46.6504 163.014 32.4608C148.718 21.4808 136.962 27.2591 136.962 27.2591C136.962 27.2591 123.7 -9.15926 82.4923 2.19291C46.2364 12.1803 49.3358 40.5022 49.3358 40.5022C49.3358 40.5022 31.9522 32.8008 20.9169 47.1237C11.4462 59.4202 17.6035 75.5007 17.6035 75.5007Z" fill="#DEF5FF"/>
<path d="M179.592 87.3239C180.432 85.2975 180.818 83.4686 180.936 81.7868C170.356 92.6313 153.506 87.7191 153.506 87.7191C159.546 83.2619 157.97 74.3451 157.97 74.3451C157.97 74.3451 155.607 79.8523 147.202 82.4738C138.799 85.0953 130.393 82.2119 130.393 82.2119C133.808 90.8644 142.736 90.8644 142.736 90.8644C142.736 90.8644 140.635 105.812 123.826 107.122C107.018 108.434 98.3527 89.2906 98.3527 89.2906C88.3736 104.5 76.5559 95.3217 76.5559 95.3217C86.7974 92.9621 88.6358 80.1119 88.6358 80.1119C88.6358 80.1119 82.5959 87.4549 69.9891 87.9787C57.3845 88.5025 53.443 82.4715 53.443 82.4715C54.7568 91.9121 62.8976 96.1074 62.8976 96.1074C62.8976 96.1074 55.2815 114.727 37.6862 108.958C20.0909 103.188 27.1824 83.5215 27.1824 83.5215C27.1824 83.5215 21.9293 89.8144 10.374 89.5525C4.23052 89.4124 1.51773 85.9408 0.309743 82.7173C0.226909 83.1447 0.121073 83.5422 0.0727533 84.0131C-1.34923 97.7295 18.5447 92.5256 18.5447 92.5256C18.5447 92.5256 15.7651 115.97 41.7542 121.376C64.4898 126.104 73.0147 101.511 73.0147 101.511C73.0147 101.511 76.3304 108.133 86.7513 109.079C97.1723 110.026 98.592 101.511 98.592 101.511C98.592 101.511 106.935 123.129 129.853 119.012C153.536 114.754 154.482 95.3653 154.482 95.3653C154.482 95.3653 173.909 101.04 179.592 87.3239Z" fill="#BDE7FF"/>
<path d="M173.209 46.7607C171.73 41.8738 168.704 36.8307 163.014 32.4608C148.718 21.4808 136.963 27.2592 136.963 27.2592C136.963 27.2592 123.7 -9.15693 82.4925 2.19295C46.2367 12.1804 49.336 40.5022 49.336 40.5022C49.336 40.5022 31.9524 32.8009 20.9171 47.1237C18.5057 50.2553 17.1137 53.6304 16.3682 56.9251C20.8343 52.9549 27.6198 48.1393 35.0357 47.2363C48.0245 45.6533 59.1127 53.8785 59.1127 53.8785C59.1127 53.8785 54.0437 36.4792 63.5489 25.7244C73.0541 14.9696 87.9434 26.6733 87.9434 26.6733C87.9434 26.6733 79.0733 28.5711 78.4383 38.0622C78.4383 38.0622 93.9627 22.5607 109.802 35.2156C109.802 35.2156 109.485 26.0415 99.9819 24.1437C99.9819 24.1437 106.319 15.9185 116.772 20.3481C127.227 24.7778 132.296 38.3793 132.296 38.3793C132.296 38.3793 142.117 31.7371 155.423 35.5326C164.595 38.1449 170.453 43.6108 173.209 46.7607Z" fill="white"/>
</svg>
