<svg width="217" height="124" viewBox="0 0 217 124" fill="none" xmlns="http://www.w3.org/2000/svg">
<path d="M22.13 87.3606C22.13 87.3606 9.72117 82.042 3.0742 90.9057C-3.57276 99.7694 1.30083 112.178 10.6079 114.837C19.9149 117.495 27.0052 113.95 27.0052 113.95C27.0052 113.95 34.8634 126.028 52.7095 123.7C73.0954 121.042 75.3105 109.52 75.3105 109.52C75.3105 109.52 83.2875 120.599 104.117 122.372C124.946 124.144 132.48 109.963 132.48 109.963C132.48 109.963 141.787 123.702 167.933 123.702C194.079 123.702 225.102 92.2373 214.908 60.7727C204.714 29.3081 173.693 27.978 173.693 27.978C173.693 27.978 164.386 -4.37329 131.593 0.501889C100.005 5.19815 97.0264 33.2966 97.0264 33.2966C97.0264 33.2966 84.1742 21.3311 67.3335 31.5232C52.9217 40.2459 60.6865 57.2275 60.6865 57.2275C60.6865 57.2275 60.2432 53.239 50.4944 55.4558C40.7441 57.6709 42.0741 66.9779 42.0741 66.9779C42.0741 66.9779 33.9672 58.3185 24.7901 64.3194C13.2679 71.8499 22.13 87.3606 22.13 87.3606Z" fill="#DEF5FF"/>
<path d="M216.222 80.7027C208.195 94.0916 194.323 108.245 170.148 110.848C141.342 113.95 131.593 95.3377 131.593 95.3377C138.24 94.8944 140.013 90.9059 140.013 90.9059C159.513 97.5529 162.614 82.0422 162.614 82.0422C162.614 82.0422 160.398 89.1325 151.092 87.8041C141.785 86.474 136.468 78.0553 136.468 78.0553C136.468 78.0553 136.025 87.3623 123.173 90.0208C110.321 92.6793 99.6851 86.0323 99.6851 86.0323C110.321 96.2244 119.628 95.3393 119.628 95.3393C119.628 95.3393 115.196 103.316 97.9117 105.531C80.6277 107.747 68.6622 96.2244 68.6622 96.2244C68.6622 96.2244 63.787 105.088 52.7082 109.077C41.6294 113.065 33.6524 106.861 33.6524 106.861C41.186 106.418 42.0728 101.543 42.0728 101.543C27.8921 106.418 18.5851 96.6678 18.5851 96.6678C19.0284 103.758 23.9036 105.975 23.9036 105.975C23.9036 105.975 19.9151 112.178 8.39296 107.305C2.07058 104.631 0.688335 99.5542 0.726336 95.5167C-1.81813 103.595 2.83539 112.617 10.6097 114.838C19.9167 117.497 27.007 113.952 27.007 113.952C27.007 113.952 34.8653 126.03 52.7114 123.702C73.0972 121.044 75.3123 109.52 75.3123 109.52C75.3123 109.52 83.2893 120.599 104.118 122.372C124.948 124.145 132.481 109.963 132.481 109.963C132.481 109.963 141.788 123.702 167.934 123.702C188.471 123.701 212.007 104.282 216.222 80.7027Z" fill="#BDE7FF"/>
<path d="M173.694 27.9766C173.694 27.9766 164.387 -4.37476 131.594 0.500424C100.005 5.1951 97.0272 33.2951 97.0272 33.2951C97.0272 33.2951 84.175 21.3296 67.3343 31.5233C54.6151 39.2216 59.1673 53.3453 60.4118 56.5579C59.769 55.5287 57.6235 53.8345 50.4936 55.4543C40.7433 57.6694 42.0733 66.9764 42.0733 66.9764C42.0733 66.9764 33.9664 58.317 24.7893 64.318C14.9724 70.7369 19.9505 82.9384 21.64 86.4123C21.4642 84.5328 20.8847 73.815 30.0666 70.5628C40.1416 66.9954 46.6476 70.5628 46.6476 70.5628C46.6476 70.5628 48.7471 61.118 56.721 59.6486C64.6964 58.1793 67.4245 62.1678 67.4245 62.1678C67.4245 62.1678 67.0049 46.0064 77.7085 41.5998C88.412 37.1918 98.487 43.6994 98.487 43.6994C98.487 43.6994 88.203 48.3165 87.9924 56.9221C87.9924 56.9221 93.8683 44.9582 105.413 46.2185C116.955 47.4773 119.685 51.2552 119.685 51.2552C119.685 51.2552 115.698 43.4904 108.142 42.23C108.142 42.23 107.723 29.8465 116.537 23.5511C125.352 17.2556 133.958 28.3787 133.958 28.3787C133.958 28.3787 128.291 29.6375 123.883 35.9346C123.883 35.9346 134.167 29.8481 143.192 31.5265C152.217 33.2048 154.525 35.0938 154.525 35.0938C154.525 35.0938 150.117 29.0073 143.611 27.9576C143.611 27.9576 156.342 18.1344 173.694 27.9766Z" fill="white"/>
</svg>
