<svg width="59" height="55" viewBox="0 0 59 55" fill="none" xmlns="http://www.w3.org/2000/svg">
<g clip-path="url(#clip0_54_13)">
<path d="M36.1572 44.8258L33.8202 50.1413L28.7392 47.3306C27.5739 46.686 26.1403 46.7776 25.0666 47.5653L20.3848 51L17.3899 46.0253C16.7031 44.8845 15.4155 44.247 14.0918 44.3923L8.31997 45.026L8.21369 39.2205C8.18929 37.8891 7.39311 36.6932 6.17399 36.1573L0.858633 33.8202L3.66931 28.7392C4.31388 27.5739 4.22234 26.1403 3.43463 25.0666L0 20.3848L4.97469 17.3899C6.11552 16.7031 6.75302 15.4155 6.60769 14.0918L5.97397 8.31997L11.7795 8.21369C13.1109 8.18929 14.3068 7.39311 14.8427 6.17399L17.1798 0.858633L22.2608 3.66931C23.4261 4.31388 24.8597 4.22234 25.9334 3.43463L30.6152 0L33.6101 4.97469C34.2969 6.11552 35.5845 6.75302 36.9082 6.60769L42.68 5.97397L42.7863 11.7795C42.8107 13.1109 43.6069 14.3068 44.826 14.8427L50.1415 17.1797L47.3308 22.2607C46.6862 23.426 46.7778 24.8596 47.5655 25.9333L51 30.6152L46.0253 33.6101C44.8845 34.2969 44.247 35.5845 44.3923 36.9082L45.026 42.68L39.2205 42.7863C37.889 42.8105 36.6932 43.6068 36.1572 44.8258Z" fill="#FEBB48"/>
<path d="M25.5 42.3904C34.8283 42.3904 42.3904 34.8283 42.3904 25.5C42.3904 16.1717 34.8283 8.60962 25.5 8.60962C16.1717 8.60962 8.60962 16.1717 8.60962 25.5C8.60962 34.8283 16.1717 42.3904 25.5 42.3904Z" fill="#FFE270"/>
<path opacity="0.11" d="M47.5652 25.9334C46.7775 24.8597 46.6858 23.4259 47.3305 22.2608L50.1412 17.1798L45.274 15.0398C45.2775 15.218 45.2807 15.3962 45.2807 15.5752C45.2807 30.3847 33.2752 42.3902 18.4657 42.3902C14.8423 42.3902 11.3876 41.67 8.2348 40.3674L8.32007 45.026L14.0919 44.3923C15.4156 44.247 16.7031 44.8844 17.39 46.0253L20.3848 51L25.0665 47.5651C26.1402 46.7774 27.574 46.6858 28.7391 47.3305L33.8201 50.1411L36.1571 44.8257C36.6931 43.6067 37.8889 42.8105 39.2203 42.786L45.0258 42.6797L44.3921 36.9078C44.2468 35.5841 44.8842 34.2967 46.0251 33.6098L51 30.6152L47.5652 25.9334Z" fill="#A20606"/>
<path d="M14.2013 26.2806C13.7702 26.2806 13.4207 25.9311 13.4207 25.5C13.4207 18.8394 18.8395 13.4207 25.5 13.4207C25.9311 13.4207 26.2806 13.7702 26.2806 14.2013C26.2806 14.6324 25.9311 14.9819 25.5 14.9819C19.7002 14.9819 14.9819 19.7002 14.9819 25.5C14.9819 25.9311 14.6324 26.2806 14.2013 26.2806Z" fill="#FFEFAD"/>
<path d="M6.90044 40.5353C6.90044 40.5353 3.79683 40.5353 4.01096 42.9672C4.22508 45.3991 7.0075 44.2938 7.0075 44.2938C7.0075 44.2938 7.08789 48.5299 10.9672 49.4889C14.4258 50.344 15.9971 47.1676 15.9971 47.1676C15.9971 47.1676 15.3261 52.604 20.3238 53.7579C25.8329 55.0298 27.1268 50.926 27.1268 50.926C27.1268 50.926 29.1602 55.6789 35.9023 54.1316C42.6444 52.5843 42.1095 47.168 42.1095 47.168C42.1095 47.168 44.25 49.5317 47.6743 48.5369C51.0991 47.5421 51.2062 43.9624 51.2062 43.9624C51.2062 43.9624 57.2017 45.4575 57.9483 41.4199C58.531 38.2695 55.0588 37.3302 55.0588 37.3302C55.0588 37.3302 55.3569 32.8803 52.1463 31.3326C48.9356 29.7853 46.9253 31.3614 46.9253 31.3614C46.9253 31.3614 46.3693 23.6015 38.0173 23.0322C31.5959 22.5944 29.588 26.8297 29.588 26.8297C29.588 26.8297 26.9342 24.8397 23.7585 27.1158C20.475 29.4688 21.2408 33.462 21.2408 33.462C21.2408 33.462 18.5117 28.3342 13.3886 28.7227C7.99255 29.1305 4.05594 34.6121 6.90044 40.5353Z" fill="#F5FCFF" fill-opacity="0.5"/>
<path d="M55.5822 42.2438C52.147 43.5156 50.2677 41.6411 50.2677 41.6411C50.2677 41.6411 49.8788 43.4486 47.4809 44.7205C45.0829 45.9924 42.8792 44.1179 42.8792 44.1179C44.1106 43.1806 44.5644 41.2395 44.5644 41.2395C42.1664 44.1178 37.111 42.2438 37.111 42.2438C37.8887 43.9843 40.8052 44.3189 40.8052 44.3189C40.8052 44.3189 40.5461 48.5361 35.685 49.808C30.8242 51.0798 28.1019 47.4648 28.1019 47.4648C30.3056 46.9962 31.3424 44.3185 31.3424 44.3185C32.9626 43.9168 33.8052 42.1764 33.8052 42.1764C31.0184 44.2515 27.9072 42.2434 27.9072 42.2434C28.4907 43.4482 29.9812 43.9838 29.9812 43.9838C29.9812 43.9838 29.3333 45.7243 26.4812 45.7913C23.6296 45.8583 22.0742 43.4482 22.0742 43.4482C22.6576 46.126 25.7035 47.5318 25.7035 47.5318C25.7035 47.5318 24.4721 51.3474 20.1944 50.2096C15.9167 49.0717 16.6295 44.2519 16.6295 44.2519C16.6295 44.2519 14.6204 47.4648 11.4444 47.0636C8.26874 46.662 7.6204 42.5114 7.6204 42.5114C7.6204 42.5114 6.77783 43.7162 5.28732 43.2476C4.66764 43.0528 4.38665 42.4057 4.26645 41.7176C4.07143 42.0391 3.96476 42.4468 4.01053 42.9669C4.22466 45.3988 7.00707 44.2934 7.00707 44.2934C7.00707 44.2934 7.08747 48.5295 10.9668 49.4885C14.4254 50.3436 15.9967 47.1672 15.9967 47.1672C15.9967 47.1672 15.3257 52.6037 20.3234 53.7576C25.8325 55.0294 27.1268 50.9257 27.1268 50.9257C27.1268 50.9257 29.1602 55.6785 35.9023 54.1312C42.6444 52.5839 42.1095 47.1676 42.1095 47.1676C42.1095 47.1676 44.2499 49.5313 47.6743 48.5365C51.0991 47.5417 51.2062 43.9621 51.2062 43.9621C51.2062 43.9621 57.2016 45.4571 57.9483 41.4196C57.9658 41.3254 57.9789 41.2338 57.9893 41.1437C57.4381 41.4685 56.6647 41.8426 55.5822 42.2438Z" fill="#BDE7FF" fill-opacity="0.5"/>
<path d="M51.8227 31.8678C52.6939 32.1247 53.38 32.4856 53.8743 32.8067C53.458 32.2193 52.9 31.6956 52.1466 31.3322C48.936 29.7845 46.9257 31.3609 46.9257 31.3609C46.9257 31.3609 46.3697 23.6011 38.0176 23.0317C31.5963 22.5939 29.5884 26.8293 29.5884 26.8293C29.5884 26.8293 26.9345 24.8392 23.7589 27.1154C20.4754 29.4684 21.2411 33.4615 21.2411 33.4615C21.2411 33.4615 18.512 28.3338 13.389 28.7223C9.51525 29.0158 6.39413 31.9233 5.99335 35.7315C7.05203 34.0161 9.13237 31.5957 11.9633 31.4666C16.3704 31.266 19.5464 37.0227 19.5464 37.0227C19.5464 37.0227 20.7779 35.0146 22.7221 34.8806C24.6663 34.7465 26.5461 36.1524 26.5461 36.1524C26.5461 36.1524 25.3147 33.8093 23.4998 33.4077C23.4998 33.4077 23.9535 28.8554 27.2589 28.5208C30.5643 28.1862 32.2494 29.9937 32.2494 29.9937C32.2494 29.9937 30.2403 30.7969 29.7866 32.6714C29.7866 32.6714 31.8606 29.8601 35.2957 30.4623C38.7308 31.065 39.8325 31.9352 39.8325 31.9352C39.8325 31.9352 37.8883 29.1905 34.6474 28.9899C34.6474 28.9899 38.2767 24.6386 42.4895 27.2494C46.7024 29.8601 46.9615 32.7384 46.9615 32.7384C46.9615 32.7384 48.647 30.9305 51.8227 31.8678Z" fill="white" fill-opacity="0.5"/>
</g>
<defs>
<clipPath id="clip0_54_13">
<rect width="59" height="55" fill="white"/>
</clipPath>
</defs>
</svg>
