<svg width="86" height="81" viewBox="0 0 86 81" fill="none" xmlns="http://www.w3.org/2000/svg">
<path d="M37.8846 30.0728C34.3783 25.3091 28.73 22.2185 22.3677 22.2185C11.7318 22.2185 3.11014 30.8401 3.11014 41.476C3.11014 52.1119 11.7318 60.7336 22.3677 60.7336H54.0515C69.9627 60.7336 82.8579 47.8384 82.8579 31.9272C82.8579 16.016 69.9627 3.12077 54.0515 3.12077C41.4014 3.12077 30.6483 11.2735 26.7798 22.6234" fill="#EEEEEE"/>
<path d="M37.8846 30.0728C34.3783 25.3091 28.73 22.2185 22.3677 22.2185C11.7318 22.2185 3.11014 30.8401 3.11014 41.476C3.11014 52.1119 11.7318 60.7336 22.3677 60.7336H54.0515C69.9627 60.7336 82.8579 47.8384 82.8579 31.9272C82.8579 16.016 69.9627 3.12077 54.0515 3.12077C41.4014 3.12077 30.6483 11.2735 26.7798 22.6234" stroke="#3869A3"/>
<path d="M76.1119 68.0977C76.1119 67.7567 76.1652 67.4263 76.2718 67.1172H55.5968V30.8934C55.5968 30.3073 55.1172 29.8277 54.5311 29.8277C53.9449 29.8277 53.4654 30.3073 53.4654 30.8934V69.2487H76.3357C76.1972 68.897 76.1119 68.5027 76.1119 68.0977Z" fill="black" stroke="#3869A3"/>
<path d="M12.8828 70.7833C12.5098 69.8561 11.6039 69.1954 10.5382 69.1954C9.14208 69.1954 8.01242 70.325 8.01242 71.7211C8.01242 73.1172 9.14208 74.2469 10.5382 74.2469C11.5506 74.2469 12.4245 73.6501 12.8295 72.7869C12.9787 72.4671 13.0639 72.1048 13.0639 71.7211C13.0639 71.3908 13 71.071 12.8828 70.7833Z" fill="black" stroke="#3869A3"/>
<path d="M79.1705 65.0497C77.8277 65.0497 76.6874 65.913 76.2824 67.1172C76.1758 67.4263 76.1225 67.7567 76.1225 68.0977C76.1225 68.5027 76.1971 68.8863 76.3464 69.2487C76.8046 70.3677 77.8916 71.1563 79.1812 71.1563C80.865 71.1563 82.2398 69.7922 82.2398 68.0977C82.2291 66.4139 80.8543 65.0497 79.1705 65.0497ZM62.9503 13.8739C63.1741 13.3304 62.9183 12.7016 62.3748 12.4778C54.0622 9.03552 47.9556 10.8153 44.3002 12.9147C40.3357 15.1847 38.3641 18.2647 38.2895 18.4032C37.9805 18.9041 38.1297 19.5542 38.6199 19.8739C38.8011 19.9805 38.9929 20.0337 39.1847 20.0337C39.5364 20.0337 39.8881 19.8632 40.0906 19.5435C40.1119 19.5115 41.913 16.73 45.4405 14.7265C50.1403 12.0728 55.5542 11.9769 61.5542 14.46C62.0977 14.6732 62.7265 14.4174 62.9503 13.8739Z" fill="black" stroke="#3869A3"/>
<path d="M79.1705 73.778C77.849 73.778 76.73 74.6092 76.3037 75.7815H45.3126V62.8544H53.4654V58.5915H45.3126V43.7353C45.3126 43.1492 44.833 42.6696 44.2469 42.6696C43.6607 42.6696 43.1812 43.1492 43.1812 43.7353V58.5915H36.0515V43.7353C36.0515 43.1492 35.5719 42.6696 34.9858 42.6696C34.3996 42.6696 33.9201 43.1492 33.9201 43.7353V58.5915H22.3677C12.9254 58.5915 5.24156 50.9076 5.24156 41.4654C5.24156 32.0231 12.9254 24.3393 22.3677 24.3393C27.7922 24.3393 32.9503 26.9503 36.1687 31.3304C36.8615 32.2789 38.2043 32.4813 39.1528 31.7886C40.1012 31.0959 40.3037 29.7531 39.611 28.8046C37.6607 26.1616 35.0924 23.9663 32.1829 22.4636C31.341 22.0266 30.4671 21.643 29.5719 21.3233C33.7602 11.6252 43.3517 5.25222 54.0622 5.25222C68.7691 5.25222 80.7371 17.2202 80.7371 31.9272C80.7371 46.1119 69.611 57.7389 55.6181 58.5488V62.8224C63.302 62.4494 70.4636 59.2735 75.9414 53.7957C81.7815 47.9556 85 40.1865 85 31.9272C85 23.6679 81.7815 15.8988 75.9414 10.0586C70.1012 4.21847 62.3321 1 54.0728 1C41.4121 1 30.1048 8.68384 25.3943 20.3108C24.4032 20.1723 23.3908 20.0977 22.389 20.0977C10.5915 20.0977 1 29.6892 1 41.4867C1 53.2842 10.5915 62.8757 22.389 62.8757H33.9414V70.7513H15.0888C14.6306 68.6625 12.7655 67.0853 10.5382 67.0853C7.9698 67.0853 5.88099 69.1741 5.88099 71.7425C5.88099 74.3108 7.9698 76.3996 10.5382 76.3996C12.7123 76.3996 14.5453 74.897 15.0568 72.8828H36.0515V62.8757H43.1812V77.9343H76.3144C76.7513 79.0853 77.8703 79.9059 79.1705 79.9059C80.8544 79.9059 82.2291 78.5417 82.2291 76.8472C82.2291 75.1421 80.8544 73.778 79.1705 73.778ZM12.8295 72.7869C12.4245 73.6501 11.5506 74.2469 10.5382 74.2469C9.1421 74.2469 8.01243 73.1172 8.01243 71.7211C8.01243 70.325 9.1421 69.1954 10.5382 69.1954C11.5933 69.1954 12.5098 69.8561 12.8828 70.7833C13 71.0711 13.0639 71.3908 13.0639 71.7211C13.0639 72.1048 12.9787 72.4671 12.8295 72.7869Z" fill="black" stroke="#3869A3"/>
</svg>
