<svg width="49" height="41" viewBox="0 0 49 41" fill="none" xmlns="http://www.w3.org/2000/svg">
<g clip-path="url(#clip0_58_166)">
<path d="M25 38.461C27.5281 38.1421 29.874 37.2109 32.2199 36.2161C34.5945 35.209 36.6648 33.7684 38.9383 32.5501C42.0952 30.8583 46.5704 30.6993 48.3329 27.5813C49.9878 24.6536 47.7115 20.9945 47.3609 17.6498C47.0102 14.3042 47.8867 10.6702 46.2522 7.73004C44.6165 4.78769 41.6841 2.32024 38.4081 1.54535C35.0941 0.761494 31.8895 3.1964 28.5005 3.53122C26.1282 3.76561 23.7673 2.73497 21.4338 3.22241C19.0974 3.71046 16.9576 4.87188 15.0726 6.33613C13.2148 7.77931 12.4326 10.2357 10.5646 11.6657C7.47834 14.0284 0.856771 13.5563 0.577296 17.4331C0.291837 21.3928 7.70839 21.5141 9.60309 25.0028C11.0383 27.6453 8.07138 31.298 9.53426 33.9254C10.929 36.4304 14.1697 37.3389 16.921 38.1458C19.5357 38.9126 22.2966 38.802 25 38.461Z" fill="#009DFF"/>
<path d="M15.8333 15.0032C15.8333 15.0032 17.7344 12.2754 17.5977 11.2239C17.4609 10.1693 17.0931 9.94139 16.0384 9.57355C14.9837 9.20571 14.3652 8.63279 14.3652 8.63279C14.3652 8.63279 13.6003 5.0423 13.6784 4.59959C13.7695 4.07225 15.6706 0.520813 20.1856 0.520813C24.5378 0.520813 26.3249 4.17316 26.097 6.9824C25.8919 9.52472 24.9512 10.2376 24.2871 12.3437C23.6231 14.4531 23.3008 15.7129 23.3008 15.7129L19.3815 16.5137L16.1035 15.804L15.8333 15.0032Z" fill="url(#paint0_linear_58_166)"/>
<path d="M21.5006 30.5826C21.5006 30.5826 21.7448 33.0696 21.4941 33.3724C21.2402 33.6751 17.4447 34.554 17.015 34.8763C16.5495 35.2246 16.748 36.0058 17.7376 36.9075C18.7272 37.8092 19.5573 37.9655 20.1269 37.7311C20.7975 37.4576 21.9596 36.569 22.4805 36.1718C22.8971 35.8528 23.5221 35.1757 23.6068 34.6321C23.6947 34.0885 23.4245 30.8951 23.4245 30.8951L21.5006 30.5826Z" fill="#FF5D10"/>
<path d="M26.4486 31.4551C26.4486 31.4551 26.8066 34.3587 26.6308 34.7103C26.1719 35.6283 23.5482 37.6921 23.3756 38.3756C23.2389 38.9258 24.6126 40.026 25.9863 40.0553C27.8223 40.0977 28.9713 39.3717 29.1015 38.9714C29.2838 38.4049 28.597 35.0749 28.5058 34.8926C28.4147 34.7103 28.5514 29.9902 28.5514 29.9902L26.4486 31.4551Z" fill="#FF5D10"/>
<path d="M36.2825 16.9043C36.2825 16.9043 37.845 16.5983 37.8515 15.5371C37.8548 14.4759 37.2851 14.9381 37.2786 14.1666C37.2721 13.3952 38.6588 13.2129 39.5703 13.8607C40.2897 14.3717 41.9336 16.0351 41.8424 19.4889C41.7187 24.1797 39.2643 27.6107 35.4004 29.733C32.2493 31.4616 27.6009 31.2565 27.6009 31.2565L36.2825 16.9043Z" fill="#5E6367"/>
<path d="M32.054 17.2949C32.819 17.2037 36.1751 16.1425 37.3698 16.4485C38.8118 16.8164 40.2506 17.832 39.9577 21.0547C39.5801 25.2376 36.6081 27.7864 35.3288 28.4863C33.0404 29.7363 30.8398 29.7656 30.8398 29.7656C30.8398 29.7656 31.2923 17.386 32.054 17.2949Z" fill="#B0B0B1"/>
<path d="M6.48438 7.32743C6.48438 7.71805 8.91276 8.86388 11.2044 9.13732C13.4961 9.41076 14.9154 9.04618 14.9154 9.04618C14.9154 9.04618 14.5247 8.05985 14.5247 7.32743C14.5247 6.595 14.9023 4.75581 14.3197 4.32612C13.7923 3.9355 13.3561 4.73954 13.0371 4.9674C12.7148 5.19526 11.8001 5.83654 10.3776 5.88537C8.95508 5.9342 7.7181 5.70308 7.2168 5.97651C6.71549 6.24995 6.48438 6.91401 6.48438 7.32743Z" fill="#FFBF18"/>
<path d="M20.5078 5.92771C20.3711 6.49737 19.9838 6.94333 19.2253 6.82289C18.5157 6.70896 18.1706 5.97653 18.3789 5.26364C18.5417 4.70049 18.9616 4.31963 19.6713 4.44008C20.4851 4.57679 20.638 5.37758 20.5078 5.92771Z" fill="#2D2B33"/>
<path d="M20.7422 7.49021C21.5462 7.23631 22.1419 7.23305 22.0573 6.68618C21.9596 6.05792 20.9147 6.23696 20.2506 6.58852C19.5443 6.96287 18.6263 7.60089 19.0332 8.11847C19.4661 8.6686 20.2799 7.6367 20.7422 7.49021Z" fill="#73DF86"/>
<path d="M14.9609 15.9635C14.9609 15.9635 15.6641 19.0332 19.1764 18.5156C21.6862 18.1445 23.5449 16.8978 23.5449 16.8978L23.5742 14.8503C23.5742 14.8503 21.9076 15.8268 19.9089 15.7975C17.832 15.7682 16.0286 14.6973 16.0286 14.6973L14.9609 15.9635Z" fill="white"/>
<path d="M12.64 21.6634C12.3959 28.3203 17.4154 31.4844 25.3809 31.6211C34.209 31.7741 37.6237 26.595 38.1511 23.3431C38.7012 19.9414 36.5007 19.2187 36.5007 19.2187C36.5007 19.2187 38.7012 18.3008 37.7149 16.1263C37.2559 16.0351 34.9968 16.6373 30.7031 16.1946C26.4388 15.7552 23.5156 16.5006 23.5156 16.5006C23.5156 16.5006 22.4479 17.6627 19.3913 17.5097C15.7292 17.3275 15.0228 15.8919 15.0228 15.8919C15.0228 15.8919 12.793 17.5228 12.64 21.6634Z" fill="#84574E"/>
<path d="M21.1035 22.9752C21.8457 25.5469 24.4955 27.0996 28.4343 26.9173C32.0085 26.7513 34.6061 24.2578 35.0326 22.0605C35.4981 19.6712 34.528 18.7598 34.528 18.7598C34.528 18.7598 36.5918 18.0111 36.5918 16.5592C35.4297 15.8561 31.735 15.3678 27.64 15.2148C24.9837 15.1172 23.4864 16.1002 23.4864 16.1002C23.4864 16.1002 19.7266 18.2096 21.1035 22.9752Z" fill="#B79277"/>
</g>
<defs>
<linearGradient id="paint0_linear_58_166" x1="19.6253" y1="2.91144" x2="20.7747" y2="13.8483" gradientUnits="userSpaceOnUse">
<stop offset="0.171" stop-color="#01AB46"/>
<stop offset="0.345" stop-color="#089E42"/>
<stop offset="0.671" stop-color="#1A7A37"/>
<stop offset="1" stop-color="#2F502A"/>
</linearGradient>
<clipPath id="clip0_58_166">
<rect width="49" height="41" fill="white"/>
</clipPath>
</defs>
</svg>
