<svg width="248" height="160" viewBox="0 0 248 160" fill="none" xmlns="http://www.w3.org/2000/svg">
<path d="M-73.7762 74.3623C-73.7762 74.3623 -95.3668 65.726 -104.003 76.0898C-112.639 86.4536 -102.276 101.999 -77.2313 96.816C-77.2313 96.816 -74.6407 125.315 -40.9588 128.77C-7.27829 132.225 1.35798 113.225 1.35798 113.225C1.35798 113.225 5.1507 150.937 50.5849 158.997C93.4037 166.593 111.039 127.907 111.039 127.907C111.039 127.907 129.456 145.836 159.683 138.063C189.91 130.29 193.946 112.362 193.946 112.362C193.946 112.362 237.279 124.832 246.627 93.3623C256.688 59.4941 206.9 51.0456 206.9 51.0456C206.9 51.0456 208.405 19.1116 175.81 9.59189C151.942 2.6206 136.947 26.8644 136.947 26.8644C136.947 26.8644 118.423 9.45506 92.9657 20.4287C70.9733 29.9076 70.4494 47.5905 70.4494 47.5905C70.4494 47.5905 66.7949 6.72186 23.6137 0.6762C-19.5675 -5.36946 -30.5935 31.1825 -30.5935 31.1825C-30.5935 31.1825 -72.0487 26.8629 -73.7762 74.3623Z" fill="#DEF5FF"/>
<path d="M245.09 97.2529C225.242 114.329 196.115 104.704 196.115 104.704C207.527 98.9979 209.721 80.5625 209.721 80.5625C209.721 80.5625 203.137 94.1689 186.019 98.1203C168.901 102.07 157.927 87.1467 157.927 87.1467C162.317 101.193 175.923 106.022 175.923 106.022C175.923 106.022 160.999 123.14 139.492 125.335C117.984 127.529 107.45 117.433 107.45 117.433C118.862 113.044 124.13 102.948 124.13 102.948C135.543 101.631 139.931 92.8518 139.931 92.8518C117.107 102.069 102.623 91.5346 102.623 91.5346C106.134 97.6793 116.668 101.631 116.668 101.631C116.668 101.631 114.913 107.775 99.1107 111.727C83.3096 115.677 68.8242 106.898 68.8242 106.898C77.1635 117.871 93.4042 120.944 93.4042 120.944C93.4042 120.944 72.7741 141.574 43.8047 135.867C14.8353 130.161 9.56823 103.825 9.56823 103.825C20.5418 101.631 29.7602 90.657 29.7602 90.657C-7.55 105.142 -27.301 81.8782 -27.301 81.8782C-24.2287 95.9241 -15.8894 100.753 -15.8894 100.753C-15.8894 100.753 -27.7405 114.799 -49.2482 109.97C-70.7559 105.143 -72.073 84.9505 -72.073 84.9505C-72.073 84.9505 -82.169 94.1675 -95.7754 89.778C-101.546 87.9166 -104.695 84.1602 -106.427 80.4519C-109.586 90.2306 -98.9321 101.306 -77.228 96.8148C-77.228 96.8148 -74.6374 125.314 -40.9554 128.769C-7.27493 132.224 1.36132 113.224 1.36132 113.224C1.36132 113.224 5.15405 150.936 50.5882 158.996C93.4071 166.592 111.042 127.906 111.042 127.906C111.042 127.906 129.46 145.835 159.687 138.062C189.914 130.289 193.949 112.361 193.949 112.361C193.949 112.361 233.39 123.635 245.09 97.2529Z" fill="#BDE7FF"/>
<path d="M206.899 51.0444C206.899 51.0444 208.404 19.1104 175.809 9.59073C151.941 2.61944 136.946 26.8632 136.946 26.8632C136.946 26.8632 118.422 9.45395 92.9645 20.4275C70.9722 29.9079 70.4483 47.5894 70.4483 47.5894C70.4483 47.5894 66.7938 6.7207 23.6126 0.67504C-19.5687 -5.37062 -30.5947 31.1813 -30.5947 31.1813C-30.5947 31.1813 -60.1754 28.1032 -70.4009 55.7817C-65.799 51.1798 -55.5705 42.0924 -46.1498 41.6543C-33.5113 41.0663 -26.7525 46.3566 -26.7525 46.3566C-26.7525 46.3566 -19.6982 23.1375 12.3377 23.1375C44.3736 23.1375 51.4264 60.7577 51.4264 60.7577C51.4264 60.7577 62.889 50.177 76.702 53.4094C90.5151 56.6418 93.161 60.7577 93.161 60.7577C93.161 60.7577 92.279 41.6543 109.62 36.07C126.961 30.4857 136.072 42.2423 136.072 42.2423C136.072 42.2423 126.373 44.8882 121.964 55.7613C121.964 55.7613 141.362 41.9483 158.409 51.059C158.409 51.059 151.355 42.5363 144.302 42.2423C144.302 42.2423 151.944 23.1389 170.459 24.6074C188.976 26.0773 200.731 56.6433 200.731 56.6433C200.731 56.6433 215.808 55.6187 231.168 59.8786C219.819 53.2494 206.899 51.0444 206.899 51.0444Z" fill="white"/>
</svg>
