<svg width="415" height="207" viewBox="0 0 415 207" fill="none" xmlns="http://www.w3.org/2000/svg">
<path d="M96.1692 177.744C96.1692 177.744 45.3469 191.942 17.0173 163.61C-13.6087 132.984 1.07072 80.4158 29.7383 66.082C60.8327 50.5348 80.1509 61.8426 80.1509 61.8426C80.1509 61.8426 83.0873 17.1721 126.324 4.36154C177.208 -10.7146 195.113 22.264 195.113 22.264C195.113 22.264 220.555 -8.83044 262.96 2.47478C305.362 13.7826 306.307 62.7821 306.307 62.7821C306.307 62.7821 343.998 55.2427 365.672 74.0899C387.345 92.9345 380.748 122.147 380.748 122.147C380.748 122.147 402.421 115.553 411.842 135.339C421.263 155.126 404.303 174.915 377.919 171.147C377.919 171.147 365.669 206.954 309.13 206.012C252.591 205.07 249.765 157.013 249.765 157.013C249.765 157.013 234.689 181.513 209.247 180.57C183.805 179.628 174.382 155.129 174.382 155.129C174.382 155.129 180.917 184.48 150.353 195.176C112.659 208.37 96.1692 177.744 96.1692 177.744Z" fill="#DEF5FF"/>
<path d="M411.596 157.407C392.619 167.14 366.609 158.9 366.609 158.9C380.743 154.189 377.916 141.468 377.916 141.468C377.916 141.468 375.561 149.95 361.427 151.834C347.293 153.718 339.754 142.41 339.754 142.41C345.88 158.429 353.417 158.9 353.417 158.9C353.417 158.9 346.822 188.584 304.417 185.284C262.012 181.986 260.599 143.352 260.599 143.352C291.694 140.526 296.878 111.784 296.878 111.784C296.878 111.784 287.454 125.918 261.07 127.332C234.686 128.745 222.907 109.9 222.907 109.9C224.32 128.747 244.581 138.639 244.581 138.639C244.581 138.639 237.515 158.429 209.244 160.313C180.976 162.197 170.61 136.755 170.61 136.755C170.61 136.755 164.958 171.15 134.332 174.447C103.708 177.744 98.5243 151.831 98.5243 151.831C118.314 149.005 123.966 132.513 123.966 132.513C123.966 132.513 112.187 142.408 91.927 140.052C71.6667 137.697 67.8983 117.908 67.8983 117.908C65.543 139.11 79.2061 146.176 79.2061 146.176C79.2061 146.176 61.7746 165.965 27.8513 152.3C10.3866 145.265 3.4488 126.635 0.983464 109.939C-2.06045 128.384 2.02797 148.618 17.0146 163.608C45.3467 191.94 96.1664 177.742 96.1664 177.742C96.1664 177.742 112.656 208.368 150.348 195.173C180.912 184.475 174.376 155.126 174.376 155.126C174.376 155.126 183.8 179.626 209.242 180.568C234.684 181.51 249.76 157.01 249.76 157.01C249.76 157.01 252.586 205.068 309.125 206.01C365.664 206.952 377.914 171.144 377.914 171.144C393.825 173.42 406.259 167.102 411.596 157.407Z" fill="#AEE1FF"/>
<path d="M365.665 74.0923C343.992 55.2452 306.3 62.7846 306.3 62.7846C306.3 62.7846 305.358 13.785 262.953 2.47724C220.551 -8.83054 195.106 22.2665 195.106 22.2665C195.106 22.2665 177.204 -10.7147 126.32 4.36401C83.0859 17.1745 80.1469 61.845 80.1469 61.845C80.1469 61.845 60.8287 50.5372 29.7342 66.0845C25.1364 68.3834 20.9507 71.7499 17.2002 75.7692C27.5915 72.0366 43.4562 67.5309 54.8433 69.753C73.1733 73.3294 86.588 88.9791 87.036 86.2961C87.484 83.6132 89.719 27.7245 130.851 21.4652C171.984 15.2059 181.374 42.4782 181.374 42.4782C181.374 42.4782 160.361 48.2895 163.044 73.7749C163.044 73.7749 173.328 47.396 196.578 50.9725C219.829 54.5489 220.722 73.7749 220.722 73.7749C220.722 73.7749 226.088 50.079 202.39 40.6887C202.39 40.6887 217.143 8.05049 254.702 18.3343C292.258 28.618 296.282 75.1164 296.282 75.1164C296.282 75.1164 318.191 63.4911 344.57 73.3269C367.718 81.9594 379.157 103.664 381.612 108.853C381.136 98.7227 377.925 84.7524 365.665 74.0923Z" fill="white"/>
</svg>
