<svg width="383" height="172" viewBox="0 0 383 172" fill="none" xmlns="http://www.w3.org/2000/svg">
<path d="M345.596 84.997C345.596 84.997 345.596 93.9372 332.185 99.525C318.774 105.113 302.01 99.525 302.01 99.525C302.01 99.525 302.01 117.405 284.13 122.993C266.249 128.581 259.543 117.405 259.543 117.405C259.543 117.405 259.543 127.464 239.427 135.286C219.312 143.109 196.961 133.05 196.961 133.05C196.961 133.05 191.122 172.219 147.787 171.047C96.9116 169.671 89.6741 131.932 89.6741 131.932C89.6741 131.932 81.8509 137.52 56.1473 129.697C30.4437 121.874 25.973 92.8175 25.973 92.8175C25.973 92.8175 -3.08305 95.0529 0.269366 76.0542C3.62178 57.0554 25.973 62.6432 25.973 62.6432C25.973 62.6432 34.9131 29.1164 72.9107 19.0579C110.908 8.99931 141.081 43.6444 141.081 43.6444C141.081 43.6444 142.198 24.6457 167.903 15.7055C193.608 6.76526 212.606 22.4103 212.606 22.4103C212.606 22.4103 219.929 -1.33552 246.132 0.0591121C268.895 1.27132 276.307 27.9981 276.307 27.9981C276.307 27.9981 284.13 22.4103 303.129 27.9981C322.127 33.5859 325.48 61.5248 325.48 61.5248C325.48 61.5248 334.624 48.5924 353.419 62.6419C353.419 62.6419 381.128 49.8231 382.052 72.9212C382.899 94.113 345.596 84.997 345.596 84.997Z" fill="#DEF5FF"/>
<path d="M3.3948 68.416C10.5306 58.7964 25.9747 62.6471 25.9747 62.6471C25.9747 62.6471 34.9149 29.1204 72.9124 19.0618C110.91 9.00327 141.083 43.6484 141.083 43.6484C141.083 43.6484 142.2 24.6496 167.905 15.7094C193.61 6.76919 212.607 22.4142 212.607 22.4142C212.607 22.4142 219.931 -1.33159 246.134 0.0630488C268.896 1.27526 276.308 28.002 276.308 28.002C276.308 28.002 284.132 22.4142 303.13 28.002C322.129 33.5898 325.481 61.5288 325.481 61.5288C325.481 61.5288 334.625 48.5964 353.42 62.6458C353.42 62.6458 374.528 52.8847 380.511 65.7629C376.723 64.17 370.298 62.4555 363.667 65.1681C353.284 69.4154 353.284 69.4154 353.284 69.4154C353.284 69.4154 345.733 59.033 335.823 61.8646C325.912 64.6961 321.194 68.9435 321.194 68.9435C321.194 68.9435 314.29 50.0069 299.959 43.9326C280.486 35.6771 267.397 45.3484 267.397 45.3484C267.397 45.3484 265.391 29.8501 246.987 24.6589C228.583 19.4676 217.847 34.0234 217.847 34.0234C217.847 34.0234 207.302 27.1176 187.483 29.9492C167.663 32.7808 158.387 57.1479 158.387 57.1479C158.387 57.1479 148.477 48.1813 136.208 50.5409C123.938 52.9005 118.274 57.1479 118.274 57.1479C118.274 57.1479 109.922 36.0605 87.4272 35.6798C59.5847 35.2079 53.6228 56.676 53.6228 56.676C53.6228 56.676 45.6 53.3725 38.0492 58.5637C30.4983 63.7549 26.7229 72.7216 26.7229 72.7216C26.7229 72.7216 15.9386 65.3492 3.3948 68.416Z" fill="white"/>
<path d="M0.236449 76.3119C1.84656 78.846 4.23794 81.5851 7.84416 84.0439C18.2266 91.1228 30.0235 86.8754 30.0235 86.8754C30.0235 86.8754 35.2147 108.583 43.7094 109.999C52.2041 111.414 65.4168 107.639 65.4168 107.639C65.4168 107.639 75.3273 122.267 87.1242 123.683C92.9724 124.385 97.7723 122.883 101.131 121.19C94.4384 117.194 91.6029 107.587 91.6029 107.587C91.6029 107.587 83.7268 112.738 74.3359 108.497C64.9449 104.256 67.9747 92.4421 67.9747 92.4421C67.9747 92.4421 71.3073 105.166 80.3943 104.559C89.4825 103.953 94.026 97.5923 94.026 97.5923C94.026 97.5923 98.8735 110.315 108.87 109.104C118.866 107.891 123.107 96.0774 123.107 96.0774C123.107 96.0774 139.162 108.194 151.583 96.3801C151.583 96.3801 150.673 106.982 138.859 106.982C127.045 106.982 125.228 104.559 125.228 104.559C125.228 104.559 124.318 118.796 110.688 122.431C110.204 122.561 109.734 122.655 109.27 122.73C114.249 130.758 125.969 144.917 145.169 141.145C171.595 135.953 168.292 111.414 168.292 111.414C168.292 111.414 180.09 123.213 192.831 124.628C201.316 125.571 207.273 120.663 210.317 117.272C193.887 116.354 191.87 104.844 191.87 104.844C191.87 104.844 190.96 109.085 180.661 109.995C170.362 110.904 165.212 102.119 165.212 102.119C165.212 102.119 178.541 110.903 192.475 99.6955C192.475 99.6955 199.139 109.692 212.165 109.692C225.192 109.692 233.976 101.513 233.976 101.513C233.976 101.513 231.257 114.846 216.615 117.027C222.26 120.645 232.877 126.176 241.437 123.213C253.707 118.965 258.426 106.225 258.426 106.225C258.426 106.225 265.505 109.528 281.078 105.281C291.554 102.424 295.906 92.0852 297.583 86.0836C287.275 87.97 280.93 80.0054 280.93 80.0054C272.751 86.3665 264.268 77.2795 264.268 77.2795C264.268 77.2795 266.691 80.0054 272.144 79.0972C277.597 78.1877 280.928 73.6442 280.928 73.6442C280.928 73.6442 284.564 81.2176 296.983 80.9149C309.403 80.6121 313.038 71.5239 313.038 71.5239C313.038 71.5239 310.756 80.7893 301.902 84.7418C306.555 88.6138 315.411 94.7515 324.491 94.4276C337.705 93.9557 344.311 77.4395 344.311 77.4395C344.311 77.4395 347.614 82.6307 362.715 83.5746C369.754 84.0148 376.483 80.661 381.665 76.9544C377.802 92.8611 345.589 84.9996 345.589 84.9996C345.589 84.9996 345.589 93.9398 332.178 99.5276C318.767 105.115 302.004 99.5276 302.004 99.5276C302.004 99.5276 302.004 117.408 284.123 122.996C266.243 128.584 259.537 117.408 259.537 117.408C259.537 117.408 259.537 127.467 239.421 135.288C219.305 143.112 196.954 133.053 196.954 133.053C196.954 133.053 191.115 172.222 147.781 171.051C96.9051 169.674 89.6676 131.936 89.6676 131.936C89.6676 131.936 81.8444 137.524 56.1408 129.701C30.4372 121.877 25.9665 92.8215 25.9665 92.8215C25.9665 92.8215 -2.80267 95.0265 0.236449 76.3119Z" fill="#BDE7FF"/>
</svg>
