<svg width="49" height="38" viewBox="0 0 49 38" fill="none" xmlns="http://www.w3.org/2000/svg">
<path d="M24.4307 37.0702C26.9588 36.7514 29.3047 35.8202 31.6506 34.8253C34.0252 33.8183 36.0955 32.3777 38.369 31.1593C41.526 29.4675 46.0011 29.3086 47.7636 26.1905C49.4185 23.2628 47.1422 19.6038 46.7916 16.259C46.441 12.9134 47.3174 9.27943 45.6829 6.33929C44.0472 3.39695 41.1149 0.929494 37.8388 0.154604C34.5248 -0.629253 31.3202 1.80565 27.9313 2.14048C25.5589 2.37486 23.198 1.34422 20.8645 1.83166C18.5281 2.31971 16.3883 3.48113 14.5033 4.94538C12.6455 6.38857 11.8633 8.84491 9.9953 10.2749C6.90907 12.6376 0.287496 12.1656 0.00802119 16.0423C-0.277438 20.002 7.13911 20.1233 9.03382 23.612C10.469 26.2546 7.50211 29.9073 8.96499 32.5347C10.3597 35.0396 13.6005 35.9482 16.3517 36.755C18.9664 37.5218 21.7273 37.4112 24.4307 37.0702Z" fill="#009DFF"/>
</svg>
