<svg width="30" height="28" viewBox="0 0 30 28" fill="none" xmlns="http://www.w3.org/2000/svg">
<path d="M7.85313 12.6309C7.85313 12.6309 9.45001 10.2517 9.33516 9.33474C9.22032 8.41489 8.91133 8.21616 8.0254 7.89535C7.13946 7.57454 6.61993 7.07487 6.61993 7.07487C6.61993 7.07487 5.97735 3.94342 6.04297 3.55731C6.11954 3.09738 7.71641 0 11.509 0C15.1648 0 16.666 3.18539 16.4746 5.63548C16.3024 7.85276 15.5121 8.47451 14.9543 10.3114C14.3965 12.1511 14.1258 13.2498 14.1258 13.2498L10.8336 13.9482L8.08008 13.3293L7.85313 12.6309Z" fill="url(#paint0_linear_17_2)"/>
<path d="M25.0305 14.2888C25.0305 14.2888 26.343 14.022 26.3485 13.0964C26.3512 12.1709 25.8727 12.574 25.8672 11.9012C25.8617 11.2283 27.0266 11.0694 27.7922 11.6343C28.3965 12.0801 29.7774 13.5308 29.7008 16.543C29.5969 20.6341 27.5352 23.6264 24.2895 25.4774C21.6426 26.985 17.7379 26.8061 17.7379 26.8061L25.0305 14.2888Z" fill="#5E6367"/>
<path d="M21.4785 14.6295C22.1211 14.55 24.9403 13.6245 25.9438 13.8914C27.1551 14.2122 28.3637 15.098 28.1176 17.9086C27.8004 21.5567 25.3039 23.7797 24.2293 24.3901C22.3071 25.4803 20.4586 25.5058 20.4586 25.5058C20.4586 25.5058 20.8387 14.709 21.4785 14.6295Z" fill="#B0B0B1"/>
<path d="M0 5.9364C0 6.27708 2.03984 7.27642 3.96484 7.5149C5.88984 7.75338 7.08203 7.43541 7.08203 7.43541C7.08203 7.43541 6.75391 6.57518 6.75391 5.9364C6.75391 5.29762 7.07109 3.69356 6.58164 3.31881C6.13867 2.97813 5.77227 3.67937 5.5043 3.8781C5.23359 4.07683 4.46523 4.63612 3.27031 4.67871C2.07539 4.72129 1.03633 4.51972 0.615234 4.7582C0.194141 4.99668 0 5.57584 0 5.9364Z" fill="#FFBF18"/>
<path d="M11.7797 4.71562C11.6649 5.21245 11.3395 5.6014 10.7024 5.49635C10.1063 5.39699 9.81644 4.75821 9.99144 4.13646C10.1282 3.64531 10.4809 3.31314 11.077 3.41818C11.7606 3.53742 11.8891 4.23582 11.7797 4.71562Z" fill="#2D2B33"/>
<path d="M11.9766 6.07838C12.652 5.85694 13.1523 5.8541 13.0813 5.37714C12.9992 4.82921 12.1215 4.98535 11.5637 5.29197C10.9703 5.61846 10.1992 6.17491 10.541 6.62631C10.9047 7.10611 11.5883 6.20614 11.9766 6.07838Z" fill="#73DF86"/>
<path d="M7.1203 13.4684C7.1203 13.4684 7.71093 16.1456 10.6613 15.6942C12.7695 15.3705 14.3308 14.2832 14.3308 14.2832L14.3555 12.4974C14.3555 12.4974 12.9555 13.3492 11.2766 13.3236C9.53202 13.2981 8.01717 12.364 8.01717 12.364L7.1203 13.4684Z" fill="white"/>
<path d="M5.17073 18.4395C4.96565 24.2454 9.18206 27.0049 15.8731 27.1241C23.2887 27.2576 26.1571 22.7407 26.6 19.9045C27.0621 16.9377 25.2137 16.3074 25.2137 16.3074C25.2137 16.3074 27.0621 15.5068 26.2336 13.6104C25.8481 13.5309 23.9504 14.0561 20.3438 13.67C16.7617 13.2867 14.3063 13.9368 14.3063 13.9368C14.3063 13.9368 13.4094 14.9504 10.8418 14.8169C7.76565 14.658 7.17229 13.4059 7.17229 13.4059C7.17229 13.4059 5.29925 14.8283 5.17073 18.4395Z" fill="#84574E"/>
<path d="M14.6117 22.5153C16.2941 24.0989 18.9795 24.0135 21.887 22.013C24.525 20.1972 25.4092 17.0924 24.7759 15.2376C24.0887 13.2198 22.9562 12.9929 22.9562 12.9929C22.9562 12.9929 24.1952 11.4533 23.5631 10.3611C22.3758 10.3818 19.3615 11.7623 16.1895 13.5845C14.1328 14.7677 13.4253 16.2156 13.4253 16.2156C13.4253 16.2156 11.4926 19.5813 14.6117 22.5153Z" fill="#B79277"/>
<path d="M13.9882 22.231C15.4661 23.9901 18.0346 24.2408 20.9685 22.6449C23.6306 21.1963 24.723 18.2679 24.2676 16.3739C23.7738 14.3137 22.7117 13.9508 22.7117 13.9508C22.7117 13.9508 24.0171 12.5984 23.5017 11.4508C22.3674 11.3233 19.3813 12.2992 16.2094 13.6876C14.1526 14.5895 13.3616 15.9185 13.3616 15.9185C13.3616 15.9185 11.2481 18.9716 13.9882 22.231Z" fill="#84574E"/>
<defs>
<linearGradient id="paint0_linear_17_2" x1="11.0384" y1="2.08499" x2="12.0783" y2="11.6154" gradientUnits="userSpaceOnUse">
<stop offset="0.171" stop-color="#01AB46"/>
<stop offset="0.345" stop-color="#089E42"/>
<stop offset="0.671" stop-color="#1A7A37"/>
<stop offset="1" stop-color="#2F502A"/>
</linearGradient>
</defs>
</svg>
