<svg width="49" height="27" viewBox="0 0 49 27" fill="none" xmlns="http://www.w3.org/2000/svg">
<path d="M5.54086 9.184C5.54086 9.184 0.954707 9.3229 0.120897 13.0752C-0.712913 16.8276 3.03943 17.8003 3.03943 17.8003C3.03943 17.8003 2.27925 23.4917 7.62558 25.1661C13.7293 27.0777 16.7979 21.2748 16.7979 21.2748C16.7979 21.2748 17.215 24.1934 20.9669 25.0272C24.7193 25.861 26.248 22.1087 26.248 22.1087C26.248 22.1087 27.4989 27.1119 33.1967 26.9726C38.8945 26.8333 39.4505 22.1087 39.4505 22.1087C39.4505 22.1087 46.1213 23.4985 47.9279 18.3563C49.7344 13.2141 43.4806 10.8516 43.4806 10.8516C43.4806 10.8516 44.0207 2.43829 35.4203 0.289489C28.1234 -1.53335 24.3026 5.84836 24.3026 5.84836C24.3026 5.84836 23.3342 3.45399 21.2451 3.48583C18.657 3.52483 18.0488 6.40437 18.0488 6.40437C18.0488 6.40437 16.8166 0.180438 11.239 0.706594C3.87324 1.4015 5.54086 9.184 5.54086 9.184Z" fill="#DEF5FF"/>
<path d="M5.6778 15.7122C5.68284 15.7046 5.68535 15.7004 5.68535 15.7004C5.68535 15.7004 5.67948 15.7097 5.6778 15.7122Z" fill="white"/>
<path d="M11.2617 15.4267C11.2637 15.3714 11.2621 15.3216 11.2649 15.2655C11.2649 15.2655 11.257 15.3256 11.2617 15.4267Z" fill="white"/>
<path d="M47.8451 18.5665C47.1104 19.3621 45.9013 20.2902 43.9487 20.9179C39.8903 22.2221 38.5136 19.1062 38.5136 19.1062C38.5136 19.1062 37.0641 23.7441 33.5131 23.0918C29.9622 22.4394 30.107 18.7436 30.107 18.7436C34.1654 18.309 35.1075 14.6128 35.1075 14.6128C35.1075 14.6128 33.8753 16.2796 30.107 17.2941C26.3388 18.3086 24.5271 17.0044 24.5271 17.0044C25.4691 18.1637 27.7883 18.5987 27.7883 18.5987C27.7883 18.5987 26.7738 21.4249 23.2953 22.4394C19.8168 23.4539 18.8023 20.0479 18.8023 20.0479C21.7009 18.9609 22.0635 15.917 22.0635 15.917C22.0635 15.917 18.2228 19.3231 14.599 18.2362C11.6092 17.3395 11.2844 15.9027 11.2621 15.4263C11.1073 19.421 13.0774 20.5553 13.0774 20.5553C13.0774 20.5553 9.74377 23.5992 6.48296 21.4974C3.27667 19.431 5.5994 15.8318 5.6786 15.7113C5.60974 15.8127 4.99046 16.5478 2.27968 15.1927C0.83653 14.4711 0.543603 13.0486 0.612457 11.8025C0.399129 12.1726 0.228386 12.5933 0.121324 13.0753C-0.712486 16.8276 3.03986 17.8004 3.03986 17.8004C3.03986 17.8004 2.27968 23.4917 7.62601 25.1661C13.7297 27.0777 16.7983 21.2749 16.7983 21.2749C16.7983 21.2749 17.2154 24.1934 20.9678 25.0272C24.7201 25.861 26.2488 22.1087 26.2488 22.1087C26.2488 22.1087 27.4997 27.112 33.1975 26.9727C38.8953 26.8334 39.4513 22.1087 39.4513 22.1087C39.4513 22.1087 45.9303 23.4547 47.8451 18.5665Z" fill="#DEF5FF"/>
<path d="M43.4002 9.23781C43.0826 6.68544 41.649 1.84576 35.4203 0.289977C28.1234 -1.53286 24.3026 5.84885 24.3026 5.84885C24.3026 5.84885 23.3343 3.45448 21.2452 3.48632C18.657 3.52532 18.0488 6.40485 18.0488 6.40485C18.0488 6.40485 16.8166 0.180926 11.239 0.707082C7.43059 1.06648 6.03998 3.31996 5.58228 5.41344C6.93906 4.09884 9.02856 2.65887 11.048 2.87379C14.4541 3.23597 15.7583 7.7294 15.7583 7.7294C15.7583 7.7294 13.2219 7.80184 12.9321 11.6425C12.9321 11.6425 14.3817 9.03364 16.628 9.03364C18.8747 9.03364 20.6139 10.9178 20.6139 10.628C20.6139 10.3383 19.7443 8.16401 18.7298 7.65696C18.7298 7.65696 20.1069 5.70039 21.9186 6.42515C23.7303 7.14991 24.8172 10.1934 24.8172 10.1934C24.8172 10.1934 27.0639 8.09197 29.7453 8.38171C32.4266 8.67146 33.6584 9.9761 33.6584 9.9761C33.6584 9.9761 31.4845 5.55552 27.0639 6.06297C27.0639 6.06297 28.6583 1.93212 34.2383 2.65688C39.8182 3.38164 39.7458 10.0485 39.7458 10.0485C39.7458 10.0485 41.2602 8.64758 43.4002 9.23781Z" fill="white"/>
</svg>
