<svg width="21" height="14" viewBox="0 0 21 14" fill="none" xmlns="http://www.w3.org/2000/svg">
<g filter="url(#filter0_d_87_102)">
<path d="M3.90303 6.76857C3.90303 6.76857 3.29078 6.47703 3.05753 6.94352C2.82429 7.41001 3.34907 7.73073 3.75726 7.64326C3.75726 7.64326 3.93222 8.40128 4.86511 8.48876C5.79809 8.57623 6.20621 8.02227 6.20621 8.02227C6.20621 8.02227 6.36373 8.59291 7.69307 8.69281C8.84028 8.77904 9.6756 8.05145 9.6756 8.05145C9.6756 8.05145 10.1533 8.68623 11.4944 8.68623C12.8355 8.68623 13.5241 7.78911 13.5241 7.78911C13.5241 7.78911 14.5446 8.51794 16.323 7.87658C18.1013 7.23522 18.3638 4.34889 16.8769 3.21186C15.3901 2.07482 14.4863 2.80366 14.4863 2.80366C14.4863 2.80366 13.5335 0.543765 11.2209 1.08355C8.81351 1.64544 9.15091 3.9407 9.15091 3.9407C9.15091 3.9407 8.32284 3.47562 7.60576 4.02817C7.06664 4.44363 7.11008 4.99026 7.11008 4.99026C7.11008 4.99026 6.23548 4.55295 5.53574 4.87367C4.83601 5.1944 4.8652 5.95242 4.8652 5.95242C4.8652 5.95242 4.49377 5.62953 4.09833 5.98102C3.7385 6.30074 3.90303 6.76857 3.90303 6.76857Z" fill="#DEF5FF"/>
<path d="M15.2519 7.4051C13.7158 7.26551 13.5529 6.31126 13.5529 6.31126C13.5529 6.31126 12.9478 7.96365 11.6445 7.98692C10.3412 8.01019 9.92231 7.31195 9.92231 7.31195C10.7369 7.10248 10.8998 6.26465 10.8998 6.26465C10.8998 6.26465 10.6438 6.68352 9.64303 6.84647C8.64226 7.00941 8.17677 6.52066 8.17677 6.52066C8.40951 7.05595 8.92153 7.26542 8.92153 7.26542C8.92153 7.26542 8.80512 7.70765 7.71128 7.91704C6.61744 8.12652 6.3847 7.49808 6.3847 7.49808C6.82692 7.42828 7.05966 6.9628 7.05966 6.9628C5.82615 7.47482 5.24433 6.86973 5.24433 6.86973C5.29086 7.2886 5.77961 7.49808 5.77961 7.49808C5.77961 7.49808 5.57013 8.0799 4.77884 8.0101C3.98754 7.94031 3.80133 7.17228 3.80133 7.17228C3.80133 7.17228 3.68491 7.31187 3.35911 7.26534C3.21926 7.24533 3.11394 7.12232 3.03897 6.98857C2.86085 7.43012 3.36244 7.72766 3.75721 7.6431C3.75721 7.6431 3.93217 8.40113 4.86506 8.4886C5.79804 8.57608 6.20616 8.02211 6.20616 8.02211C6.20616 8.02211 6.36368 8.59276 7.69302 8.69266C8.84023 8.77889 9.67555 8.0513 9.67555 8.0513C9.67555 8.0513 10.1532 8.68607 11.4944 8.68607C12.8355 8.68607 13.524 7.78895 13.524 7.78895C13.524 7.78895 14.5443 8.51779 16.3228 7.87643C17.0115 7.62809 17.4717 7.0426 17.6922 6.35296C17.1919 6.81828 16.2748 7.49808 15.2519 7.4051Z" fill="#AEE1FF"/>
<path d="M17.2654 3.59569C17.1525 3.45334 17.0235 3.32367 16.8769 3.21159C15.3901 2.07456 14.4863 2.80339 14.4863 2.80339C14.4863 2.80339 13.5335 0.543583 11.2209 1.08329C8.81352 1.64518 9.15092 3.94043 9.15092 3.94043C9.15092 3.94043 8.32285 3.47536 7.60568 4.02791C7.06656 4.44336 7.11009 4.98999 7.11009 4.98999C7.11009 4.98999 6.2354 4.55269 5.53575 4.87341C5.16891 5.04152 5.0033 5.32939 4.92792 5.56564C5.10863 5.39936 5.45395 5.17212 5.96588 5.21731C6.75718 5.28711 7.1994 5.70607 7.1994 5.70607C7.1994 5.70607 7.339 4.33295 8.17691 4.14674C9.01474 3.96053 9.5035 4.68203 9.5035 4.68203C9.5035 4.68203 9.06127 4.9613 9.03801 5.40353C9.03801 5.40353 10.1318 4.28642 11.3654 4.9613C11.3654 4.9613 10.6671 4.35622 9.99225 4.44928C9.99225 4.44928 10.3413 1.98233 12.0869 2.16846C13.8324 2.35467 14.1582 3.33209 14.1582 3.33209C14.1582 3.33209 15.3033 2.49251 17.2654 3.59569Z" fill="white"/>
</g>
<defs>
<filter id="filter0_d_87_102" x="0.4" y="0.4" width="20.0435" height="12.9" filterUnits="userSpaceOnUse" color-interpolation-filters="sRGB">
<feFlood flood-opacity="0" result="BackgroundImageFix"/>
<feColorMatrix in="SourceAlpha" type="matrix" values="0 0 0 0 0 0 0 0 0 0 0 0 0 0 0 0 0 0 127 0" result="hardAlpha"/>
<feOffset dy="2"/>
<feGaussianBlur stdDeviation="1.3"/>
<feComposite in2="hardAlpha" operator="out"/>
<feColorMatrix type="matrix" values="0 0 0 0 0 0 0 0 0 0 0 0 0 0 0 0 0 0 0.25 0"/>
<feBlend mode="normal" in2="BackgroundImageFix" result="effect1_dropShadow_87_102"/>
<feBlend mode="normal" in="SourceGraphic" in2="effect1_dropShadow_87_102" result="shape"/>
</filter>
</defs>
</svg>
