<svg width="55" height="32" viewBox="0 0 55 32" fill="none" xmlns="http://www.w3.org/2000/svg">
<path d="M48.9571 21.9594C48.9571 21.9594 52.0762 20.6225 53.747 22.8505C55.4178 25.0785 54.1928 28.1976 51.8534 28.8659C49.5139 29.5341 47.7317 28.643 47.7317 28.643C47.7317 28.643 45.7564 31.6789 41.2705 31.0939C36.1463 30.4256 35.5895 27.5294 35.5895 27.5294C35.5895 27.5294 33.5844 30.3142 28.3487 30.7599C23.113 31.2053 21.2193 27.6408 21.2193 27.6408C21.2193 27.6408 18.8798 31.0943 12.3077 31.0943C5.7355 31.0943 -2.06251 23.1852 0.499814 15.2761C3.06214 7.36709 10.8598 7.03277 10.8598 7.03277C10.8598 7.03277 13.1992 -1.09917 21.4422 0.126277C29.3823 1.30674 30.1309 8.36965 30.1309 8.36965C30.1309 8.36965 33.3615 5.36197 37.5946 7.92389C41.2172 10.1165 39.2654 14.385 39.2654 14.385C39.2654 14.385 39.3768 13.3825 41.8273 13.9397C44.2782 14.4965 43.9439 16.8359 43.9439 16.8359C43.9439 16.8359 45.9817 14.6592 48.2885 16.1677C51.1847 18.0606 48.9571 21.9594 48.9571 21.9594Z" fill="#DEF5FF"/>
<path d="M0.1695 20.2857C2.18736 23.6512 5.67423 27.2089 11.7509 27.8632C18.9917 28.6429 21.4422 23.9644 21.4422 23.9644C19.7714 23.853 19.3256 22.8504 19.3256 22.8504C14.4243 24.5212 13.6446 20.6224 13.6446 20.6224C13.6446 20.6224 14.2018 22.4046 16.5408 22.0707C18.8803 21.7364 20.2168 19.6202 20.2168 19.6202C20.2168 19.6202 20.3282 21.9597 23.5588 22.6279C26.7893 23.2962 29.4627 21.6254 29.4627 21.6254C26.7893 24.1873 24.4499 23.9648 24.4499 23.9648C24.4499 23.9648 25.5639 25.9699 29.9085 26.5267C34.253 27.0835 37.2607 24.1873 37.2607 24.1873C37.2607 24.1873 38.4862 26.4153 41.271 27.4179C44.0558 28.4204 46.0609 26.8611 46.0609 26.8611C44.1672 26.7496 43.9443 25.5242 43.9443 25.5242C47.5088 26.7496 49.8483 24.2987 49.8483 24.2987C49.7368 26.081 48.5114 26.6382 48.5114 26.6382C48.5114 26.6382 49.5139 28.1975 52.4102 26.9725C53.9994 26.3003 54.3469 25.0243 54.3373 24.0094C54.9769 26.04 53.8072 28.3078 51.853 28.8662C49.5135 29.5344 47.7313 28.6433 47.7313 28.6433C47.7313 28.6433 45.756 31.6792 41.2702 31.0942C36.1459 30.4259 35.5891 27.5293 35.5891 27.5293C35.5891 27.5293 33.584 30.3141 28.3483 30.7599C23.1126 31.2056 21.2189 27.6407 21.2189 27.6407C21.2189 27.6407 18.8795 31.0942 12.3073 31.0942C7.14525 31.0938 1.22898 26.2127 0.1695 20.2857Z" fill="#BDE7FF"/>
<path d="M10.8598 7.03228C10.8598 7.03228 13.1992 -1.09965 21.4422 0.125788C29.3823 1.30586 30.1309 8.36916 30.1309 8.36916C30.1309 8.36916 33.3615 5.36148 37.5946 7.9238C40.7918 9.85888 39.6475 13.409 39.3347 14.2166C39.4963 13.9579 40.0356 13.532 41.8277 13.9392C44.2786 14.496 43.9443 16.8354 43.9443 16.8354C43.9443 16.8354 45.9821 14.6588 48.2889 16.1672C50.7565 17.7807 49.5052 20.8477 49.0805 21.7209C49.1247 21.2484 49.2703 18.5544 46.9623 17.7369C44.4299 16.8402 42.7945 17.7369 42.7945 17.7369C42.7945 17.7369 42.2667 15.3628 40.2624 14.9935C38.2577 14.6241 37.5719 15.6267 37.5719 15.6267C37.5719 15.6267 37.6774 11.5643 34.9869 10.4567C32.2964 9.34864 29.764 10.9844 29.764 10.9844C29.764 10.9844 32.349 12.145 32.4019 14.3081C32.4019 14.3081 30.9249 11.3008 28.0231 11.6176C25.1217 11.9341 24.4355 12.8837 24.4355 12.8837C24.4355 12.8837 25.4377 10.9319 27.337 10.6151C27.337 10.6151 27.4424 7.50232 25.2268 5.91987C23.0111 4.33742 20.848 7.13337 20.848 7.13337C20.848 7.13337 22.2724 7.44978 23.3804 9.03263C23.3804 9.03263 20.7954 7.50272 18.5268 7.9246C16.2582 8.34648 15.678 8.82129 15.678 8.82129C15.678 8.82129 16.786 7.29138 18.4214 7.02751C18.4214 7.02751 15.2215 4.55832 10.8598 7.03228Z" fill="white"/>
</svg>
