<svg width="116" height="52" viewBox="0 0 116 52" fill="none" xmlns="http://www.w3.org/2000/svg">
<path d="M10.9803 25.5905C10.9803 25.5905 10.9803 28.2822 15.018 29.9645C19.0557 31.6469 24.1028 29.9645 24.1028 29.9645C24.1028 29.9645 24.1028 35.3479 29.4861 37.0302C34.8695 38.7125 36.8885 35.3479 36.8885 35.3479C36.8885 35.3479 36.8885 38.3762 42.9449 40.7312C49.0013 43.0866 55.7306 40.0582 55.7306 40.0582C55.7306 40.0582 57.4886 51.8509 70.5355 51.4979C85.8529 51.0836 88.0319 39.7215 88.0319 39.7215C88.0319 39.7215 90.3873 41.4038 98.126 39.0485C105.865 36.6931 107.211 27.9451 107.211 27.9451C107.211 27.9451 115.959 28.6181 114.949 22.898C113.94 17.178 107.211 18.8603 107.211 18.8603C107.211 18.8603 104.519 8.76623 93.079 5.73785C81.6389 2.70947 72.5545 13.1403 72.5545 13.1403C72.5545 13.1403 72.2182 7.4202 64.4791 4.72852C56.74 2.03685 51.0203 6.74718 51.0203 6.74718C51.0203 6.74718 48.8154 -0.402093 40.9262 0.0177972C34.0731 0.382763 31.8415 8.42952 31.8415 8.42952C31.8415 8.42952 29.4861 6.74718 23.7661 8.42952C18.046 10.1119 17.0367 18.5236 17.0367 18.5236C17.0367 18.5236 14.2837 14.63 8.62496 18.8599C8.62496 18.8599 0.282483 15.0005 0.0042814 21.9548C-0.250837 28.3351 10.9803 25.5905 10.9803 25.5905Z" fill="#DEF5FF"/>
<path d="M114.009 20.5984C111.86 17.7022 107.21 18.8615 107.21 18.8615C107.21 18.8615 104.519 8.76746 93.0785 5.73908C81.6384 2.7107 72.5541 13.1415 72.5541 13.1415C72.5541 13.1415 72.2178 7.42142 64.4787 4.72975C56.7395 2.03807 51.0199 6.7484 51.0199 6.7484C51.0199 6.7484 48.815 -0.400872 40.9258 0.0190179C34.0727 0.383984 31.8411 8.43075 31.8411 8.43075C31.8411 8.43075 29.4857 6.74841 23.7657 8.43075C18.0456 10.1131 17.0363 18.5248 17.0363 18.5248C17.0363 18.5248 14.2833 14.6312 8.62454 18.8611C8.62454 18.8611 2.26967 15.9223 0.468323 19.7996C1.60859 19.32 3.54327 18.8038 5.53964 19.6205C8.66553 20.8993 8.66553 20.8993 8.66553 20.8993C8.66553 20.8993 10.9389 17.7734 13.9227 18.6259C16.9065 19.4784 18.327 20.7572 18.327 20.7572C18.327 20.7572 20.4057 15.0559 24.7204 13.227C30.5834 10.7415 34.524 13.6533 34.524 13.6533C34.524 13.6533 35.1282 8.98715 40.6691 7.42421C46.2101 5.86126 49.4422 10.2436 49.4422 10.2436C49.4422 10.2436 52.6171 8.16449 58.5843 9.017C64.5515 9.86952 67.3443 17.2059 67.3443 17.2059C67.3443 17.2059 70.3281 14.5062 74.0219 15.2166C77.7161 15.9271 79.4212 17.2059 79.4212 17.2059C79.4212 17.2059 81.9357 10.857 88.7085 10.7423C97.0912 10.6002 98.8862 17.0638 98.8862 17.0638C98.8862 17.0638 101.302 16.0692 103.575 17.6321C105.848 19.1951 106.985 21.8947 106.985 21.8947C106.985 21.8947 110.232 19.675 114.009 20.5984Z" fill="white"/>
<path d="M114.959 22.9756C114.474 23.7386 113.754 24.5632 112.669 25.3035C109.543 27.4348 105.991 26.156 105.991 26.156C105.991 26.156 104.428 32.6916 101.87 33.1179C99.3128 33.5441 95.3348 32.4074 95.3348 32.4074C95.3348 32.4074 92.351 36.8117 88.7993 37.2379C87.0385 37.4493 85.5934 36.9972 84.5821 36.4873C86.5971 35.2842 87.4508 32.3919 87.4508 32.3919C87.4508 32.3919 89.8221 33.9425 92.6495 32.6657C95.4769 31.3889 94.5647 27.832 94.5647 27.832C94.5647 27.832 93.5613 31.6628 90.8255 31.4801C88.0892 31.2978 86.7213 29.3826 86.7213 29.3826C86.7213 29.3826 85.2618 33.213 82.2522 32.8484C79.2425 32.4834 77.9657 28.9265 77.9657 28.9265C77.9657 28.9265 73.132 32.5746 69.3924 29.0177C69.3924 29.0177 69.6662 32.2096 73.2231 32.2096C76.7801 32.2096 77.3273 31.4801 77.3273 31.4801C77.3273 31.4801 77.6011 35.7665 81.7049 36.861C81.8506 36.9 81.9919 36.9283 82.1316 36.951C80.6327 39.368 77.104 43.631 71.3235 42.4951C63.3671 40.9322 64.3617 33.5441 64.3617 33.5441C64.3617 33.5441 60.8095 37.0963 56.9736 37.5225C54.4188 37.8063 52.6254 36.3285 51.7088 35.3076C56.6556 35.0314 57.2629 31.566 57.2629 31.566C57.2629 31.566 57.5368 32.8428 60.6376 33.1166C63.7384 33.3905 65.289 30.7454 65.289 30.7454C65.289 30.7454 61.276 33.3901 57.0807 30.0158C57.0807 30.0158 55.0743 33.0255 51.1524 33.0255C47.2305 33.0255 44.5858 30.5631 44.5858 30.5631C44.5858 30.5631 45.4045 34.5773 49.8128 35.234C48.1133 36.3233 44.9166 37.9886 42.3395 37.0963C38.6453 35.8175 37.2244 31.9816 37.2244 31.9816C37.2244 31.9816 35.0931 32.9762 30.4047 31.6974C27.2506 30.8373 25.9403 27.7246 25.4353 25.9176C28.5389 26.4856 30.4493 24.0876 30.4493 24.0876C32.9117 26.0028 35.4657 23.267 35.4657 23.267C35.4657 23.267 34.7361 24.0876 33.0944 23.8142C31.4526 23.5404 30.4497 22.1725 30.4497 22.1725C30.4497 22.1725 29.3552 24.4526 25.616 24.3615C21.8768 24.2703 20.7823 21.5341 20.7823 21.5341C20.7823 21.5341 21.4692 24.3236 24.135 25.5137C22.734 26.6794 20.0678 28.5273 17.334 28.4298C13.3556 28.2877 11.3668 23.3151 11.3668 23.3151C11.3668 23.3151 10.3722 24.8781 5.82581 25.1622C3.70646 25.2948 1.68064 24.285 0.120483 23.169C1.28344 27.9582 10.9819 25.5913 10.9819 25.5913C10.9819 25.5913 10.9819 28.2829 15.0196 29.9653C19.0573 31.6476 24.1044 29.9653 24.1044 29.9653C24.1044 29.9653 24.1044 35.3486 29.4877 37.031C34.8711 38.7133 36.8901 35.3486 36.8901 35.3486C36.8901 35.3486 36.8901 38.377 42.9465 40.732C49.0028 43.0873 55.7322 40.059 55.7322 40.059C55.7322 40.059 57.4902 51.8517 70.537 51.4991C85.8545 51.0848 88.0335 39.7227 88.0335 39.7227C88.0335 39.7227 90.3889 41.405 98.1276 39.0496C105.866 36.6943 107.212 27.9462 107.212 27.9462C107.212 27.9462 115.874 28.6101 114.959 22.9756Z" fill="#BDE7FF"/>
</svg>
