<svg width="95" height="48" viewBox="0 0 95 48" fill="none" xmlns="http://www.w3.org/2000/svg">
<path d="M21.9525 40.5736C21.9525 40.5736 10.3513 43.8146 3.88454 37.3472C-3.10645 30.3563 0.244413 18.3565 6.78835 15.0845C13.8863 11.5356 18.296 14.1168 18.296 14.1168C18.296 14.1168 18.9663 3.91987 28.836 0.995609C40.4512 -2.44583 44.5384 5.08221 44.5384 5.08221C44.5384 5.08221 50.346 -2.01572 60.0258 0.564918C69.7049 3.14614 69.9206 14.3313 69.9206 14.3313C69.9206 14.3313 78.5245 12.6103 83.4719 16.9125C88.4193 21.2141 86.9133 27.8826 86.9133 27.8826C86.9133 27.8826 91.8607 26.3772 94.0112 30.8939C96.1618 35.4106 92.2902 39.9279 86.2676 39.0677C86.2676 39.0677 83.4713 47.2415 70.5651 47.0264C57.659 46.8113 57.0139 35.8413 57.0139 35.8413C57.0139 35.8413 53.5724 41.4338 47.7648 41.2188C41.9572 41.0037 39.8061 35.4112 39.8061 35.4112C39.8061 35.4112 41.298 42.1111 34.321 44.5527C25.7166 47.5646 21.9525 40.5736 21.9525 40.5736Z" fill="#DEF5FF"/>
<path d="M93.9552 35.9313C89.6231 38.1532 83.6858 36.272 83.6858 36.272C86.9122 35.1968 86.267 32.293 86.267 32.293C86.267 32.293 85.7294 34.229 82.503 34.6591C79.2766 35.0892 77.5556 32.508 77.5556 32.508C78.954 36.1645 80.6744 36.272 80.6744 36.272C80.6744 36.272 79.1691 43.048 69.4893 42.2947C59.8096 41.542 59.487 32.7231 59.487 32.7231C66.5849 32.0779 67.7683 25.517 67.7683 25.517C67.7683 25.517 65.6172 28.7434 59.5945 29.066C53.5719 29.3886 50.8831 25.0869 50.8831 25.0869C51.2057 29.3892 55.8305 31.6472 55.8305 31.6472C55.8305 31.6472 54.2176 36.1645 47.7642 36.5946C41.3115 37.0247 38.9453 31.2171 38.9453 31.2171C38.9453 31.2171 37.655 39.0683 30.664 39.821C23.6736 40.5737 22.4902 34.6585 22.4902 34.6585C27.0075 34.0134 28.2978 30.2488 28.2978 30.2488C28.2978 30.2488 25.6091 32.5074 20.9842 31.9698C16.3594 31.4322 15.4992 26.9149 15.4992 26.9149C14.9616 31.7547 18.0804 33.3676 18.0804 33.3676C18.0804 33.3676 14.1014 37.8849 6.35769 34.7655C2.37102 33.1596 0.787337 28.907 0.224574 25.0957C-0.470259 29.3062 0.463004 33.9251 3.88399 37.3467C10.3514 43.8141 21.952 40.5731 21.952 40.5731C21.952 40.5731 25.716 47.5641 34.3199 44.5522C41.2969 42.11 39.8049 35.4106 39.8049 35.4106C39.8049 35.4106 41.9561 41.0032 47.7637 41.2183C53.5713 41.4333 57.0127 35.8408 57.0127 35.8408C57.0127 35.8408 57.6579 46.8108 70.564 47.0259C83.4701 47.2409 86.2664 39.0671 86.2664 39.0671C89.8984 39.5867 92.7367 38.1444 93.9552 35.9313Z" fill="#AEE1FF"/>
<path d="M83.4701 16.913C78.5227 12.6108 69.9188 14.3318 69.9188 14.3318C69.9188 14.3318 69.7038 3.1467 60.024 0.565477C50.3449 -2.01575 44.5366 5.08277 44.5366 5.08277C44.5366 5.08277 40.45 -2.44586 28.8348 0.996168C18.9657 3.92043 18.2949 14.1174 18.2949 14.1174C18.2949 14.1174 13.8851 11.5361 6.78717 15.0851C5.73762 15.6099 4.78215 16.3783 3.92603 17.2958C6.29804 16.4438 9.91947 15.4153 12.5188 15.9225C16.703 16.7389 19.7652 20.3112 19.8674 19.6988C19.9697 19.0864 20.4799 6.32868 29.8692 4.89986C39.2585 3.47104 41.402 9.69648 41.402 9.69648C41.402 9.69648 36.6054 11.023 37.2178 16.8406C37.2178 16.8406 39.5653 10.8191 44.8727 11.6355C50.18 12.4519 50.384 16.8406 50.384 16.8406C50.384 16.8406 51.6089 11.4315 46.1992 9.288C46.1992 9.288 49.567 1.83768 58.1405 4.18515C66.7135 6.53263 67.6321 17.1468 67.6321 17.1468C67.6321 17.1468 72.6333 14.4931 78.6548 16.7383C83.9388 18.7089 86.5498 23.6633 87.1102 24.8478C87.0015 22.5354 86.2687 19.3464 83.4701 16.913Z" fill="white"/>
</svg>
