<svg width="57" height="31" viewBox="0 0 57 31" fill="none" xmlns="http://www.w3.org/2000/svg">
<path d="M4.1688 20.733C4.1688 20.733 -0.03965 19.9724 0.271984 23.2965C0.579638 26.578 4.88679 25.3474 4.88679 25.3474C4.88679 25.3474 6.36735 29.3031 11.4498 30.2694C17.743 31.4662 20.4741 27.6032 20.4741 27.6032C20.4741 27.6032 21.602 29.5514 24.6785 29.8591C27.7551 30.1667 29.7033 27.7055 29.7033 27.7055C29.7033 27.7055 31.2416 30.5767 36.2663 30.4744C41.2911 30.3717 43.0343 26.1672 43.0343 26.1672C43.0343 26.1672 44.7162 28.4597 47.8541 27.9105C51.8659 27.2084 51.8532 23.501 51.8532 23.501C51.8532 23.501 57.5959 23.501 56.8779 19.7069C56.1599 15.9128 51.6482 17.9637 51.6482 17.9637C51.6482 17.9637 52.0538 12.808 46.1108 10.888C42.5467 9.73661 40.1631 10.9907 40.1631 10.9907C40.1631 10.9907 38.3172 0.53087 27.6524 0.0182456C16.9876 -0.494378 14.9367 9.96506 14.9367 9.96506C14.9367 9.96506 11.8602 8.42679 9.29663 10.7853C6.73312 13.1439 7.55339 15.9128 7.55339 15.9128C7.55339 15.9128 2.73282 16.4258 4.1688 20.733Z" fill="#F5FCFF" fill-opacity="0.5"/>
<path d="M56.7179 21.3805C53.5976 23.2475 51.5523 20.9478 51.5523 20.9478C51.5523 20.9478 50.6759 24.2035 47.4828 25.0174C44.2896 25.8313 43.2878 22.4503 43.2878 22.4503C44.7278 20.3214 44.0393 18.0675 44.0393 18.0675C44.0393 18.0675 44.1017 19.9457 41.3472 21.6989C38.5922 23.452 36.213 22.2624 36.213 22.2624C38.8426 24.2035 40.5329 23.5774 40.5329 23.5774C40.5329 23.5774 39.9693 26.5202 35.9622 27.2713C31.9552 28.0227 30.5152 24.266 30.5152 24.266C30.5152 24.266 29.3881 27.1459 26.1324 27.4591C22.8768 27.7723 21.1861 24.9549 21.1861 24.9549C23.1896 24.767 24.1289 22.3253 24.1289 22.3253C18.6194 24.8924 15.5512 21.1357 15.5512 21.1357C16.4276 24.3288 18.4311 24.8924 18.4311 24.8924C18.4311 24.8924 17.304 28.0856 11.4813 27.7098C5.65853 27.3341 5.09496 22.7635 5.09496 22.7635C5.09496 22.7635 4.28105 24.2035 1.83932 24.0156C1.02541 23.9531 0.543032 23.5261 0.255676 22.9884C0.256472 23.0871 0.261646 23.1894 0.271596 23.2964C0.57925 26.5779 4.88641 25.3473 4.88641 25.3473C4.88641 25.3473 6.36697 29.303 11.4494 30.2694C17.7426 31.4662 20.4737 27.6032 20.4737 27.6032C20.4737 27.6032 21.6016 29.5514 24.6782 29.8591C27.7547 30.1667 29.7029 27.7055 29.7029 27.7055C29.7029 27.7055 31.2412 30.5766 36.2659 30.4744C41.2907 30.3717 43.0339 26.1672 43.0339 26.1672C43.0339 26.1672 44.7159 28.4597 47.8537 27.9104C51.8655 27.2084 51.8528 23.501 51.8528 23.501C51.8528 23.501 55.744 23.4994 56.7179 21.3805Z" fill="#BDE7FF" fill-opacity="0.5"/>
<path d="M51.2717 15.5824C50.7173 13.9669 49.3697 11.9415 46.1097 10.8884C42.5456 9.73697 40.162 10.9911 40.162 10.9911C40.162 10.9911 38.316 0.531236 27.6512 0.0186118C16.9864 -0.494012 14.9355 9.96543 14.9355 9.96543C14.9355 9.96543 11.859 8.42716 9.29547 10.7857C8.29967 11.7019 7.81769 12.6782 7.5968 13.5319C8.45768 12.5556 9.8268 11.3429 11.3559 11.3055C13.923 11.243 15.9265 12.683 15.9265 12.683C15.9265 12.683 17.8676 6.67238 23.3146 5.60812C28.7616 4.54387 30.8905 9.80305 30.8905 9.80305C30.8905 9.80305 27.5724 10.8048 26.5707 13.7476C26.5707 13.7476 30.0766 11.7441 33.4576 12.2452C36.8387 12.7459 38.0908 15.188 38.0908 15.188C38.0908 15.188 37.7151 12.0573 35.4612 11.1184C35.4612 11.1184 39.4058 11.4941 40.9711 14.8123C40.9711 14.8123 46.8257 12.8816 51.2717 15.5824Z" fill="white" fill-opacity="0.5"/>
</svg>
