<svg width="24" height="12" viewBox="0 0 24 12" fill="none" xmlns="http://www.w3.org/2000/svg">
<path d="M2.44014 5.32964C2.44014 5.32964 1.07239 4.69761 0.478436 5.33892C-0.115522 5.98023 0.502359 7.02122 2.14044 6.7708C2.14044 6.7708 2.21142 8.62365 4.37911 8.96143C6.54671 9.29921 7.16996 8.09909 7.16996 8.09909C7.16996 8.09909 7.28748 10.5521 10.2 11.2277C12.9449 11.8644 14.2171 9.42102 14.2171 9.42102C14.2171 9.42102 15.3481 10.6436 17.3303 10.2431C19.3125 9.84264 19.6344 8.69632 19.6344 8.69632C19.6344 8.69632 22.396 9.65013 23.1076 7.64556C23.8734 5.48821 20.6806 4.77272 20.6806 4.77272C20.6806 4.77272 20.8862 2.71151 18.8094 1.985C17.2887 1.45298 16.2362 2.97084 16.2362 2.97084C16.2362 2.97084 15.0966 1.78154 13.4122 2.40527C11.957 2.94403 11.8631 4.08643 11.8631 4.08643C11.8631 4.08643 11.7653 1.42961 8.99169 0.891995C6.21812 0.354376 5.38073 2.6821 5.38073 2.6821C5.38073 2.6821 2.713 2.26202 2.44014 5.32964Z" fill="#F5FCFF" fill-opacity="0.5"/>
<path d="M22.9949 7.89207C21.6527 8.92968 19.8007 8.20815 19.8007 8.20815C20.5584 7.8776 20.763 6.69218 20.763 6.69218C20.763 6.69218 20.2908 7.55026 19.1697 7.74789C18.0487 7.94542 17.3893 6.94257 17.3893 6.94257C17.6256 7.8663 18.4897 8.2249 18.4897 8.2249C18.4897 8.2249 17.466 9.28195 16.0669 9.35102C14.6678 9.4201 14.0204 8.73111 14.0204 8.73111C14.7737 8.48578 15.1488 7.85038 15.1488 7.85038C15.8918 7.80386 16.2055 7.2507 16.2055 7.2507C14.6973 7.76969 13.7959 7.03895 13.7959 7.03895C14.0023 7.44845 14.6705 7.73985 14.6705 7.73985C14.6705 7.73985 14.5361 8.13149 13.5001 8.33358C12.4643 8.53558 11.5568 7.91842 11.5568 7.91842C12.0592 8.65675 13.0996 8.91062 13.0996 8.91062C13.0996 8.91062 11.6948 10.1755 9.83967 9.70806C7.98454 9.24057 7.73304 7.51868 7.73304 7.51868C8.45054 7.41388 9.08423 6.73509 9.08423 6.73509C6.62093 7.54585 5.42182 5.97355 5.42182 5.97355C5.57298 6.89281 6.09621 7.23355 6.09621 7.23355C6.09621 7.23355 5.28174 8.10222 3.90645 7.71682C2.53116 7.33152 2.5144 6.02052 2.5144 6.02052C2.5144 6.02052 1.82988 6.58267 0.964356 6.25251C0.597278 6.1125 0.40623 5.85876 0.306741 5.61293C0.0692281 6.23496 0.721005 6.98774 2.14061 6.77072C2.14061 6.77072 2.2116 8.62357 4.37929 8.96135C6.54689 9.29913 7.17013 8.09901 7.17013 8.09901C7.17013 8.09901 7.28766 10.552 10.2002 11.2276C12.945 11.8643 14.2173 9.42095 14.2173 9.42095C14.2173 9.42095 15.3482 10.6435 17.3304 10.243C19.3127 9.84256 19.6346 8.69625 19.6346 8.69625C19.6346 8.69625 22.1484 9.55944 22.9949 7.89207Z" fill="#BDE7FF" fill-opacity="0.5"/>
<path d="M20.6805 4.77262C20.6805 4.77262 20.8862 2.71142 18.8094 1.98491C17.2886 1.45289 16.2362 2.97075 16.2362 2.97075C16.2362 2.97075 15.0966 1.78146 13.4121 2.40518C11.957 2.94403 11.8631 4.08635 11.8631 4.08635C11.8631 4.08635 11.7652 1.42952 8.99167 0.891905C6.21811 0.354285 5.38071 2.68201 5.38071 2.68201C5.38071 2.68201 3.47712 2.38253 2.72161 4.13881C3.03498 3.85664 3.72764 3.30332 4.33869 3.30692C5.15847 3.31174 5.57786 3.67697 5.57786 3.67697C5.57786 3.67697 6.11305 2.19848 8.18595 2.30712C10.2589 2.41575 10.5876 4.87391 10.5876 4.87391C10.5876 4.87391 11.3652 4.22815 12.248 4.48414C13.1309 4.74014 13.2881 5.01543 13.2881 5.01543C13.2881 5.01543 13.2958 3.77634 14.4368 3.47381C15.5778 3.17128 16.1274 3.96289 16.1274 3.96289C16.1274 3.96289 15.4909 4.10121 15.1688 4.78981C15.1688 4.78981 16.4707 3.96181 17.5429 4.60913C17.5429 4.60913 17.1153 4.03374 16.66 3.9908C16.66 3.9908 17.2193 2.78062 18.4123 2.93843C19.6055 3.09633 20.2625 5.11399 20.2625 5.11399C20.2625 5.11399 21.2415 5.09882 22.2209 5.42654C21.509 4.95911 20.6805 4.77262 20.6805 4.77262Z" fill="white" fill-opacity="0.5"/>
</svg>
