<svg width="27" height="17" viewBox="0 0 27 17" fill="none" xmlns="http://www.w3.org/2000/svg">
<path d="M2.07639 8.94764C2.07639 8.94764 1.19031 8.87398 0.908072 9.96325C0.603692 11.1392 1.82581 11.6672 1.82581 11.6672C1.82581 11.6672 1.78004 13.8485 4.40807 14.3385C7.06209 14.8335 7.76323 12.564 7.76323 12.564C7.76323 12.564 8.69069 13.857 10.7388 13.6277C13.1595 13.3567 13.3137 12.0049 13.3137 12.0049C13.3137 12.0049 13.7807 14.9472 17.0436 15.1182C20.3066 15.2892 21.3114 12.187 21.3114 12.187C21.3114 12.187 25.5763 13.0984 25.8664 10.4425C26.1092 8.21868 24.3334 8.09727 24.3334 8.09727C24.3334 8.09727 24.8896 5.21788 22.1199 3.88676C19.4622 2.60963 17.8122 4.56063 17.8122 4.56063C17.8122 4.56063 17.102 0.874072 12.1207 0.926667C8.01461 0.969919 7.08226 4.45538 7.08226 4.45538C7.08226 4.45538 5.82685 3.63062 4.41068 4.58522C2.99451 5.53981 3.75773 7.48276 3.75773 7.48276C3.75773 7.48276 1.92549 6.78979 2.07639 8.94764Z" fill="#F5FCFF" fill-opacity="0.5"/>
<path d="M25.8663 10.4425C25.8869 10.2553 25.8885 10.0879 25.8826 9.92939C25.6462 10.3377 25.0163 11.0723 23.4548 11.3493C21.246 11.7408 20.4552 10.6103 20.4552 10.6103C20.4552 10.6103 19.3775 13.1253 16.9262 12.958C14.4749 12.7906 14.0959 10.2758 14.0959 10.2758C15.0353 10.1423 15.6434 9.15106 15.6434 9.15106C13.4528 10.2869 11.7877 9.25116 11.7877 9.25116C12.3376 10.331 13.1106 10.243 13.1106 10.243C13.1106 10.243 12.5618 11.6027 10.6661 12.108C8.77035 12.6132 8.01807 11.5478 8.01807 11.5478C8.99901 11.0388 9.18612 9.83992 9.18612 9.83992C9.18612 9.83992 8.92992 10.5356 7.29172 10.8533C5.6538 11.171 5.34455 10.1425 5.34455 10.1425C5.46553 11.3876 6.26218 11.637 6.26218 11.637C6.26218 11.637 5.61009 12.9701 3.95848 12.6112C2.30716 12.2523 2.56011 10.5406 2.56011 10.5406C1.53638 10.6902 1.1139 10.2588 0.938539 9.86565C0.928285 9.89827 0.917025 9.92869 0.907799 9.96381C0.603419 11.1398 1.82553 11.6677 1.82553 11.6677C1.82553 11.6677 1.77977 13.849 4.4078 14.3391C7.06182 14.8341 7.76295 12.5645 7.76295 12.5645C7.76295 12.5645 8.69041 13.8575 10.7385 13.6283C13.1592 13.3573 13.3134 12.0055 13.3134 12.0055C13.3134 12.0055 13.7804 14.9478 17.0434 15.1188C20.3064 15.2897 21.3114 12.1875 21.3114 12.1875C21.3114 12.1875 25.5762 13.0981 25.8663 10.4425Z" fill="#BDE7FF" fill-opacity="0.5"/>
<path d="M24.0367 5.80259C23.7288 5.10189 23.1579 4.38568 22.1198 3.88675C19.4621 2.60961 17.8122 4.56062 17.8122 4.56062C17.8122 4.56062 17.102 0.87406 12.1207 0.926655C8.01458 0.969907 7.08223 4.45537 7.08223 4.45537C7.08223 4.45537 5.82682 3.63061 4.41065 4.5852C3.82514 4.98 3.61492 5.54285 3.56647 6.06818C3.85256 5.71028 4.49424 5.12865 5.59007 5.24405C7.152 5.40834 7.78643 6.00244 7.78643 6.00244C7.78643 6.00244 6.94328 6.33491 7.00674 7.24245C7.00674 7.24245 8.01211 5.64449 9.90727 6.33278C9.90727 6.33278 9.31186 5.64477 8.44968 5.70506C8.44968 5.70506 9.77428 3.12722 12.5254 3.3451C15.2769 3.56325 16.2928 4.72328 16.2928 4.72328C16.2928 4.72328 15.0996 4.94347 14.6414 5.88748C14.6414 5.88748 17.0515 4.4876 19.3715 6.03565C19.3715 6.03565 19.1962 5.15872 18.6974 4.87423C18.6972 4.87481 21.6704 3.46062 24.0367 5.80259Z" fill="white" fill-opacity="0.5"/>
</svg>
