<svg width="52" height="29" viewBox="0 0 52 29" fill="none" xmlns="http://www.w3.org/2000/svg">
<path d="M2.9941 16.0303C2.9941 16.0303 0.0636844 16.0303 0.265859 18.2534C0.468035 20.4766 3.09518 19.4661 3.09518 19.4661C3.09518 19.4661 3.17109 23.3386 6.83392 24.2154C10.0995 24.997 11.5832 22.0933 11.5832 22.0933C11.5832 22.0933 10.9496 27.0631 15.6684 28.1179C20.8701 29.2806 22.0917 25.5291 22.0917 25.5291C22.0917 25.5291 24.0117 29.874 30.3775 28.4595C36.7434 27.0451 36.2384 22.0937 36.2384 22.0937C36.2384 22.0937 38.2594 24.2544 41.4927 23.345C44.7263 22.4356 44.8274 19.1632 44.8274 19.1632C44.8274 19.1632 50.4883 20.53 51.1933 16.839C51.7435 13.9589 48.4651 13.1002 48.4651 13.1002C48.4651 13.1002 48.7465 9.03232 45.715 7.61747C42.6835 6.20299 40.7854 7.64376 40.7854 7.64376C40.7854 7.64376 40.2604 0.549977 32.3745 0.0295073C26.3115 -0.370709 24.4156 3.50106 24.4156 3.50106C24.4156 3.50106 21.9099 1.68186 18.9114 3.76261C15.8112 5.91364 16.5342 9.56406 16.5342 9.56406C16.5342 9.56406 13.9574 4.87645 9.12023 5.23158C4.02527 5.60436 0.308327 10.6155 2.9941 16.0303Z" fill="#F5FCFF" fill-opacity="0.5"/>
<path d="M48.9592 17.592C45.7157 18.7547 43.9413 17.0411 43.9413 17.0411C43.9413 17.0411 43.5741 18.6935 41.31 19.8562C39.0459 21.0189 36.9651 19.3053 36.9651 19.3053C38.1278 18.4485 38.5562 16.674 38.5562 16.674C36.2921 19.3053 31.5188 17.592 31.5188 17.592C32.2531 19.1831 35.0069 19.489 35.0069 19.489C35.0069 19.489 34.7622 23.3443 30.1723 24.507C25.5828 25.6696 23.0124 22.3649 23.0124 22.3649C25.0931 21.9365 26.0721 19.4886 26.0721 19.4886C27.6019 19.1215 28.3975 17.5304 28.3975 17.5304C25.7662 19.4274 22.8286 17.5917 22.8286 17.5917C23.3795 18.6931 24.7869 19.1828 24.7869 19.1828C24.7869 19.1828 24.1751 20.7739 21.4822 20.8351C18.7896 20.8964 17.3211 18.6931 17.3211 18.6931C17.872 21.141 20.7479 22.4262 20.7479 22.4262C20.7479 22.4262 19.5852 25.9143 15.5462 24.8741C11.5072 23.8339 12.1802 19.4278 12.1802 19.4278C12.1802 19.4278 10.2833 22.365 7.28445 21.9982C4.28602 21.631 3.67386 17.8367 3.67386 17.8367C3.67386 17.8367 2.87831 18.9381 1.47098 18.5097C0.885872 18.3316 0.620564 17.7401 0.507075 17.111C0.322938 17.4049 0.222224 17.7777 0.26544 18.2531C0.467615 20.4762 3.09476 19.4657 3.09476 19.4657C3.09476 19.4657 3.17067 23.3382 6.8335 24.215C10.0991 24.9966 11.5827 22.0929 11.5827 22.0929C11.5827 22.0929 10.9492 27.0627 15.6679 28.1175C20.8696 29.2802 22.0917 25.5287 22.0917 25.5287C22.0917 25.5287 24.0116 29.8736 30.3775 28.4591C36.7434 27.0447 36.2383 22.0933 36.2383 22.0933C36.2383 22.0933 38.2593 24.254 41.4926 23.3446C44.7263 22.4352 44.8274 19.1628 44.8274 19.1628C44.8274 19.1628 50.4883 20.5296 51.1933 16.8386C51.2098 16.7525 51.2222 16.6687 51.232 16.5864C50.7115 16.8833 49.9813 17.2253 48.9592 17.592Z" fill="#BDE7FF" fill-opacity="0.5"/>
<path d="M45.4095 8.10664C46.2321 8.34151 46.88 8.67145 47.3467 8.96494C46.9536 8.42794 46.4268 7.94918 45.7154 7.61698C42.6839 6.20213 40.7858 7.64329 40.7858 7.64329C40.7858 7.64329 40.2608 0.549488 32.3748 0.0290191C26.3118 -0.371197 24.416 3.50057 24.416 3.50057C24.416 3.50057 21.9102 1.68138 18.9118 3.76213C15.8115 5.91315 16.5345 9.56357 16.5345 9.56357C16.5345 9.56357 13.9577 4.87597 9.12057 5.23109C5.463 5.4994 2.51605 8.15736 2.13763 11.6387C3.13724 10.0705 5.10149 7.85786 7.77449 7.73986C11.9356 7.55647 14.9344 12.819 14.9344 12.819C14.9344 12.819 16.0971 10.9833 17.9328 10.8608C19.7686 10.7383 21.5434 12.0235 21.5434 12.0235C21.5434 12.0235 20.3807 9.88149 18.6671 9.51435C18.6671 9.51435 19.0955 5.35285 22.2165 5.04695C25.3374 4.74106 26.9285 6.3934 26.9285 6.3934C26.9285 6.3934 25.0315 7.1277 24.6031 8.8413C24.6031 8.8413 26.5614 6.27128 29.8048 6.82181C33.0483 7.37272 34.0884 8.16827 34.0884 8.16827C34.0884 8.16827 32.2527 5.65911 29.1926 5.47573C29.1926 5.47573 32.6195 1.49799 36.5972 3.88463C40.5749 6.27127 40.8196 8.90255 40.8196 8.90255C40.8196 8.90255 42.4111 7.24984 45.4095 8.10664Z" fill="white" fill-opacity="0.5"/>
</svg>
