<svg width="650" height="515" viewBox="0 0 650 515" fill="none" xmlns="http://www.w3.org/2000/svg">
<g clip-path="url(#clip0_174_9)">
<path d="M397.796 158.389C391.834 152.427 391.834 142.759 397.796 136.796V136.796C403.759 130.834 413.427 130.834 419.389 136.796L638.295 355.702C644.257 361.665 644.257 371.332 638.295 377.295V377.295C632.332 383.257 622.665 383.257 616.702 377.295L397.796 158.389Z" fill="white"/>
<rect x="627.499" y="126" width="30.5369" height="340.116" rx="15.2685" transform="rotate(45 627.499 126)" fill="white"/>
<path d="M22.4906 264.169C18.2928 260.577 18.2928 254.086 22.4905 250.493L300.354 12.7095C306.193 7.71228 315.205 11.8616 315.205 19.5474L315.205 495.115C315.205 502.801 306.193 506.951 300.354 501.953L22.4906 264.169Z" fill="white"/>
<rect y="180" width="114.285" height="153.765" rx="10" fill="white"/>
</g>
<defs>
<clipPath id="clip0_174_9">
<rect width="649.091" height="514.663" fill="white"/>
</clipPath>
</defs>
</svg>
