<svg width="127" height="127" viewBox="0 0 127 127" fill="none" xmlns="http://www.w3.org/2000/svg">
<path d="M90.0384 111.625L84.2188 124.861L71.5661 117.862C68.6643 116.257 65.0944 116.485 62.4207 118.447L50.762 127L43.3042 114.612C41.5939 111.771 38.3877 110.184 35.0914 110.545L20.7183 112.123L20.4537 97.6666C20.3929 94.3512 18.4103 91.3732 15.3744 90.0387L2.13816 84.2188L9.13729 71.5661C10.7424 68.6643 10.5144 65.0944 8.55289 62.4207L0 50.762L12.3879 43.3042C15.2288 41.5939 16.8163 38.3877 16.4544 35.0914L14.8763 20.7183L29.3332 20.4537C32.6486 20.3929 35.6267 18.4103 36.9612 15.3744L42.7811 2.13816L55.4337 9.13729C58.3356 10.7424 61.9055 10.5144 64.5792 8.55289L76.2379 0L83.6956 12.3879C85.4059 15.2288 88.6122 16.8163 91.9084 16.4544L106.282 14.8763L106.546 29.3332C106.607 32.6486 108.59 35.6267 111.625 36.9612L124.862 42.7808L117.863 55.4334C116.258 58.3353 116.486 61.9052 118.447 64.5789L127 76.2379L114.612 83.6956C111.771 85.4059 110.184 88.6122 110.545 91.9084L112.123 106.282L97.6666 106.546C94.351 106.606 91.3732 108.589 90.0384 111.625Z" fill="#FEBB48"/>
<path d="M63.5002 105.56C86.7295 105.56 105.56 86.7289 105.56 63.4996C105.56 40.2704 86.7295 21.4393 63.5002 21.4393C40.271 21.4393 21.4399 40.2704 21.4399 63.4996C21.4399 86.7289 40.271 105.56 63.5002 105.56Z" fill="#FFE270"/>
<path opacity="0.11" d="M118.447 64.5789C116.485 61.9052 116.257 58.3348 117.863 55.4334L124.862 42.7808L112.741 37.4518C112.75 37.8955 112.758 38.3393 112.758 38.785C112.758 75.6636 82.8623 105.56 45.9837 105.56C36.9608 105.56 28.358 103.766 20.5068 100.522L20.7192 112.123L35.0922 110.545C38.3885 110.183 41.5945 111.771 43.305 114.612L50.7626 127L62.421 118.446C65.0947 116.485 68.6651 116.256 71.5665 117.862L84.2191 124.861L90.0388 111.624C91.3735 108.589 94.3513 106.606 97.6667 106.545L112.124 106.28L110.546 91.9074C110.184 88.6111 111.771 85.4051 114.612 83.6946L127 76.2376L118.447 64.5789Z" fill="#A20606"/>
<path d="M35.3648 65.4436C34.2913 65.4436 33.4209 64.5732 33.4209 63.4997C33.4209 46.9135 46.9149 33.4198 63.5008 33.4198C64.5743 33.4198 65.4447 34.2902 65.4447 35.3637C65.4447 36.4373 64.5743 37.3077 63.5008 37.3077C49.0583 37.3077 37.3088 49.0572 37.3088 63.4997C37.3088 64.5732 36.4384 65.4436 35.3648 65.4436Z" fill="#FFEFAD"/>
</svg>
