<!DOCTYPE svg PUBLIC "-//W3C//DTD SVG 1.1//EN" "http://www.w3.org/Graphics/SVG/1.1/DTD/svg11.dtd">
<!-- Uploaded to: SVG Repo, www.svgrepo.com, Transformed by: SVG Repo Mixer Tools -->
<svg width="800px" height="800px" viewBox="-12.8 -12.8 153.60 153.60" xmlns="http://www.w3.org/2000/svg" xmlns:xlink="http://www.w3.org/1999/xlink" aria-hidden="true" role="img" class="iconify iconify--noto" preserveAspectRatio="xMidYMid meet" fill="" data-darkreader-inline-fill="" style="--darkreader-inline-fill: #000000;" stroke="">
<g id="SVGRepo_bgCarrier" stroke-width="0" transform="translate(0,0), scale(1)">
<path transform="translate(-12.8, -12.8), scale(4.8)" d="M16,27.81503527238965C17.617974337245943,27.61095486493153,19.11934400970548,27.01498673609875,20.62071209119525,26.378289278448385C22.140489692759456,25.733784744856774,23.46546018441723,24.81178425870329,24.920493587316322,24.032048503152566C26.940944343109326,22.949312056358742,29.805025368951718,22.84756669247276,30.93303059121177,20.852035763533227C31.992186524301605,18.97830470152995,30.535344593798737,16.636495462960646,30.310976415625717,14.495855767930529C30.086551688920718,12.354676557746206,30.647467598406543,10.028918224692177,29.6013941597709,8.14723142050207C28.554533408274885,6.264128390485537,26.677847746091842,4.684959289882773,24.581172207698973,4.18902971687343C22.460233474708815,3.687361136794973,20.4092502104122,5.245700125273594,18.240348794950282,5.459987603543144C16.72206332137421,5.609994221228261,15.211084971052628,4.95038697892555,13.71764132570566,5.262346660285511C12.222318800778188,5.5746988135523114,10.85285932185042,6.318005355094148,9.64647858715586,7.255127996034856C8.457457877976887,8.178765281573163,7.95683325849992,9.750824013264586,6.761324833948773,10.666048405924808C4.786138931459726,12.178156795019003,0.5483332889309059,11.876068736303766,0.3694693885388549,14.357165033285618C0.1867756137993745,16.89138712614066,4.933368438390994,16.969001749675865,6.145979254272346,19.201765427374585C7.064498204296713,20.89302178269728,5.165683216612829,23.230755368920704,6.1019285625834065,24.912263552998823C6.994570290522336,26.51545910151492,9.068633533769805,27.096914430942345,10.82942744049382,27.6132961107909C12.502840101357469,28.104051807750526,14.269819290928675,28.033268637378914,16,27.81503527238965" fill="#1077b7" strokewidth="0" data-darkreader-inline-fill="" style="--darkreader-inline-fill: #055e95;"/>
</g>
<g id="SVGRepo_tracerCarrier" stroke-linecap="round" stroke-linejoin="round" stroke="#CCCCCC" stroke-width="1.28"/>
<g id="SVGRepo_iconCarrier">
<linearGradient id="IconifyId17ecdb2904d178eab7809" gradientUnits="userSpaceOnUse" x1="47.489" y1="11.504" x2="51.02" y2="45.102">
<stop offset=".171" stop-color="#01ab46" data-darkreader-inline-stopcolor="" style="--darkreader-inline-stopcolor: #018938;"/>
<stop offset=".345" stop-color="#089e42" data-darkreader-inline-stopcolor="" style="--darkreader-inline-stopcolor: #067e35;"/>
<stop offset=".671" stop-color="#1a7a37" data-darkreader-inline-stopcolor="" style="--darkreader-inline-stopcolor: #15622c;"/>
<stop offset="1" stop-color="#2f502a" data-darkreader-inline-stopcolor="" style="--darkreader-inline-stopcolor: #264022;"/>
</linearGradient>
<path d="M35.84 48.65s5.84-8.38 5.42-11.61c-.42-3.24-1.55-3.94-4.79-5.07c-3.24-1.13-5.14-2.89-5.14-2.89s-2.35-11.03-2.11-12.39c.28-1.62 6.12-12.53 19.99-12.53c13.37 0 18.86 11.22 18.16 19.85c-.63 7.81-3.52 10-5.56 16.47c-2.04 6.48-3.03 10.35-3.03 10.35l-12.04 2.46l-10.07-2.18l-.83-2.46z" fill="url(#IconifyId17ecdb2904d178eab7809)"/>
<path d="M53.25 96.51s.75 7.64-.02 8.57c-.78.93-12.44 3.63-13.76 4.62c-1.43 1.07-.82 3.47 2.22 6.24s5.59 3.25 7.34 2.53c2.06-.84 5.63-3.57 7.23-4.79c1.28-.98 3.2-3.06 3.46-4.73c.27-1.67-.56-11.48-.56-11.48l-5.91-.96z" fill="#ff5d10" data-darkreader-inline-fill="" style="--darkreader-inline-fill: #ff6b25;"/>
<path d="M68.45 99.19s1.1 8.92.56 10c-1.41 2.82-9.47 9.16-10 11.26c-.42 1.69 3.8 5.07 8.02 5.16c5.64.13 9.17-2.1 9.57-3.33c.56-1.74-1.55-11.97-1.83-12.53s.14-15.06.14-15.06l-6.46 4.5z" fill="#ff5d10" data-darkreader-inline-fill="" style="--darkreader-inline-fill: #c23f00;"/>
<path d="M98.66 54.49s4.8-.94 4.82-4.2c.01-3.26-1.74-1.84-1.76-4.21c-.02-2.37 4.24-2.93 7.04-.94c2.21 1.57 7.26 6.68 6.98 17.29c-.38 14.41-7.92 24.95-19.79 31.47c-9.68 5.31-23.96 4.68-23.96 4.68l26.67-44.09z" fill="#5e6367" data-darkreader-inline-fill="" style="--darkreader-inline-fill: #4a5053;"/>
<path d="M85.67 55.69c2.35-.28 12.66-3.54 16.33-2.6c4.43 1.13 8.85 4.25 7.95 14.15c-1.16 12.85-10.29 20.68-14.22 22.83C88.7 93.91 81.94 94 81.94 94s1.39-38.03 3.73-38.31z" fill="#b0b0b1" data-darkreader-inline-fill="" style="--darkreader-inline-fill: #444a4d;"/>
<path d="M7.12 25.07c0 1.2 7.46 4.72 14.5 5.56s11.4-.28 11.4-.28s-1.2-3.03-1.2-5.28s1.16-7.9-.63-9.22c-1.62-1.2-2.96 1.27-3.94 1.97c-.99.7-3.8 2.67-8.17 2.82s-8.17-.56-9.71.28s-2.25 2.88-2.25 4.15z" fill="#ffbf18" data-darkreader-inline-fill="" style="--darkreader-inline-fill: #8e6700;"/>
<path d="M50.2 20.77c-.42 1.75-1.61 3.12-3.94 2.75c-2.18-.35-3.24-2.6-2.6-4.79c.5-1.73 1.79-2.9 3.97-2.53c2.5.42 2.97 2.88 2.57 4.57z" fill="#2d2b33" data-darkreader-inline-fill="" style="--darkreader-inline-fill: #cac6bf;"/>
<path d="M50.92 25.57c2.47-.78 4.3-.79 4.04-2.47c-.3-1.93-3.51-1.38-5.55-.3c-2.17 1.15-4.99 3.11-3.74 4.7c1.33 1.69 3.83-1.48 5.25-1.93z" fill="#73df86" data-darkreader-inline-fill="" style="--darkreader-inline-fill: #73df86;"/>
<path d="M33.16 51.6s2.16 9.43 12.95 7.84c7.71-1.14 13.42-4.97 13.42-4.97l.09-6.29s-5.12 3-11.26 2.91c-6.38-.09-11.92-3.38-11.92-3.38l-3.28 3.89z" fill="#ffffff" data-darkreader-inline-fill="" style="--darkreader-inline-fill: #181a1b;"/>
<path d="M26.03 69.11C25.28 89.56 40.7 99.28 65.17 99.7c27.12.47 37.61-15.44 39.23-25.43c1.69-10.45-5.07-12.67-5.07-12.67s6.76-2.82 3.73-9.5c-1.41-.28-8.35 1.57-21.54.21c-13.1-1.35-22.08.94-22.08.94s-3.28 3.57-12.67 3.1c-11.25-.56-13.42-4.97-13.42-4.97s-6.85 5.01-7.32 17.73z" fill="#84574e" data-darkreader-inline-fill="" style="--darkreader-inline-fill: #6a463e;"/>
<path d="M52.03 73.14c2.28 7.9 10.42 12.67 22.52 12.11c10.98-.51 18.96-8.17 20.27-14.92c1.43-7.34-1.55-10.14-1.55-10.14s6.34-2.3 6.34-6.76c-3.57-2.16-14.92-3.66-27.5-4.13c-8.16-.3-12.76 2.72-12.76 2.72S47.8 58.5 52.03 73.14z" fill="#b79277" data-darkreader-inline-fill="" style="--darkreader-inline-fill: #73543d;"/>
</g>
</svg>