<svg width="57" height="31" viewBox="0 0 57 31" fill="none" xmlns="http://www.w3.org/2000/svg">
<g clip-path="url(#clip0_81_6)">
<path d="M3.91331 20.733C3.91331 20.733 -0.295143 19.9724 0.0164907 23.2965C0.324145 26.578 4.6313 25.3474 4.6313 25.3474C4.6313 25.3474 6.11186 29.3031 11.1943 30.2694C17.4875 31.4662 20.2186 27.6032 20.2186 27.6032C20.2186 27.6032 21.3465 29.5514 24.423 29.8591C27.4996 30.1667 29.4478 27.7055 29.4478 27.7055C29.4478 27.7055 30.9861 30.5767 36.0108 30.4744C41.0356 30.3717 42.7788 26.1672 42.7788 26.1672C42.7788 26.1672 44.4608 28.4597 47.5986 27.9105C51.6104 27.2084 51.5977 23.501 51.5977 23.501C51.5977 23.501 57.3404 23.501 56.6224 19.7069C55.9044 15.9128 51.3927 17.9637 51.3927 17.9637C51.3927 17.9637 51.7983 12.808 45.8553 10.888C42.2913 9.73661 39.9076 10.9907 39.9076 10.9907C39.9076 10.9907 38.0617 0.53087 27.3969 0.0182457C16.7321 -0.494378 14.6812 9.96506 14.6812 9.96506C14.6812 9.96506 11.6047 8.42679 9.04114 10.7853C6.47762 13.1439 7.2979 15.9128 7.2979 15.9128C7.2979 15.9128 2.47732 16.4258 3.91331 20.733Z" fill="#F5FCFF"/>
<path d="M56.4624 21.3806C53.3421 23.2476 51.2968 20.948 51.2968 20.948C51.2968 20.948 50.4204 24.2036 47.2273 25.0175C44.0341 25.8314 43.0323 22.4504 43.0323 22.4504C44.4723 20.3215 43.7838 18.0676 43.7838 18.0676C43.7838 18.0676 43.8463 19.9458 41.0917 21.699C38.3367 23.4522 35.9575 22.2625 35.9575 22.2625C38.5871 24.2036 40.2774 23.5775 40.2774 23.5775C40.2774 23.5775 39.7138 26.5204 35.7068 27.2714C31.6997 28.0228 30.2597 24.2661 30.2597 24.2661C30.2597 24.2661 29.1326 27.146 25.8769 27.4592C22.6213 27.7725 20.9306 24.955 20.9306 24.955C22.9341 24.7672 23.8734 22.3254 23.8734 22.3254C18.3639 24.8925 15.2957 21.1358 15.2957 21.1358C16.1721 24.329 18.1756 24.8925 18.1756 24.8925C18.1756 24.8925 17.0485 28.0857 11.2258 27.71C5.40303 27.3343 4.83947 22.7636 4.83947 22.7636C4.83947 22.7636 4.02556 24.2036 1.58383 24.0157C0.769915 23.9532 0.287539 23.5262 0.000183105 22.9885C0.000979106 23.0872 0.00615271 23.1895 0.0161027 23.2966C0.323757 26.5781 4.63091 25.3474 4.63091 25.3474C4.63091 25.3474 6.11147 29.3032 11.1939 30.2695C17.4871 31.4663 20.2182 27.6033 20.2182 27.6033C20.2182 27.6033 21.3461 29.5515 24.4227 29.8592C27.4992 30.1668 29.4474 27.7056 29.4474 27.7056C29.4474 27.7056 30.9857 30.5768 36.0104 30.4745C41.0352 30.3718 42.7784 26.1673 42.7784 26.1673C42.7784 26.1673 44.4604 28.4598 47.5982 27.9106C51.61 27.2085 51.5973 23.5011 51.5973 23.5011C51.5973 23.5011 55.4885 23.4995 56.4624 21.3806Z" fill="#BDE7FF"/>
<path d="M51.0162 15.5825C50.4618 13.967 49.1142 11.9416 45.8542 10.8885C42.2901 9.7371 39.9065 10.9912 39.9065 10.9912C39.9065 10.9912 38.0605 0.531358 27.3957 0.018734C16.7309 -0.49389 14.68 9.96555 14.68 9.96555C14.68 9.96555 11.6035 8.42728 9.03997 10.7858C8.04418 11.702 7.5622 12.6783 7.34131 13.532C8.20218 12.5557 9.5713 11.343 11.1004 11.3056C13.6675 11.2431 15.6711 12.6831 15.6711 12.6831C15.6711 12.6831 17.6121 6.6725 23.0591 5.60825C28.5062 4.54399 30.6351 9.80317 30.6351 9.80317C30.6351 9.80317 27.3169 10.8049 26.3152 13.7477C26.3152 13.7477 29.8211 11.7442 33.2022 12.2453C36.5832 12.746 37.8353 15.1881 37.8353 15.1881C37.8353 15.1881 37.4596 12.0574 35.2057 11.1186C35.2057 11.1186 39.1503 11.4943 40.7156 14.8124C40.7156 14.8124 46.5702 12.8817 51.0162 15.5825Z" fill="white"/>
</g>
<defs>
<clipPath id="clip0_81_6">
<rect width="57" height="31" fill="white"/>
</clipPath>
</defs>
</svg>
