<svg width="37" height="24" viewBox="0 0 37 24" fill="none" xmlns="http://www.w3.org/2000/svg">
<g filter="url(#filter0_f_58_339)">
<path d="M2.84015 11.7439C2.84015 11.7439 1.60953 11.5451 1.10884 13.1125C0.568757 14.8048 2.22444 15.7038 2.22444 15.7038C2.22444 15.7038 1.94743 18.8958 5.57082 19.8833C9.23003 20.8808 10.4312 17.6265 10.4312 17.6265C10.4312 17.6265 11.6005 19.6165 14.484 19.4904C17.8921 19.3413 18.2396 17.376 18.2396 17.376C18.2396 17.376 18.6045 21.7359 23.1461 22.3208C27.6877 22.9058 29.3943 18.4624 29.3943 18.4624C29.3943 18.4624 35.2632 20.2352 35.9279 16.3726C36.4843 13.1384 34.0155 12.7785 34.0155 12.7785C34.0155 12.7785 35.0738 8.61569 31.3346 6.38105C27.7466 4.23701 25.2511 6.92719 25.2511 6.92719C25.2511 6.92719 24.6191 1.45164 17.6553 1.01824C11.9149 0.660835 10.272 5.67333 10.272 5.67333C10.272 5.67333 8.5988 4.33597 6.52721 5.58982C4.45562 6.84368 5.33202 9.76934 5.33202 9.76934C5.33202 9.76934 2.84015 8.56601 2.84015 11.7439Z" fill="#F5FCFF" fill-opacity="0.18"/>
<path d="M35.9277 16.3726C35.9747 16.1004 35.9934 15.8553 36.0006 15.6223C35.6304 16.1964 34.6788 17.2085 32.4703 17.4545C29.3464 17.8019 28.3522 16.0641 28.3522 16.0641C28.3522 16.0641 26.601 19.6394 23.1929 19.143C19.7848 18.6465 19.5011 14.9221 19.5011 14.9221C20.8264 14.8227 21.7729 13.4324 21.7729 13.4324C18.6016 14.8724 16.3768 13.1839 16.3768 13.1839C17.0394 14.8227 18.128 14.7731 18.128 14.7731C18.128 14.7731 17.2285 16.7096 14.5308 17.2557C11.8332 17.8019 10.8864 16.1635 10.8864 16.1635C12.3064 15.5179 12.6849 13.7802 12.6849 13.7802C12.6849 13.7802 12.2591 14.7735 9.93951 15.0712C7.62037 15.3689 7.28883 13.8299 7.28883 13.8299C7.33619 15.667 8.42473 16.1142 8.42473 16.1142C8.42473 16.1142 7.38356 18.001 5.11138 17.3058C2.83959 16.6106 3.36017 14.128 3.36017 14.128C1.91543 14.2424 1.36739 13.5668 1.16083 12.9727C1.14331 13.0194 1.12461 13.0628 1.10829 13.1134C0.568208 14.8056 2.22389 15.7046 2.22389 15.7046C2.22389 15.7046 1.94688 18.8966 5.57027 19.8841C9.22948 20.8816 10.4306 17.6273 10.4306 17.6273C10.4306 17.6273 11.6 19.6173 14.4835 19.4912C17.8916 19.3421 18.239 17.3768 18.239 17.3768C18.239 17.3768 18.604 21.7367 23.1455 22.3217C27.6871 22.9066 29.3941 18.4632 29.3941 18.4632C29.3941 18.4632 35.2631 20.2348 35.9277 16.3726Z" fill="#BDE7FF" fill-opacity="0.18"/>
<path d="M33.8251 9.38521C33.4633 8.32676 32.7358 7.21862 31.3344 6.38105C27.7465 4.23701 25.251 6.92718 25.251 6.92718C25.251 6.92718 24.619 1.45164 17.6552 1.01824C11.9148 0.660835 10.2719 5.67333 10.2719 5.67333C10.2719 5.67333 8.59868 4.33597 6.52709 5.58982C5.67059 6.1084 5.32194 6.91174 5.20294 7.67666C5.63756 7.18146 6.59077 6.39483 8.11034 6.67625C10.2763 7.07708 11.1045 8.01277 11.1045 8.01277C11.1045 8.01277 9.89417 8.41361 9.89417 9.75013C9.89417 9.75013 11.4547 7.51132 14.035 8.71423C14.035 8.71423 13.2704 7.64493 12.0601 7.64493C12.0601 7.64493 14.1623 4.00278 17.9843 4.60403C21.8067 5.20569 23.1125 7.00986 23.1125 7.00986C23.1125 7.00986 21.4242 7.21027 20.6919 8.5468C20.6919 8.5468 24.1955 6.74222 27.2852 9.24867C27.2852 9.24867 27.126 7.94555 26.4569 7.47749C26.4565 7.47833 30.7482 5.71049 33.8251 9.38521Z" fill="white" fill-opacity="0.18"/>
</g>
<defs>
<filter id="filter0_f_58_339" x="0.1" y="0.1" width="36.8095" height="23.1748" filterUnits="userSpaceOnUse" color-interpolation-filters="sRGB">
<feFlood flood-opacity="0" result="BackgroundImageFix"/>
<feBlend mode="normal" in="SourceGraphic" in2="BackgroundImageFix" result="shape"/>
<feGaussianBlur stdDeviation="0.45" result="effect1_foregroundBlur_58_339"/>
</filter>
</defs>
</svg>
