<svg width="60" height="33" viewBox="0 0 60 33" fill="none" xmlns="http://www.w3.org/2000/svg">
<path d="M3.65022 24.0667C3.65022 24.0667 1.17537 22.8504 0.232554 24.7966C-0.710262 26.7428 1.41099 28.0809 3.061 27.716C3.061 27.716 3.7682 30.8785 7.53912 31.2434C11.3104 31.6084 12.9601 29.2972 12.9601 29.2972C12.9601 29.2972 13.5968 31.678 18.9702 32.0948C23.6074 32.4545 26.984 29.419 26.984 29.419C26.984 29.419 28.9148 32.0673 34.3361 32.0673C39.757 32.0673 42.5403 28.3245 42.5403 28.3245C42.5403 28.3245 46.6651 31.3652 53.8537 28.6894C61.0423 26.0136 62.1031 13.9717 56.093 9.22795C50.0828 4.48418 46.4295 7.52492 46.4295 7.52492C46.4295 7.52492 42.5784 -1.90348 33.2304 0.348552C23.4992 2.69278 24.8631 12.2687 24.8631 12.2687C24.8631 12.2687 21.5159 10.3284 18.6173 12.6337C16.4381 14.3669 16.6137 16.6475 16.6137 16.6475C16.6137 16.6475 13.0784 14.8231 10.2499 16.1611C7.42148 17.4992 7.53946 20.6617 7.53946 20.6617C7.53946 20.6617 6.0381 19.3146 4.43966 20.781C2.98515 22.1149 3.65022 24.0667 3.65022 24.0667Z" fill="#F5FCFF" fill-opacity="0.5"/>
<path d="M49.5246 26.7223C43.3156 26.1399 42.6569 22.1587 42.6569 22.1587C42.6569 22.1587 40.2111 29.0526 34.9428 29.1496C29.6746 29.2467 27.9814 26.3336 27.9814 26.3336C31.274 25.4597 31.9327 21.9642 31.9327 21.9642C31.9327 21.9642 30.8979 23.7118 26.8525 24.3916C22.8072 25.0714 20.9256 23.0323 20.9256 23.0323C21.8664 25.2656 23.9361 26.1395 23.9361 26.1395C23.9361 26.1395 23.4656 27.9845 19.0441 28.8581C14.6226 29.7321 13.6818 27.1102 13.6818 27.1102C15.4693 26.819 16.4101 24.877 16.4101 24.877C11.424 27.0131 9.07219 24.4887 9.07219 24.4887C9.26028 26.2362 11.2359 27.1102 11.2359 27.1102C11.2359 27.1102 10.3892 29.5376 7.1906 29.2464C3.99204 28.9552 3.23934 25.7509 3.23934 25.7509C3.23934 25.7509 2.76877 26.3333 1.45179 26.1392C0.88651 26.0557 0.46078 25.5425 0.157744 24.9845C-0.562261 26.8266 1.46527 28.068 3.06102 27.7152C3.06102 27.7152 3.76821 30.8777 7.53914 31.2427C11.3104 31.6076 12.9601 29.2965 12.9601 29.2965C12.9601 29.2965 13.5968 31.6772 18.9702 32.094C23.6075 32.4538 26.984 29.4182 26.984 29.4182C26.984 29.4182 28.9148 32.0665 34.3361 32.0665C39.757 32.0665 42.54 28.3237 42.54 28.3237C42.54 28.3237 46.6645 31.3645 53.8534 28.6887C56.637 27.6526 58.4974 25.2099 59.3886 22.3327C57.3665 24.274 53.6593 27.1102 49.5246 26.7223Z" fill="#BDE7FF" fill-opacity="0.5"/>
<path d="M57.6631 10.8294C57.207 10.2355 56.6856 9.69447 56.093 9.22688C50.0828 4.48311 46.4295 7.52385 46.4295 7.52385C46.4295 7.52385 42.5784 -1.90419 33.2305 0.347487C23.4993 2.69171 24.8631 12.2676 24.8631 12.2676C24.8631 12.2676 21.5159 10.3273 18.617 12.6326C16.4377 14.3659 16.6137 16.6464 16.6137 16.6464C16.6137 16.6464 13.0781 14.822 10.2499 16.16C8.76712 16.8614 8.09769 18.0624 7.79297 19.0481C8.52342 18.3543 9.91927 17.4063 11.9886 17.5948C15.1872 17.886 16.9747 19.6339 16.9747 19.6339C16.9747 19.6339 17.539 13.9052 20.926 13.1284C24.3126 12.3515 26.2883 15.3616 26.2883 15.3616C26.2883 15.3616 24.5007 16.5268 24.4067 18.3717C24.4067 18.3717 28.8282 13.7111 33.8143 16.5268C33.8143 16.5268 30.9919 14.0023 28.2639 14.3906C28.2639 14.3906 29.6749 4.09832 36.7307 4.87486C43.7865 5.65174 45.1035 9.7296 45.1035 9.7296C45.1035 9.7296 49.7323 6.22684 57.6631 10.8294Z" fill="white" fill-opacity="0.5"/>
</svg>
