<svg width="46" height="25" viewBox="0 0 46 25" fill="none" xmlns="http://www.w3.org/2000/svg">
<g filter="url(#filter0_f_58_335)">
<path d="M8.62912 9.74276C8.62912 9.74276 3.75576 6.95862 1.54089 10.8254C-0.674337 14.6923 4.34654 18.2497 8.777 16.0843C8.777 16.0843 10.0702 21.2642 15.9805 21.6772C21.9677 22.095 23.1013 18.2501 23.1013 18.2501C23.1013 18.2501 25.0212 23.6639 32.2573 23.0451C39.4934 22.4263 39.7888 16.3941 39.7888 16.3941C39.7888 16.3941 45.5479 16.858 44.9575 12.5273C44.3667 8.19619 39.7888 8.96986 39.7888 8.96986C39.7888 8.96986 39.474 2.5056 32.5527 1.23622C24.4996 -0.240966 22.0677 5.72182 22.0677 5.72182C22.0677 5.72182 20.0003 3.40157 17.0468 4.02036C14.0933 4.63914 13.7979 6.95939 13.7979 6.95939C13.7979 6.95939 12.1793 4.1695 9.47978 5.85064C7.36997 7.16373 8.62912 9.74276 8.62912 9.74276Z" fill="#F5FCFF" fill-opacity="0.18"/>
<path d="M44.9927 12.8993C44.2197 13.7868 42.8152 14.7242 40.2724 14.9876C35.0831 15.5251 33.3727 12.5389 33.3727 12.5389C34.5132 14.7488 35.9956 15.5251 35.9956 15.5251C35.9956 15.5251 33.9429 20.2434 29.7233 19.8255C25.5037 19.4077 23.7928 16.1822 23.7928 16.1822C25.9027 15.5251 26.6439 13.1362 26.6439 13.1362C26.6439 13.1362 25.9594 14.0322 22.8803 14.5697C19.8013 15.1072 17.9762 12.4197 17.9762 12.4197C18.7745 14.5099 20.4854 15.7643 20.4854 15.7643C20.4854 15.7643 18.6607 18.213 14.0988 17.6157C9.53696 17.0184 9.13798 13.017 9.13798 13.017C9.13798 13.017 8.16873 15.7045 4.06294 14.8684C2.01462 14.4512 1.31476 13.0826 1.12771 11.8159C0.191767 15.2633 4.72912 18.0627 8.77707 16.0845C8.77707 16.0845 10.0703 21.2644 15.9806 21.6773C21.9678 22.0952 23.1014 18.2502 23.1014 18.2502C23.1014 18.2502 25.0212 23.664 32.2574 23.0452C39.4935 22.4264 39.7888 16.3942 39.7888 16.3942C39.7888 16.3942 45.2102 16.8298 44.9927 12.8993Z" fill="#BDE7FF" fill-opacity="0.18"/>
<path d="M32.4718 3.31855C36.9704 4.11561 38.7108 5.93324 39.3155 6.83304C39.287 6.75253 39.2566 6.67049 39.2248 6.58729C39.0019 6.13835 38.7006 5.5395 38.373 4.91228C37.3474 3.34309 35.5835 1.79115 32.5527 1.23524C24.4996 -0.241943 22.0677 5.72084 22.0677 5.72084C22.0677 5.72084 20.0004 3.4006 17.0468 4.01938C14.0933 4.63816 13.7979 6.95803 13.7979 6.95803C13.7979 6.95803 12.1793 4.16813 9.47984 5.84928C8.29755 6.58576 8.17347 7.71905 8.29279 8.57323C8.55377 8.06409 9.22764 7.0485 10.4948 6.93579C12.6028 6.74793 13.5897 9.14371 13.5897 9.14371C13.5897 9.14371 14.9352 5.57324 18.254 5.80826C20.5878 5.97349 21.3488 7.45259 21.3488 7.45259C21.3488 7.45259 20.4967 8.01617 19.6446 9.37872C19.6446 9.37872 23.4568 6.98295 26.2826 8.67406C26.2826 8.67406 24.5333 6.79509 23.4568 6.98295C23.4568 6.98295 26.3719 2.23817 32.4718 3.31855Z" fill="white" fill-opacity="0.18"/>
</g>
<defs>
<filter id="filter0_f_58_335" x="0" y="0" width="46" height="24.0945" filterUnits="userSpaceOnUse" color-interpolation-filters="sRGB">
<feFlood flood-opacity="0" result="BackgroundImageFix"/>
<feBlend mode="normal" in="SourceGraphic" in2="BackgroundImageFix" result="shape"/>
<feGaussianBlur stdDeviation="0.5" result="effect1_foregroundBlur_58_335"/>
</filter>
</defs>
</svg>
