<svg width="56" height="34" viewBox="0 0 56 34" fill="none" xmlns="http://www.w3.org/2000/svg">
<g filter="url(#filter0_f_58_347)">
<path d="M3.90069 18.5353C3.90069 18.5353 0.797077 18.5353 1.0112 20.9672C1.22533 23.3991 4.00774 22.2938 4.00774 22.2938C4.00774 22.2938 4.08814 26.5299 7.96744 27.4889C11.4261 28.344 12.9974 25.1676 12.9974 25.1676C12.9974 25.1676 12.3263 30.604 17.324 31.7579C22.8331 33.0298 24.127 28.926 24.127 28.926C24.127 28.926 26.1604 33.6789 32.9025 32.1316C39.6447 30.5843 39.1098 25.168 39.1098 25.168C39.1098 25.168 41.2502 27.5317 44.6746 26.5369C48.0994 25.5421 48.2064 21.9624 48.2064 21.9624C48.2064 21.9624 54.2019 23.4575 54.9486 19.4199C55.5312 16.2695 52.0591 15.3302 52.0591 15.3302C52.0591 15.3302 52.3572 10.8803 49.1465 9.33259C45.9358 7.78531 43.9256 9.36136 43.9256 9.36136C43.9256 9.36136 43.3695 1.60151 35.0175 1.03217C28.5962 0.594377 26.5883 4.82968 26.5883 4.82968C26.5883 4.82968 23.9344 2.83967 20.7588 5.11579C17.4753 7.46878 18.241 11.462 18.241 11.462C18.241 11.462 15.5119 6.33422 10.3889 6.72268C4.9928 7.13047 1.05618 12.6121 3.90069 18.5353Z" fill="#F5FCFF" fill-opacity="0.5"/>
<path d="M52.5822 20.2438C49.147 21.5156 47.2677 19.6411 47.2677 19.6411C47.2677 19.6411 46.8788 21.4486 44.4809 22.7205C42.0829 23.9924 39.8792 22.1179 39.8792 22.1179C41.1106 21.1806 41.5644 19.2395 41.5644 19.2395C39.1664 22.1178 34.111 20.2438 34.111 20.2438C34.8887 21.9843 37.8052 22.3189 37.8052 22.3189C37.8052 22.3189 37.5461 26.5361 32.685 27.808C27.8242 29.0798 25.1019 25.4648 25.1019 25.4648C27.3056 24.9962 28.3424 22.3185 28.3424 22.3185C29.9626 21.9168 30.8052 20.1764 30.8052 20.1764C28.0184 22.2515 24.9072 20.2434 24.9072 20.2434C25.4907 21.4482 26.9812 21.9838 26.9812 21.9838C26.9812 21.9838 26.3333 23.7243 23.4812 23.7913C20.6296 23.8583 19.0742 21.4482 19.0742 21.4482C19.6576 24.126 22.7035 25.5318 22.7035 25.5318C22.7035 25.5318 21.4721 29.3474 17.1944 28.2096C12.9167 27.0717 13.6295 22.2519 13.6295 22.2519C13.6295 22.2519 11.6204 25.4648 8.44438 25.0636C5.26874 24.662 4.6204 20.5114 4.6204 20.5114C4.6204 20.5114 3.77783 21.7162 2.28732 21.2476C1.66764 21.0528 1.38665 20.4057 1.26645 19.7176C1.07143 20.0391 0.964765 20.4468 1.01053 20.9669C1.22466 23.3988 4.00707 22.2934 4.00707 22.2934C4.00707 22.2934 4.08747 26.5295 7.96678 27.4885C11.4254 28.3436 12.9967 25.1672 12.9967 25.1672C12.9967 25.1672 12.3257 30.6037 17.3234 31.7576C22.8325 33.0294 24.1268 28.9257 24.1268 28.9257C24.1268 28.9257 26.1602 33.6785 32.9023 32.1312C39.6444 30.5839 39.1095 25.1676 39.1095 25.1676C39.1095 25.1676 41.2499 27.5313 44.6743 26.5365C48.0991 25.5417 48.2062 21.9621 48.2062 21.9621C48.2062 21.9621 54.2016 23.4571 54.9483 19.4196C54.9658 19.3254 54.9789 19.2338 54.9893 19.1437C54.4381 19.4685 53.6647 19.8426 52.5822 20.2438Z" fill="#BDE7FF" fill-opacity="0.5"/>
<path d="M48.8227 9.8678C49.6939 10.1247 50.38 10.4856 50.8743 10.8067C50.458 10.2193 49.9 9.69555 49.1466 9.33216C45.936 7.78447 43.9257 9.36094 43.9257 9.36094C43.9257 9.36094 43.3697 1.60108 35.0176 1.03174C28.5963 0.59395 26.5884 4.82925 26.5884 4.82925C26.5884 4.82925 23.9345 2.83925 20.7589 5.11536C17.4754 7.46835 18.2411 11.4615 18.2411 11.4615C18.2411 11.4615 15.512 6.33379 10.389 6.72225C6.51525 7.01576 3.39413 9.92329 2.99335 13.7315C4.05203 12.0161 6.13237 9.59566 8.96335 9.46658C13.3704 9.26598 16.5464 15.0227 16.5464 15.0227C16.5464 15.0227 17.7779 13.0146 19.7221 12.8806C21.6663 12.7465 23.5461 14.1524 23.5461 14.1524C23.5461 14.1524 22.3147 11.8093 20.4998 11.4077C20.4998 11.4077 20.9535 6.85544 24.2589 6.52083C27.5643 6.18622 29.2494 7.9937 29.2494 7.9937C29.2494 7.9937 27.2403 8.79694 26.7866 10.6714C26.7866 10.6714 28.8606 7.86011 32.2957 8.46233C35.7308 9.06497 36.8325 9.93521 36.8325 9.93521C36.8325 9.93521 34.8883 7.19047 31.6474 6.98986C31.6474 6.98986 35.2767 2.63864 39.4895 5.24937C43.7024 7.8601 43.9615 10.7384 43.9615 10.7384C43.9615 10.7384 45.647 8.93055 48.8227 9.8678Z" fill="white" fill-opacity="0.5"/>
</g>
<defs>
<filter id="filter0_f_58_347" x="0.3" y="0.3" width="55.4145" height="32.8413" filterUnits="userSpaceOnUse" color-interpolation-filters="sRGB">
<feFlood flood-opacity="0" result="BackgroundImageFix"/>
<feBlend mode="normal" in="SourceGraphic" in2="BackgroundImageFix" result="shape"/>
<feGaussianBlur stdDeviation="0.35" result="effect1_foregroundBlur_58_347"/>
</filter>
</defs>
</svg>
