<svg width="325" height="88" viewBox="0 0 325 88" fill="none" xmlns="http://www.w3.org/2000/svg">
<path d="M12.045 44.0789C12.045 44.0789 9.25937 43.1778 9.01381 45.5535C8.76784 47.9295 12.209 47.028 12.209 47.028C12.209 47.028 11.7282 51.0892 16.2236 52.0257C20.1562 52.8452 21.6308 48.5846 21.6308 48.5846C21.6308 48.5846 22.2043 49.7317 24.0069 49.8956C25.8094 50.0596 26.055 48.5846 26.055 48.5846C26.055 48.5846 27.4981 52.3294 31.4622 51.6162C35.5588 50.8787 35.7224 47.5196 35.7224 47.5196C35.7224 47.5196 39.0815 48.5026 40.0646 46.127C41.0476 43.7509 38.7536 42.7679 38.7536 42.7679C38.7536 42.7679 40.3921 39.0812 37.197 36.6231C34.7242 34.7211 32.6908 35.7221 32.6908 35.7221C32.6908 35.7221 30.3968 29.4134 23.269 31.3799C16.9977 33.11 17.5338 38.0161 17.5338 38.0161C17.5338 38.0161 14.5269 36.682 12.6181 39.1632C10.9799 41.2933 12.045 44.0789 12.045 44.0789Z" fill="#F5FCFF"/>
<path d="M40.0645 46.127C40.2098 45.7759 40.2767 45.4591 40.297 45.1678C38.467 47.0463 35.5524 46.1954 35.5524 46.1954C36.5972 45.4233 36.3245 43.8787 36.3245 43.8787C36.3245 43.8787 35.9158 44.8327 34.4619 45.2868C33.0084 45.7409 31.5545 45.2414 31.5545 45.2414C32.1451 46.7403 33.6894 46.7403 33.6894 46.7403C33.6894 46.7403 33.326 49.3297 30.4186 49.5565C27.5112 49.7838 26.0124 46.4676 26.0124 46.4676C24.2862 49.1024 22.2421 47.5124 22.2421 47.5124C24.0136 47.1037 24.3316 44.8776 24.3316 44.8776C24.3316 44.8776 23.2869 46.1496 21.1062 46.2404C18.926 46.3311 18.2442 45.2864 18.2442 45.2864C18.4715 46.9218 19.8796 47.6485 19.8796 47.6485C19.8796 47.6485 18.5622 50.8739 15.5187 49.8745C12.4752 48.8751 13.7018 45.4683 13.7018 45.4683C13.7018 45.4683 12.7932 46.5584 10.7944 46.513C9.73177 46.4887 9.26253 45.8874 9.05358 45.329C9.03925 45.403 9.02094 45.4719 9.01258 45.5534C8.76662 47.9295 12.2077 47.028 12.2077 47.028C12.2077 47.028 11.7269 51.0892 16.2224 52.0257C20.155 52.8448 21.6296 48.5846 21.6296 48.5846C21.6296 48.5846 22.2031 49.7316 24.0056 49.8956C25.8082 50.0596 26.0538 48.5846 26.0538 48.5846C26.0538 48.5846 27.4969 52.3294 31.461 51.6162C35.5576 50.8787 35.7212 47.52 35.7212 47.52C35.7212 47.52 39.0815 48.503 40.0645 46.127Z" fill="#BDE7FF"/>
<path d="M38.9605 39.1003C38.7046 38.2537 38.1812 37.3801 37.197 36.6231C34.7242 34.7211 32.6908 35.7221 32.6908 35.7221C32.6908 35.7221 30.3967 29.4138 23.269 31.3799C16.9977 33.11 17.5338 38.0161 17.5338 38.0161C17.5338 38.0161 14.5269 36.682 12.6181 39.1632C12.201 39.7056 11.9602 40.2903 11.8312 40.861C12.6038 40.1733 13.7775 39.3391 15.0602 39.1827C17.3069 38.9084 19.2249 40.3333 19.2249 40.3333C19.2249 40.3333 18.3481 37.3192 19.9922 35.4562C21.6364 33.5932 24.2118 35.6206 24.2118 35.6206C24.2118 35.6206 22.6775 35.9493 22.5677 37.5935C22.5677 37.5935 25.253 34.9081 27.9928 37.1003C27.9928 37.1003 27.9379 35.5111 26.2942 35.1824C26.2942 35.1824 27.3903 33.7575 29.1984 34.5249C31.0069 35.2922 31.8837 37.6484 31.8837 37.6484C31.8837 37.6484 33.5823 36.4978 35.884 37.1553C37.4704 37.6078 38.4837 38.5546 38.9605 39.1003Z" fill="white"/>
<path d="M263.045 48.0789C263.045 48.0789 260.259 47.1778 260.014 49.5535C259.768 51.9295 263.209 51.028 263.209 51.028C263.209 51.028 262.728 55.0892 267.224 56.0257C271.156 56.8452 272.631 52.5846 272.631 52.5846C272.631 52.5846 273.204 53.7317 275.007 53.8956C276.809 54.0596 277.055 52.5846 277.055 52.5846C277.055 52.5846 278.498 56.3294 282.462 55.6162C286.559 54.8787 286.722 51.5196 286.722 51.5196C286.722 51.5196 290.082 52.5026 291.065 50.127C292.048 47.7509 289.754 46.7679 289.754 46.7679C289.754 46.7679 291.392 43.0812 288.197 40.6231C285.724 38.7211 283.691 39.7221 283.691 39.7221C283.691 39.7221 281.397 33.4134 274.269 35.3799C267.998 37.11 268.534 42.0161 268.534 42.0161C268.534 42.0161 265.527 40.682 263.618 43.1632C261.98 45.2933 263.045 48.0789 263.045 48.0789Z" fill="#F5FCFF"/>
<path d="M291.065 50.127C291.21 49.7759 291.277 49.4591 291.297 49.1678C289.467 51.0463 286.552 50.1954 286.552 50.1954C287.597 49.4233 287.325 47.8787 287.325 47.8787C287.325 47.8787 286.916 48.8327 285.462 49.2868C284.008 49.7409 282.555 49.2414 282.555 49.2414C283.145 50.7403 284.689 50.7403 284.689 50.7403C284.689 50.7403 284.326 53.3297 281.419 53.5565C278.511 53.7838 277.012 50.4676 277.012 50.4676C275.286 53.1024 273.242 51.5124 273.242 51.5124C275.014 51.1037 275.332 48.8776 275.332 48.8776C275.332 48.8776 274.287 50.1496 272.106 50.2404C269.926 50.3311 269.244 49.2864 269.244 49.2864C269.471 50.9218 270.88 51.6485 270.88 51.6485C270.88 51.6485 269.562 54.8739 266.519 53.8745C263.475 52.8751 264.702 49.4683 264.702 49.4683C264.702 49.4683 263.793 50.5584 261.794 50.513C260.732 50.4887 260.263 49.8874 260.054 49.329C260.039 49.403 260.021 49.4719 260.013 49.5534C259.767 51.9295 263.208 51.028 263.208 51.028C263.208 51.028 262.727 55.0892 267.222 56.0257C271.155 56.8448 272.63 52.5846 272.63 52.5846C272.63 52.5846 273.203 53.7316 275.006 53.8956C276.808 54.0596 277.054 52.5846 277.054 52.5846C277.054 52.5846 278.497 56.3294 282.461 55.6162C286.558 54.8787 286.721 51.52 286.721 51.52C286.721 51.52 290.081 52.503 291.065 50.127Z" fill="#BDE7FF"/>
<path d="M289.961 43.1003C289.705 42.2537 289.181 41.3801 288.197 40.6231C285.724 38.7211 283.691 39.7221 283.691 39.7221C283.691 39.7221 281.397 33.4138 274.269 35.3799C267.998 37.11 268.534 42.0161 268.534 42.0161C268.534 42.0161 265.527 40.682 263.618 43.1632C263.201 43.7056 262.96 44.2903 262.831 44.861C263.604 44.1733 264.777 43.3391 266.06 43.1827C268.307 42.9084 270.225 44.3333 270.225 44.3333C270.225 44.3333 269.348 41.3192 270.992 39.4562C272.636 37.5932 275.212 39.6206 275.212 39.6206C275.212 39.6206 273.678 39.9493 273.568 41.5935C273.568 41.5935 276.253 38.9081 278.993 41.1003C278.993 41.1003 278.938 39.5111 277.294 39.1824C277.294 39.1824 278.39 37.7575 280.198 38.5249C282.007 39.2922 282.884 41.6484 282.884 41.6484C282.884 41.6484 284.582 40.4978 286.884 41.1553C288.47 41.6078 289.484 42.5546 289.961 43.1003Z" fill="white"/>
<path d="M217.541 44.184C217.541 44.184 212.955 44.3229 212.121 48.0752C211.287 51.8276 215.039 52.8003 215.039 52.8003C215.039 52.8003 214.279 58.4917 219.626 60.1661C225.729 62.0777 228.798 56.2748 228.798 56.2748C228.798 56.2748 229.215 59.1934 232.967 60.0272C236.719 60.861 238.248 57.1087 238.248 57.1087C238.248 57.1087 239.499 62.1119 245.197 61.9726C250.894 61.8333 251.45 57.1087 251.45 57.1087C251.45 57.1087 258.121 58.4985 259.928 53.3563C261.734 48.2141 255.481 45.8516 255.481 45.8516C255.481 45.8516 256.021 37.4383 247.42 35.2895C240.123 33.4666 236.303 40.8484 236.303 40.8484C236.303 40.8484 235.334 38.454 233.245 38.4858C230.657 38.5248 230.049 41.4044 230.049 41.4044C230.049 41.4044 228.817 35.1804 223.239 35.7066C215.873 36.4015 217.541 44.184 217.541 44.184Z" fill="#DEF5FF"/>
<path d="M217.678 50.7122C217.683 50.7046 217.685 50.7004 217.685 50.7004C217.685 50.7004 217.679 50.7097 217.678 50.7122Z" fill="white"/>
<path d="M223.262 50.4267C223.264 50.3714 223.262 50.3216 223.265 50.2655C223.265 50.2655 223.257 50.3256 223.262 50.4267Z" fill="white"/>
<path d="M259.845 53.5665C259.111 54.3621 257.901 55.2902 255.949 55.9179C251.89 57.2221 250.514 54.1062 250.514 54.1062C250.514 54.1062 249.064 58.7441 245.513 58.0918C241.962 57.4394 242.107 53.7436 242.107 53.7436C246.166 53.309 247.108 49.6128 247.108 49.6128C247.108 49.6128 245.875 51.2796 242.107 52.2941C238.339 53.3086 236.527 52.0044 236.527 52.0044C237.469 53.1637 239.788 53.5987 239.788 53.5987C239.788 53.5987 238.774 56.4249 235.295 57.4394C231.817 58.4539 230.802 55.0479 230.802 55.0479C233.701 53.9609 234.064 50.917 234.064 50.917C234.064 50.917 230.223 54.3231 226.599 53.2362C223.609 52.3395 223.285 50.9027 223.262 50.4263C223.107 54.421 225.078 55.5553 225.078 55.5553C225.078 55.5553 221.744 58.5992 218.483 56.4974C215.277 54.431 217.6 50.8318 217.679 50.7113C217.61 50.8127 216.991 51.5478 214.28 50.1927C212.837 49.4711 212.544 48.0486 212.613 46.8025C212.399 47.1726 212.229 47.5933 212.121 48.0753C211.288 51.8276 215.04 52.8004 215.04 52.8004C215.04 52.8004 214.28 58.4917 219.626 60.1661C225.73 62.0777 228.798 56.2749 228.798 56.2749C228.798 56.2749 229.216 59.1934 232.968 60.0272C236.72 60.861 238.249 57.1087 238.249 57.1087C238.249 57.1087 239.5 62.112 245.198 61.9727C250.895 61.8334 251.451 57.1087 251.451 57.1087C251.451 57.1087 257.93 58.4547 259.845 53.5665Z" fill="#BDE7FF"/>
<path d="M255.4 44.2378C255.083 41.6854 253.649 36.8458 247.42 35.29C240.123 33.4671 236.303 40.8488 236.303 40.8488C236.303 40.8488 235.334 38.4545 233.245 38.4863C230.657 38.5253 230.049 41.4049 230.049 41.4049C230.049 41.4049 228.817 35.1809 223.239 35.7071C219.431 36.0665 218.04 38.32 217.582 40.4134C218.939 39.0988 221.029 37.6589 223.048 37.8738C226.454 38.236 227.758 42.7294 227.758 42.7294C227.758 42.7294 225.222 42.8018 224.932 46.6425C224.932 46.6425 226.382 44.0336 228.628 44.0336C230.875 44.0336 232.614 45.9178 232.614 45.628C232.614 45.3383 231.744 43.164 230.73 42.657C230.73 42.657 232.107 40.7004 233.919 41.4251C235.73 42.1499 236.817 45.1934 236.817 45.1934C236.817 45.1934 239.064 43.092 241.745 43.3817C244.427 43.6715 245.658 44.9761 245.658 44.9761C245.658 44.9761 243.485 40.5555 239.064 41.063C239.064 41.063 240.658 36.9321 246.238 37.6569C251.818 38.3816 251.746 45.0485 251.746 45.0485C251.746 45.0485 253.26 43.6476 255.4 44.2378Z" fill="white"/>
<path d="M188.541 43.184C188.541 43.184 183.955 43.3229 183.121 47.0752C182.287 50.8276 186.039 51.8003 186.039 51.8003C186.039 51.8003 185.279 57.4917 190.626 59.1661C196.729 61.0777 199.798 55.2748 199.798 55.2748C199.798 55.2748 200.215 58.1934 203.967 59.0272C207.719 59.861 209.248 56.1087 209.248 56.1087C209.248 56.1087 210.499 61.1119 216.197 60.9726C221.894 60.8333 222.45 56.1087 222.45 56.1087C222.45 56.1087 229.121 57.4985 230.928 52.3563C232.734 47.2141 226.481 44.8516 226.481 44.8516C226.481 44.8516 227.021 36.4383 218.42 34.2895C211.123 32.4666 207.303 39.8484 207.303 39.8484C207.303 39.8484 206.334 37.454 204.245 37.4858C201.657 37.5248 201.049 40.4044 201.049 40.4044C201.049 40.4044 199.817 34.1804 194.239 34.7066C186.873 35.4015 188.541 43.184 188.541 43.184Z" fill="#DEF5FF"/>
<path d="M188.678 49.7122C188.683 49.7046 188.685 49.7004 188.685 49.7004C188.685 49.7004 188.679 49.7097 188.678 49.7122Z" fill="white"/>
<path d="M194.262 49.4267C194.264 49.3714 194.262 49.3216 194.265 49.2655C194.265 49.2655 194.257 49.3256 194.262 49.4267Z" fill="white"/>
<path d="M230.845 52.5665C230.11 53.3621 228.901 54.2902 226.949 54.9179C222.89 56.2221 221.514 53.1062 221.514 53.1062C221.514 53.1062 220.064 57.7441 216.513 57.0918C212.962 56.4394 213.107 52.7436 213.107 52.7436C217.165 52.309 218.108 48.6128 218.108 48.6128C218.108 48.6128 216.875 50.2796 213.107 51.2941C209.339 52.3086 207.527 51.0044 207.527 51.0044C208.469 52.1637 210.788 52.5987 210.788 52.5987C210.788 52.5987 209.774 55.4249 206.295 56.4394C202.817 57.4539 201.802 54.0479 201.802 54.0479C204.701 52.9609 205.063 49.917 205.063 49.917C205.063 49.917 201.223 53.3231 197.599 52.2362C194.609 51.3395 194.284 49.9027 194.262 49.4263C194.107 53.421 196.077 54.5553 196.077 54.5553C196.077 54.5553 192.744 57.5992 189.483 55.4974C186.277 53.431 188.599 49.8318 188.679 49.7113C188.61 49.8127 187.99 50.5478 185.28 49.1927C183.837 48.4711 183.544 47.0486 183.612 45.8025C183.399 46.1726 183.228 46.5933 183.121 47.0753C182.288 50.8276 186.04 51.8004 186.04 51.8004C186.04 51.8004 185.28 57.4917 190.626 59.1661C196.73 61.0777 199.798 55.2749 199.798 55.2749C199.798 55.2749 200.215 58.1934 203.968 59.0272C207.72 59.861 209.249 56.1087 209.249 56.1087C209.249 56.1087 210.5 61.112 216.198 60.9727C221.895 60.8334 222.451 56.1087 222.451 56.1087C222.451 56.1087 228.93 57.4547 230.845 52.5665Z" fill="#DEF5FF"/>
<path d="M226.4 43.2378C226.083 40.6854 224.649 35.8458 218.42 34.29C211.123 32.4671 207.303 39.8488 207.303 39.8488C207.303 39.8488 206.334 37.4545 204.245 37.4863C201.657 37.5253 201.049 40.4049 201.049 40.4049C201.049 40.4049 199.817 34.1809 194.239 34.7071C190.431 35.0665 189.04 37.32 188.582 39.4134C189.939 38.0988 192.029 36.6589 194.048 36.8738C197.454 37.236 198.758 41.7294 198.758 41.7294C198.758 41.7294 196.222 41.8018 195.932 45.6425C195.932 45.6425 197.382 43.0336 199.628 43.0336C201.875 43.0336 203.614 44.9178 203.614 44.628C203.614 44.3383 202.744 42.164 201.73 41.657C201.73 41.657 203.107 39.7004 204.919 40.4251C206.73 41.1499 207.817 44.1934 207.817 44.1934C207.817 44.1934 210.064 42.092 212.745 42.3817C215.427 42.6715 216.658 43.9761 216.658 43.9761C216.658 43.9761 214.485 39.5555 210.064 40.063C210.064 40.063 211.658 35.9321 217.238 36.6569C222.818 37.3816 222.746 44.0485 222.746 44.0485C222.746 44.0485 224.26 42.6476 226.4 43.2378Z" fill="white"/>
<path d="M204.953 51.5736C204.953 51.5736 193.351 54.8146 186.885 48.3472C179.894 41.3563 183.244 29.3565 189.788 26.0845C196.886 22.5356 201.296 25.1168 201.296 25.1168C201.296 25.1168 201.966 14.9199 211.836 11.9956C223.451 8.55417 227.538 16.0822 227.538 16.0822C227.538 16.0822 233.346 8.98428 243.026 11.5649C252.705 14.1461 252.921 25.3313 252.921 25.3313C252.921 25.3313 261.524 23.6103 266.472 27.9125C271.419 32.2141 269.913 38.8826 269.913 38.8826C269.913 38.8826 274.861 37.3772 277.011 41.8939C279.162 46.4106 275.29 50.9279 269.268 50.0677C269.268 50.0677 266.471 58.2415 253.565 58.0264C240.659 57.8113 240.014 46.8413 240.014 46.8413C240.014 46.8413 236.572 52.4338 230.765 52.2188C224.957 52.0037 222.806 46.4112 222.806 46.4112C222.806 46.4112 224.298 53.1111 217.321 55.5527C208.717 58.5646 204.953 51.5736 204.953 51.5736Z" fill="#DEF5FF"/>
<path d="M276.955 46.9313C272.623 49.1532 266.686 47.272 266.686 47.272C269.912 46.1968 269.267 43.293 269.267 43.293C269.267 43.293 268.729 45.229 265.503 45.6591C262.277 46.0892 260.556 43.508 260.556 43.508C261.954 47.1645 263.674 47.272 263.674 47.272C263.674 47.272 262.169 54.048 252.489 53.2947C242.81 52.542 242.487 43.7231 242.487 43.7231C249.585 43.0779 250.768 36.517 250.768 36.517C250.768 36.517 248.617 39.7434 242.595 40.066C236.572 40.3886 233.883 36.0869 233.883 36.0869C234.206 40.3892 238.831 42.6472 238.831 42.6472C238.831 42.6472 237.218 47.1645 230.764 47.5946C224.311 48.0247 221.945 42.2171 221.945 42.2171C221.945 42.2171 220.655 50.0683 213.664 50.821C206.674 51.5737 205.49 45.6585 205.49 45.6585C210.007 45.0134 211.298 41.2488 211.298 41.2488C211.298 41.2488 208.609 43.5074 203.984 42.9698C199.359 42.4322 198.499 37.9149 198.499 37.9149C197.962 42.7547 201.08 44.3676 201.08 44.3676C201.08 44.3676 197.101 48.8849 189.358 45.7655C185.371 44.1596 183.787 39.907 183.225 36.0957C182.53 40.3062 183.463 44.9251 186.884 48.3467C193.351 54.8141 204.952 51.5731 204.952 51.5731C204.952 51.5731 208.716 58.5641 217.32 55.5522C224.297 53.11 222.805 46.4106 222.805 46.4106C222.805 46.4106 224.956 52.0032 230.764 52.2183C236.571 52.4333 240.013 46.8408 240.013 46.8408C240.013 46.8408 240.658 57.8108 253.564 58.0259C266.47 58.2409 269.266 50.0671 269.266 50.0671C272.898 50.5867 275.737 49.1444 276.955 46.9313Z" fill="#AEE1FF"/>
<path d="M266.47 27.913C261.523 23.6108 252.919 25.3318 252.919 25.3318C252.919 25.3318 252.704 14.1467 243.024 11.5655C233.345 8.98425 227.537 16.0828 227.537 16.0828C227.537 16.0828 223.45 8.55414 211.835 11.9962C201.966 14.9204 201.295 25.1174 201.295 25.1174C201.295 25.1174 196.885 22.5361 189.787 26.0851C188.738 26.6099 187.782 27.3783 186.926 28.2958C189.298 27.4438 192.919 26.4153 195.519 26.9225C199.703 27.7389 202.765 31.3112 202.867 30.6988C202.97 30.0864 203.48 17.3287 212.869 15.8999C222.258 14.471 224.402 20.6965 224.402 20.6965C224.402 20.6965 219.605 22.023 220.218 27.8406C220.218 27.8406 222.565 21.8191 227.873 22.6355C233.18 23.4519 233.384 27.8406 233.384 27.8406C233.384 27.8406 234.609 22.4315 229.199 20.288C229.199 20.288 232.567 12.8377 241.141 15.1852C249.713 17.5326 250.632 28.1468 250.632 28.1468C250.632 28.1468 255.633 25.4931 261.655 27.7383C266.939 29.7089 269.55 34.6633 270.11 35.8478C270.002 33.5354 269.269 30.3464 266.47 27.913Z" fill="white"/>
<path d="M157.957 60.9594C157.957 60.9594 161.076 59.6225 162.747 61.8505C164.418 64.0785 163.193 67.1976 160.853 67.8659C158.514 68.5341 156.732 67.643 156.732 67.643C156.732 67.643 154.756 70.6789 150.271 70.0939C145.146 69.4256 144.589 66.5294 144.589 66.5294C144.589 66.5294 142.584 69.3142 137.349 69.7599C132.113 70.2053 130.219 66.6408 130.219 66.6408C130.219 66.6408 127.88 70.0943 121.308 70.0943C114.736 70.0943 106.937 62.1852 109.5 54.2761C112.062 46.3671 119.86 46.0328 119.86 46.0328C119.86 46.0328 122.199 37.9008 130.442 39.1263C138.382 40.3067 139.131 47.3697 139.131 47.3697C139.131 47.3697 142.361 44.362 146.595 46.9239C150.217 49.1165 148.265 53.385 148.265 53.385C148.265 53.385 148.377 52.3825 150.827 52.9397C153.278 53.4965 152.944 55.8359 152.944 55.8359C152.944 55.8359 154.982 53.6592 157.288 55.1677C160.185 57.0606 157.957 60.9594 157.957 60.9594Z" fill="#DEF5FF"/>
<path d="M109.169 59.2857C111.187 62.6512 114.674 66.2089 120.751 66.8632C127.992 67.6429 130.442 62.9644 130.442 62.9644C128.771 62.853 128.326 61.8504 128.326 61.8504C123.424 63.5212 122.645 59.6224 122.645 59.6224C122.645 59.6224 123.202 61.4046 125.541 61.0707C127.88 60.7364 129.217 58.6202 129.217 58.6202C129.217 58.6202 129.328 60.9597 132.559 61.6279C135.789 62.2962 138.463 60.6254 138.463 60.6254C135.789 63.1873 133.45 62.9648 133.45 62.9648C133.45 62.9648 134.564 64.9699 138.908 65.5267C143.253 66.0835 146.261 63.1873 146.261 63.1873C146.261 63.1873 147.486 65.4153 150.271 66.4179C153.056 67.4204 155.061 65.8611 155.061 65.8611C153.167 65.7496 152.944 64.5242 152.944 64.5242C156.509 65.7496 158.848 63.2987 158.848 63.2987C158.737 65.081 157.511 65.6382 157.511 65.6382C157.511 65.6382 158.514 67.1975 161.41 65.9725C162.999 65.3003 163.347 64.0243 163.337 63.0094C163.977 65.04 162.807 67.3078 160.853 67.8662C158.514 68.5344 156.731 67.6433 156.731 67.6433C156.731 67.6433 154.756 70.6792 150.27 70.0942C145.146 69.4259 144.589 66.5293 144.589 66.5293C144.589 66.5293 142.584 69.3141 137.348 69.7599C132.113 70.2056 130.219 66.6407 130.219 66.6407C130.219 66.6407 127.879 70.0942 121.307 70.0942C116.145 70.0938 110.229 65.2127 109.169 59.2857Z" fill="#BDE7FF"/>
<path d="M119.86 46.0323C119.86 46.0323 122.199 37.9003 130.442 39.1258C138.382 40.3059 139.131 47.3692 139.131 47.3692C139.131 47.3692 142.361 44.3615 146.595 46.9238C149.792 48.8589 148.648 52.409 148.335 53.2166C148.496 52.9579 149.036 52.532 150.828 52.9392C153.279 53.496 152.944 55.8354 152.944 55.8354C152.944 55.8354 154.982 53.6588 157.289 55.1672C159.756 56.7807 158.505 59.8477 158.08 60.7209C158.125 60.2484 158.27 57.5544 155.962 56.7369C153.43 55.8402 151.794 56.7369 151.794 56.7369C151.794 56.7369 151.267 54.3628 149.262 53.9935C147.258 53.6241 146.572 54.6267 146.572 54.6267C146.572 54.6267 146.677 50.5643 143.987 49.4567C141.296 48.3486 138.764 49.9844 138.764 49.9844C138.764 49.9844 141.349 51.145 141.402 53.3081C141.402 53.3081 139.925 50.3008 137.023 50.6176C134.122 50.9341 133.436 51.8837 133.436 51.8837C133.436 51.8837 134.438 49.9319 136.337 49.6151C136.337 49.6151 136.442 46.5023 134.227 44.9199C132.011 43.3374 129.848 46.1334 129.848 46.1334C129.848 46.1334 131.272 46.4498 132.38 48.0326C132.38 48.0326 129.795 46.5027 127.527 46.9246C125.258 47.3465 124.678 47.8213 124.678 47.8213C124.678 47.8213 125.786 46.2914 127.421 46.0275C127.421 46.0275 124.221 43.5583 119.86 46.0323Z" fill="white"/>
<path d="M96.9803 51.5905C96.9803 51.5905 96.9803 54.2822 101.018 55.9645C105.056 57.6469 110.103 55.9645 110.103 55.9645C110.103 55.9645 110.103 61.3479 115.486 63.0302C120.869 64.7125 122.889 61.3479 122.889 61.3479C122.889 61.3479 122.889 64.3762 128.945 66.7312C135.001 69.0866 141.731 66.0582 141.731 66.0582C141.731 66.0582 143.489 77.8509 156.535 77.4979C171.853 77.0836 174.032 65.7215 174.032 65.7215C174.032 65.7215 176.387 67.4038 184.126 65.0485C191.865 62.6931 193.211 53.9451 193.211 53.9451C193.211 53.9451 201.959 54.6181 200.949 48.898C199.94 43.178 193.211 44.8603 193.211 44.8603C193.211 44.8603 190.519 34.7662 179.079 31.7379C167.639 28.7095 158.555 39.1403 158.555 39.1403C158.555 39.1403 158.218 33.4202 150.479 30.7285C142.74 28.0369 137.02 32.7472 137.02 32.7472C137.02 32.7472 134.815 25.5979 126.926 26.0178C120.073 26.3828 117.841 34.4295 117.841 34.4295C117.841 34.4295 115.486 32.7472 109.766 34.4295C104.046 36.1119 103.037 44.5236 103.037 44.5236C103.037 44.5236 100.284 40.63 94.625 44.8599C94.625 44.8599 86.2825 41.0005 86.0043 47.9548C85.7492 54.3351 96.9803 51.5905 96.9803 51.5905Z" fill="#DEF5FF"/>
<path d="M200.009 46.5984C197.86 43.7022 193.21 44.8615 193.21 44.8615C193.21 44.8615 190.519 34.7675 179.079 31.7391C167.638 28.7107 158.554 39.1415 158.554 39.1415C158.554 39.1415 158.218 33.4214 150.479 30.7297C142.74 28.0381 137.02 32.7484 137.02 32.7484C137.02 32.7484 134.815 25.5991 126.926 26.019C120.073 26.384 117.841 34.4308 117.841 34.4308C117.841 34.4308 115.486 32.7484 109.766 34.4308C104.046 36.1131 103.036 44.5248 103.036 44.5248C103.036 44.5248 100.283 40.6312 94.6245 44.8611C94.6245 44.8611 88.2697 41.9223 86.4683 45.7996C87.6086 45.32 89.5433 44.8038 91.5396 45.6205C94.6655 46.8993 94.6655 46.8993 94.6655 46.8993C94.6655 46.8993 96.9389 43.7734 99.9227 44.6259C102.907 45.4784 104.327 46.7572 104.327 46.7572C104.327 46.7572 106.406 41.0559 110.72 39.227C116.583 36.7415 120.524 39.6533 120.524 39.6533C120.524 39.6533 121.128 34.9872 126.669 33.4242C132.21 31.8613 135.442 36.2436 135.442 36.2436C135.442 36.2436 138.617 34.1645 144.584 35.017C150.551 35.8695 153.344 43.2059 153.344 43.2059C153.344 43.2059 156.328 40.5062 160.022 41.2166C163.716 41.9271 165.421 43.2059 165.421 43.2059C165.421 43.2059 167.936 36.857 174.708 36.7423C183.091 36.6002 184.886 43.0638 184.886 43.0638C184.886 43.0638 187.302 42.0692 189.575 43.6321C191.848 45.1951 192.985 47.8947 192.985 47.8947C192.985 47.8947 196.232 45.675 200.009 46.5984Z" fill="white"/>
<path d="M200.959 48.9756C200.474 49.7386 199.754 50.5632 198.669 51.3035C195.543 53.4348 191.991 52.156 191.991 52.156C191.991 52.156 190.428 58.6916 187.87 59.1179C185.313 59.5441 181.335 58.4074 181.335 58.4074C181.335 58.4074 178.351 62.8117 174.799 63.2379C173.039 63.4493 171.593 62.9972 170.582 62.4873C172.597 61.2842 173.451 58.3919 173.451 58.3919C173.451 58.3919 175.822 59.9425 178.65 58.6657C181.477 57.3889 180.565 53.832 180.565 53.832C180.565 53.832 179.561 57.6628 176.825 57.4801C174.089 57.2978 172.721 55.3826 172.721 55.3826C172.721 55.3826 171.262 59.213 168.252 58.8484C165.242 58.4834 163.966 54.9265 163.966 54.9265C163.966 54.9265 159.132 58.5746 155.392 55.0177C155.392 55.0177 155.666 58.2096 159.223 58.2096C162.78 58.2096 163.327 57.4801 163.327 57.4801C163.327 57.4801 163.601 61.7665 167.705 62.861C167.851 62.9 167.992 62.9283 168.132 62.951C166.633 65.368 163.104 69.631 157.323 68.4951C149.367 66.9322 150.362 59.5441 150.362 59.5441C150.362 59.5441 146.81 63.0963 142.974 63.5225C140.419 63.8063 138.625 62.3285 137.709 61.3076C142.656 61.0314 143.263 57.566 143.263 57.566C143.263 57.566 143.537 58.8428 146.638 59.1166C149.738 59.3905 151.289 56.7454 151.289 56.7454C151.289 56.7454 147.276 59.3901 143.081 56.0158C143.081 56.0158 141.074 59.0255 137.152 59.0255C133.231 59.0255 130.586 56.5631 130.586 56.5631C130.586 56.5631 131.405 60.5773 135.813 61.234C134.113 62.3233 130.917 63.9886 128.34 63.0963C124.645 61.8175 123.224 57.9816 123.224 57.9816C123.224 57.9816 121.093 58.9762 116.405 57.6974C113.251 56.8373 111.94 53.7246 111.435 51.9176C114.539 52.4856 116.449 50.0876 116.449 50.0876C118.912 52.0028 121.466 49.267 121.466 49.267C121.466 49.267 120.736 50.0876 119.094 49.8142C117.453 49.5404 116.45 48.1725 116.45 48.1725C116.45 48.1725 115.355 50.4526 111.616 50.3615C107.877 50.2703 106.782 47.5341 106.782 47.5341C106.782 47.5341 107.469 50.3236 110.135 51.5137C108.734 52.6794 106.068 54.5273 103.334 54.4298C99.3556 54.2877 97.3668 49.3151 97.3668 49.3151C97.3668 49.3151 96.3722 50.8781 91.8258 51.1622C89.7065 51.2948 87.6806 50.285 86.1205 49.169C87.2834 53.9582 96.9819 51.5913 96.9819 51.5913C96.9819 51.5913 96.9819 54.2829 101.02 55.9653C105.057 57.6476 110.104 55.9653 110.104 55.9653C110.104 55.9653 110.104 61.3486 115.488 63.031C120.871 64.7133 122.89 61.3486 122.89 61.3486C122.89 61.3486 122.89 64.377 128.946 66.732C135.003 69.0873 141.732 66.059 141.732 66.059C141.732 66.059 143.49 77.8517 156.537 77.4991C171.854 77.0848 174.034 65.7227 174.034 65.7227C174.034 65.7227 176.389 67.405 184.128 65.0496C191.866 62.6943 193.212 53.9462 193.212 53.9462C193.212 53.9462 201.874 54.6101 200.959 48.9756Z" fill="#BDE7FF"/>
<path d="M101.636 53.2015C101.636 53.2015 106.808 53.3412 106.948 49.8464C107.087 46.3516 103.173 46.3516 103.173 46.3516C103.173 46.3516 102.669 40.7457 96.4635 40.0608C90.1107 39.3599 88.4952 44.9534 88.4952 44.9534C88.4952 44.9534 87.7107 41.6293 84.7751 41.9091C81.8394 42.1889 81.3658 44.8137 81.3658 44.8137C81.3658 44.8137 75.7043 42.9761 75.0523 46.9482C74.5051 50.2818 78.4302 50.685 78.4302 50.685C78.4302 50.685 78.0166 54.0031 81.0398 55.1887C84.0635 56.3744 86.0789 54.4182 86.0789 54.4182C86.0789 54.4182 86.149 56.881 87.9762 57.6197C90.7626 58.7461 91.9482 56.4341 91.9482 56.4341C91.9482 56.4341 94.0823 59.4577 97.9951 58.3907C102.56 57.1457 101.636 53.2015 101.636 53.2015Z" fill="#F5FCFF"/>
<path d="M83.2651 49.6493C83.2543 49.5601 83.242 49.4742 83.2332 49.379C83.2332 49.379 83.2313 49.4853 83.2651 49.6493Z" fill="#BCD1CA"/>
<path d="M106.93 49.9777C105.386 50.1266 104.516 48.4307 104.516 48.4307C104.516 48.4307 105.405 51.3357 100.959 52.1062C96.5129 52.8767 95.1493 50.7427 95.1493 50.7427C96.4536 53.4698 99.0028 53.4105 99.0028 53.4105C99.0028 53.4105 98.4695 56.9085 95.3866 56.6713C92.3036 56.4341 92.1257 54.1814 92.1257 54.1814C92.1257 54.1814 91.5327 55.9007 89.0428 55.8414C86.5529 55.7821 86.7309 52.9957 86.7309 52.9957C90.1103 52.6992 90.7029 50.3872 90.7029 50.3872C90.7029 50.3872 88.9835 52.0473 86.0789 51.6322C83.8653 51.3162 83.3741 50.1755 83.2651 49.6497C83.5536 52.0027 84.5968 52.2845 84.5968 52.2845C84.5968 52.2845 83.589 54.1814 80.8026 53.1143C78.0162 52.0473 79.6763 48.1939 79.6763 48.1939C79.6763 48.1939 78.6686 49.083 76.3566 48.1346C75.7584 47.8894 75.3536 47.4158 75.0778 46.8518C75.071 46.8864 75.0583 46.9135 75.0523 46.9489C74.5051 50.2826 78.4302 50.6857 78.4302 50.6857C78.4302 50.6857 78.0166 54.0039 81.0398 55.1895C84.0635 56.3751 86.0789 54.419 86.0789 54.419C86.0789 54.419 86.149 56.8818 87.9762 57.6205C90.7626 58.7468 91.9482 56.4349 91.9482 56.4349C91.9482 56.4349 94.0827 59.4584 97.9954 58.391C102.561 57.1461 101.636 53.2019 101.636 53.2019C101.636 53.2019 106.661 53.3305 106.93 49.9777Z" fill="#BDE7FF"/>
<path d="M96.2761 41.3757C99.0032 41.2806 100.688 42.0503 101.673 42.787C100.695 41.529 99.0955 40.3517 96.4632 40.0611C90.1103 39.3603 88.4952 44.9537 88.4952 44.9537C88.4952 44.9537 87.7108 41.6297 84.7751 41.9094C84.0941 41.9743 83.5508 42.1681 83.1099 42.4233C83.5811 42.4376 84.1009 42.5259 84.6565 42.7393C86.9685 43.6284 87.3243 45.585 87.3243 45.585C87.3243 45.585 84.953 45.8222 84.5972 47.897C84.5972 47.897 88.2134 45.1106 92.6006 47.7784C92.6006 47.7784 92.2448 45.8222 89.7549 45.4664C89.7549 45.4664 91.1773 41.5536 96.2761 41.3757Z" fill="white"/>
<path d="M48.8376 47.0415C48.8376 47.0415 46.247 46.3278 45.3053 48.838C44.5559 50.8368 45.1951 52.3977 47.1234 53.3617C49.0517 54.3256 51.5157 53.4688 51.5157 53.4688C51.5157 53.4688 51.0791 57.3727 56.3367 58.6109C60.9213 59.6907 62.9785 56.0398 62.9785 56.0398C62.9785 56.0398 65.6388 58.5652 70.2631 56.6826C73.6903 55.2876 74.2268 52.0762 74.2268 52.0762C74.2268 52.0762 77.1195 53.5758 79.5831 52.0762C82.0471 50.5765 81.7255 48.7552 81.7255 48.7552C81.7255 48.7552 85.3433 49.441 86.0343 46.9551C86.6595 44.7064 84.5111 43.7201 84.5111 43.7201C84.5111 43.7201 85.8607 37.9595 80.8256 37.1022C75.7905 36.2453 74.6753 40.9302 74.6753 40.9302C74.6753 40.9302 72.1023 37.2276 68.0132 39.4345C65.634 40.7188 65.6563 42.5413 65.6563 42.5413C65.6563 42.5413 63.835 36.2206 58.5858 36.0065C53.3366 35.7924 53.2295 40.9345 53.2295 40.9345C53.2295 40.9345 51.5153 40.0776 49.48 41.7914C47.445 43.506 48.8376 47.0415 48.8376 47.0415Z" fill="#F5FCFF"/>
<path d="M86.1298 45.8752C85.8432 46.4504 85.3218 47.1039 84.3404 47.5202C82.2692 48.399 80.8889 47.0183 80.8889 47.0183C80.8889 47.0183 80.8889 49.152 79.1317 50.7209C77.3746 52.2898 74.8015 50.7838 74.8015 50.7838C76.6844 49.5914 76.6215 47.8971 76.6215 47.8971C73.4208 51.3485 69.4046 49.0266 69.4046 49.0266C70.4713 50.6584 72.2284 51.1603 72.2284 51.1603C72.2284 51.1603 71.6008 54.8004 68.0864 55.3023C64.5721 55.8042 63.6308 54.2352 63.6308 54.2352C65.4509 53.4822 65.5762 51.0974 65.5762 51.0974C65.5762 51.0974 65.0115 52.4152 62.3755 52.6034C59.7396 52.7917 58.4218 51.1599 58.4218 51.1599C58.6729 52.9171 60.4926 54.1095 60.4926 54.1095C60.4926 54.1095 59.6767 56.306 55.5976 55.6784C51.5185 55.0507 52.5851 50.4694 52.5851 50.4694C52.5851 50.4694 51.2674 52.9171 47.8784 52.2894C46.2995 51.9969 45.4617 51.0787 45.0112 50.1804C44.9372 51.5404 45.652 52.6257 47.1234 53.3616C49.0517 54.3256 51.5157 53.4687 51.5157 53.4687C51.5157 53.4687 51.0791 57.3727 56.3367 58.6109C60.9212 59.6906 62.9785 56.0398 62.9785 56.0398C62.9785 56.0398 65.6387 58.5651 70.2631 56.6825C73.6903 55.2876 74.2268 52.0761 74.2268 52.0761C74.2268 52.0761 77.1194 53.5758 79.5831 52.0761C82.0471 50.5764 81.7255 48.7552 81.7255 48.7552C81.7255 48.7552 85.3433 49.4409 86.0342 46.955C86.1461 46.555 86.1664 46.1968 86.1298 45.8752Z" fill="#BDE7FF"/>
<path d="M84.5644 40.7882C84.2842 39.2252 83.3736 37.5365 80.8256 37.1027C75.7905 36.2458 74.6753 40.9307 74.6753 40.9307C74.6753 40.9307 72.1023 37.2281 68.0132 39.435C65.634 40.7193 65.6562 42.5418 65.6562 42.5418C65.6562 42.5418 63.835 36.2211 58.5858 36.007C53.3366 35.7929 53.2295 40.935 53.2295 40.935C53.2295 40.935 51.5153 40.0781 49.4799 41.7919C48.2445 42.8323 48.2732 44.5397 48.4857 45.7242C48.6867 44.8422 49.2606 43.0735 50.6879 42.6206C52.6102 42.0112 54.1107 43.5582 54.1107 43.5582C54.1107 43.5582 55.3297 39.1042 59.2214 39.6196C63.113 40.1354 64.4256 43.4174 64.4256 43.4174C64.4256 43.4174 62.5033 43.9801 62.3628 46.1839C62.3628 46.1839 63.8163 44.7304 65.6917 44.7773C67.567 44.8243 69.0205 45.5745 69.0205 45.5745C69.0205 45.5745 68.2703 43.6991 66.6294 43.2773C66.6294 43.2773 69.1145 40.0889 72.0215 41.0266C74.9285 41.9643 75.5378 42.9489 75.5378 42.9489C75.5378 42.9489 76.335 38.8228 79.5699 38.6354C82.2648 38.4794 84.0438 40.2055 84.5644 40.7882Z" fill="white"/>
<path d="M33.0856 34.3358C33.0856 34.3358 27.1813 31.9741 24.8196 34.8083C22.4578 37.6424 25.292 41.8935 32.1408 40.4762C32.1408 40.4762 32.8492 48.2698 42.0601 49.2147C51.2706 50.1595 53.6324 44.9636 53.6324 44.9636C53.6324 44.9636 54.6696 55.2766 67.0943 57.4807C78.8039 59.5579 83.6264 48.9786 83.6264 48.9786C83.6264 48.9786 88.6631 53.8816 96.9292 51.7559C105.195 49.6302 106.299 44.7276 106.299 44.7276C106.299 44.7276 118.149 48.1377 120.705 39.5317C123.457 30.2699 109.842 27.9595 109.842 27.9595C109.842 27.9595 110.253 19.2266 101.339 16.6232C94.8122 14.7168 90.7116 21.3467 90.7116 21.3467C90.7116 21.3467 85.6459 16.5858 78.6841 19.5867C72.6699 22.1789 72.5266 27.0146 72.5266 27.0146C72.5266 27.0146 71.5272 15.8384 59.7186 14.1851C47.9099 12.5318 44.8947 22.5276 44.8947 22.5276C44.8947 22.5276 33.558 21.3463 33.0856 34.3358Z" fill="#DEF5FF"/>
<path d="M120.285 40.5955C114.857 45.2652 106.892 42.6332 106.892 42.6332C110.013 41.0727 110.613 36.0312 110.613 36.0312C110.613 36.0312 108.812 39.7521 104.131 40.8327C99.4497 41.9129 96.4488 37.8318 96.4488 37.8318C97.6492 41.6729 101.37 42.9934 101.37 42.9934C101.37 42.9934 97.289 47.6747 91.4073 48.2749C85.5257 48.8751 82.645 46.1142 82.645 46.1142C85.7657 44.9138 87.2064 42.1529 87.2064 42.1529C90.3275 41.7927 91.5275 39.3919 91.5275 39.3919C85.2857 41.9125 81.3248 39.0317 81.3248 39.0317C82.2852 40.7121 85.1659 41.7927 85.1659 41.7927C85.1659 41.7927 84.6859 43.473 80.3644 44.5536C76.0433 45.6338 72.082 43.233 72.082 43.233C74.3626 46.234 78.8039 47.0741 78.8039 47.0741C78.8039 47.0741 73.1622 52.7158 65.24 51.1552C57.3178 49.5947 55.8775 42.3929 55.8775 42.3929C58.8784 41.7927 61.3993 38.7917 61.3993 38.7917C51.1962 42.753 45.7949 36.391 45.7949 36.391C46.6351 40.2321 48.9156 41.5527 48.9156 41.5527C48.9156 41.5527 45.6747 45.3938 39.7931 44.0732C33.9114 42.7531 33.5513 37.2312 33.5513 37.2312C33.5513 37.2312 30.7903 39.7517 27.0694 38.5514C25.4914 38.0423 24.6301 37.0151 24.1565 36.001C23.2928 38.6751 26.2062 41.7039 32.1415 40.4757C32.1415 40.4757 32.85 48.2693 42.0609 49.2142C51.2714 50.159 53.6331 44.9631 53.6331 44.9631C53.6331 44.9631 54.6703 55.2761 67.0951 57.4802C78.8047 59.5574 83.6272 48.9782 83.6272 48.9782C83.6272 48.9782 88.6639 53.8811 96.93 51.7554C105.196 49.6297 106.3 44.7271 106.3 44.7271C106.3 44.7271 117.085 47.81 120.285 40.5955Z" fill="#BDE7FF"/>
<path d="M109.842 27.959C109.842 27.959 110.253 19.2261 101.339 16.6228C94.8122 14.7163 90.7116 21.3462 90.7116 21.3462C90.7116 21.3462 85.6459 16.5853 78.6841 19.5863C72.6699 22.1788 72.5266 27.0141 72.5266 27.0141C72.5266 27.0141 71.5272 15.8379 59.7186 14.1846C47.9099 12.5313 44.8947 22.5271 44.8947 22.5271C44.8947 22.5271 36.8053 21.6853 34.009 29.2545C35.2674 27.996 38.0646 25.5109 40.6408 25.3911C44.0971 25.2303 45.9454 26.677 45.9454 26.677C45.9454 26.677 47.8745 20.3273 56.6353 20.3273C65.396 20.3273 67.3248 30.6152 67.3248 30.6152C67.3248 30.6152 70.4594 27.7218 74.2368 28.6057C78.0142 29.4897 78.7378 30.6152 78.7378 30.6152C78.7378 30.6152 78.4966 25.3911 83.2388 23.864C87.981 22.3368 90.4724 25.5519 90.4724 25.5519C90.4724 25.5519 87.8202 26.2754 86.6146 29.2489C86.6146 29.2489 91.9192 25.4715 96.5809 27.963C96.5809 27.963 94.6518 25.6323 92.7231 25.5519C92.7231 25.5519 94.813 20.3277 99.8764 20.7293C104.94 21.1313 108.155 29.4901 108.155 29.4901C108.155 29.4901 112.278 29.2099 116.478 30.3748C113.375 28.562 109.842 27.959 109.842 27.959Z" fill="white"/>
<path d="M302.903 41.7686C302.903 41.7686 302.291 41.477 302.058 41.9435C301.824 42.41 302.349 42.7307 302.757 42.6433C302.757 42.6433 302.932 43.4013 303.865 43.4888C304.798 43.5762 305.206 43.0223 305.206 43.0223C305.206 43.0223 305.364 43.5929 306.693 43.6928C307.84 43.779 308.676 43.0515 308.676 43.0515C308.676 43.0515 309.153 43.6862 310.494 43.6862C311.836 43.6862 312.524 42.7891 312.524 42.7891C312.524 42.7891 313.545 43.5179 315.323 42.8766C317.101 42.2352 317.364 39.3489 315.877 38.2119C314.39 37.0748 313.486 37.8037 313.486 37.8037C313.486 37.8037 312.534 35.5438 310.221 36.0836C307.814 36.6454 308.151 38.9407 308.151 38.9407C308.151 38.9407 307.323 38.4756 306.606 39.0282C306.067 39.4436 306.11 39.9903 306.11 39.9903C306.11 39.9903 305.235 39.553 304.536 39.8737C303.836 40.1944 303.865 40.9524 303.865 40.9524C303.865 40.9524 303.494 40.6295 303.098 40.981C302.739 41.3007 302.903 41.7686 302.903 41.7686Z" fill="#DEF5FF"/>
<path d="M314.252 42.4051C312.716 42.2655 312.553 41.3113 312.553 41.3113C312.553 41.3113 311.948 42.9637 310.644 42.9869C309.341 43.0102 308.922 42.312 308.922 42.312C309.737 42.1025 309.9 41.2646 309.9 41.2646C309.9 41.2646 309.644 41.6835 308.643 41.8465C307.642 42.0094 307.177 41.5207 307.177 41.5207C307.41 42.0559 307.922 42.2654 307.922 42.2654C307.922 42.2654 307.805 42.7076 306.711 42.917C305.617 43.1265 305.385 42.4981 305.385 42.4981C305.827 42.4283 306.06 41.9628 306.06 41.9628C304.826 42.4748 304.244 41.8697 304.244 41.8697C304.291 42.2886 304.78 42.4981 304.78 42.4981C304.78 42.4981 304.57 43.0799 303.779 43.0101C302.988 42.9403 302.801 42.1723 302.801 42.1723C302.801 42.1723 302.685 42.3119 302.359 42.2653C302.219 42.2453 302.114 42.1223 302.039 41.9886C301.861 42.4301 302.362 42.7277 302.757 42.6431C302.757 42.6431 302.932 43.4011 303.865 43.4886C304.798 43.5761 305.206 43.0221 305.206 43.0221C305.206 43.0221 305.364 43.5928 306.693 43.6927C307.84 43.7789 308.676 43.0513 308.676 43.0513C308.676 43.0513 309.153 43.6861 310.494 43.6861C311.835 43.6861 312.524 42.789 312.524 42.789C312.524 42.789 313.544 43.5178 315.323 42.8764C316.011 42.6281 316.472 42.0426 316.692 41.353C316.192 41.8183 315.275 42.4981 314.252 42.4051Z" fill="#AEE1FF"/>
<path d="M316.265 38.5957C316.153 38.4533 316.024 38.3237 315.877 38.2116C314.39 37.0746 313.486 37.8034 313.486 37.8034C313.486 37.8034 312.534 35.5436 310.221 36.0833C307.814 36.6452 308.151 38.9404 308.151 38.9404C308.151 38.9404 307.323 38.4754 306.606 39.0279C306.067 39.4434 306.11 39.99 306.11 39.99C306.11 39.99 305.235 39.5527 304.536 39.8734C304.169 40.0415 304.003 40.3294 303.928 40.5656C304.109 40.3994 304.454 40.1721 304.966 40.2173C305.757 40.2871 306.199 40.7061 306.199 40.7061C306.199 40.7061 306.339 39.333 307.177 39.1467C308.015 38.9605 308.503 39.682 308.503 39.682C308.503 39.682 308.061 39.9613 308.038 40.4035C308.038 40.4035 309.132 39.2864 310.365 39.9613C310.365 39.9613 309.667 39.3562 308.992 39.4493C308.992 39.4493 309.341 36.9823 311.087 37.1685C312.832 37.3547 313.158 38.3321 313.158 38.3321C313.158 38.3321 314.303 37.4925 316.265 38.5957Z" fill="white"/>
</svg>
